<?xml version="1.0" encoding="utf-8"?>
<!-- Generator: Adobe Illustrator 15.0.0, SVG Export Plug-In . SVG Version: 6.00 Build 0)  -->
<!DOCTYPE svg PUBLIC "-//W3C//DTD SVG 1.1//EN" "http://www.w3.org/Graphics/SVG/1.1/DTD/svg11.dtd">
<svg version="1.1" id="Calque_1" xmlns="http://www.w3.org/2000/svg" xmlns:xlink="http://www.w3.org/1999/xlink" x="0px" y="0px"
	 width="80px" height="24px" viewBox="0 0 80 24" enable-background="new 0 0 80 24" xml:space="preserve">
<g>
	<g>
		<path fill="#E8C6B0" d="M80,21c0,1.65-1.35,3-3,3H3c-1.65,0-3-1.35-3-3V3c0-1.65,1.35-3,3-3h74c1.65,0,3,1.35,3,3V21z"/>
	</g>
	
		<linearGradient id="SVGID_1_" gradientUnits="userSpaceOnUse" x1="420.959" y1="-284.5996" x2="420.959" y2="-272.5996" gradientTransform="matrix(1 0 0 -1 -380.96 -260.5996)">
		<stop  offset="0" style="stop-color:#D3117E;stop-opacity:0"/>
		<stop  offset="1" style="stop-color:#D3117E"/>
	</linearGradient>
	<path fill="url(#SVGID_1_)" d="M77,12H2.999h-3v3v3.501V21c0,1.65,1.35,3,3,3H77c1.65,0,3-1.35,3-3v-2.499V15v-3H77z"/>
	<g>
		<path fill="#2AEDFF" d="M76.965,0C78.643,0,80,1.357,80,3.035v17.93C80,22.643,78.643,24,76.965,24H3.035
			C1.359,24,0,22.643,0,20.965V3.035C0,1.357,1.359,0,3.035,0H76.965 M76.965,1H3.035C1.913,1,1,1.913,1,3.035v17.93
			C1,22.087,1.913,23,3.035,23h73.93C78.087,23,79,22.087,79,20.965V3.035C79,1.913,78.087,1,76.965,1L76.965,1z"/>
	</g>
</g>
</svg>
