<?xml version="1.0" encoding="utf-8"?>
<!-- Generator: Adobe Illustrator 15.0.2, SVG Export Plug-In . SVG Version: 6.00 Build 0)  -->
<!DOCTYPE svg PUBLIC "-//W3C//DTD SVG 1.1//EN" "http://www.w3.org/Graphics/SVG/1.1/DTD/svg11.dtd">
<svg version="1.1" id="Calque_1" xmlns="http://www.w3.org/2000/svg" xmlns:xlink="http://www.w3.org/1999/xlink" x="0px" y="0px"
	 width="369px" height="384px" viewBox="0 0 369 384" enable-background="new 0 0 369 384" xml:space="preserve">
<g>
	<path fill-rule="evenodd" clip-rule="evenodd" fill="#00CC00" d="M248.37,84.72c0.065-0.713,0.175-1.385,1.17-1.17
		C249.471,84.263,249.365,84.935,248.37,84.72z"/>
	<path fill-rule="evenodd" clip-rule="evenodd" fill="#00CC00" d="M241.357,87.057c-0.39,0-0.779,0-1.17,0
		c0.135-1.425,0.35-2.768,2.34-2.337C242.531,85.891,241.58,86.11,241.357,87.057z"/>
	<path fill-rule="evenodd" clip-rule="evenodd" fill="#00CC00" d="M248.37,84.72c0,2.337,0,4.674,0,7.011
		c2.993,0.124,5.572,0.662,7.01,2.339c-0.062,1.492-1.495,1.618-1.166,3.505c3.302-0.965,3.025,1.648,5.845,1.169
		c0,0.78,0,1.558,0,2.337c1.669,0.28,1.969,1.925,3.504,2.337c0.346-2.382,3.164-2.291,3.509-4.674c4.167,1.844-0.556,4.181,0,7.014
		c2.9-0.177,4.85,0.603,5.841,2.337c-1.138,0.031-0.906,1.43-1.166,2.337c1.137-0.033,0.905-1.432,1.166-2.337
		c2.278-0.039,12.642,2.418,7.013,7.014c2.758,1.505,2.177-0.154,5.845,1.167c0.198-1.748-0.414-4.313,1.169-4.674
		c0.248,1.412,1.3,0.719,2.34,0c0.057,3.154-0.784,7.743,3.505,11.688c-1.174-0.004-1.394,0.946-2.34,1.168
		c-6.575-7.02-16.472-5.489-22.206-9.349c-1.016,1.801-3.488,8.074-1.166,9.349c1.743-1.371,1.377-4.857,4.675-4.675
		c0.065,0.713,0.175,1.383,1.166,1.168c2.322,1.578-0.366,8.161,3.509,8.183c0.719,1.697,1.413-0.12,0,0
		c0.154-5.479,2.647,2.392,7.013,0c-0.454,1.667-1.404,1.97,0,3.507c6.819,0.546,7.303-6.1,12.858-1.17
		c-0.017,2.323-3.192,1.486-2.34,4.674c5.271,0.183,10.701,0.208,11.688,4.677c-1.138,0.03-0.906,1.429-1.17,2.337
		c1.138-0.032,0.905-1.432,1.17-2.337c1.312,0.246,1.819,1.297,2.335,2.337c-4.158,3.745-2.555,6.652-4.675,14.025
		c3.107-1.176,5.954-1.221,8.184,1.169c-6.6,4.528-2.518,13.268-10.519,15.195c0.216-0.995-0.455-1.103-1.169-1.169
		c-0.216,0.995,0.454,1.103,1.169,1.169c0,0.778,0,1.558,0,2.337c3.781,1.443,0.894-3.783,4.675-2.337
		c0.455,1.667,1.4,1.972,0,3.505c-1.04,0.52-2.092,1.027-2.34,2.337c-0.313,4.209,2.161,5.635,2.34,9.351
		c2.818-2.146-1.604-6.89,0-11.688c2.209,0.262,2.578-1.316,4.674-1.167c-0.194,1.884-3.923,6.024-1.169,7.013
		c1.863-0.865-0.265-5.722,3.509-4.676c-0.004,1.172,0.946,1.391,1.169,2.337c-2.664,1.811-2.209,2.435-1.169,5.844
		c-7.241,1.196-2.173,7.771-7.014,11.69c-3.411-1.657-5.747-4.387-10.519-4.679c0.004,1.174-0.946,1.393-1.17,2.339
		c-5.84,4.252-2.233,12.578,3.505,14.027c-1.227,2.566,0.041,3.883-2.335,7.01c-0.91,0.264-2.307,0.032-2.339,1.17
		c2.497,6.521,7.334-3.014,10.518,1.169c-0.138,3.367-4.982,2.031-4.674,5.845c3.545,0.604,1.198,1.547,0,5.844
		c4.013-0.918,6.026,1.092,3.509,3.509c6.242,0.316-0.402-4.999,5.84-4.679c-2.696,4.483,10.722-0.483,12.857-2.339
		c0.313,3.976,4.922,3.654,8.184,4.678c-0.062-2.014,0.897-2.997,2.339-3.509c1.637,1.868,4.024,2.989,7.01,3.509
		c-1.036,2.859-6.526,1.268-5.844,5.845c1.376,0.183,3.317-0.199,3.509,1.165c-1.625,3.898-3.903,8.276-10.522,5.849
		c1.49,3.813,1.686,2.477,2.339,5.84c-5.697-4.28-10.543-2.234-17.532-4.671c-2.192,2.226,0.694,2.112,0,5.84
		c3.729-0.999,3.615,1.844,5.845,2.34c0.162-2.177,0.771-3.907,2.339-4.675c0.13,1.426,0.35,2.766,2.335,2.335
		c0,0.391,0,0.78,0,1.17c-1.697,0.723,0.122,1.413,0,0c0.995,0.215,1.104-0.455,1.17-1.17c3.225,0.284,3.565,3.448,4.674,5.849
		c-5.238-0.39-4.832,5.718-2.335,10.519c-1.58-0.37-2.233-1.665-4.674-1.17c-1.027,3.752,3.029,2.42,3.504,4.674
		c-4.662-0.642-3.521-0.642-8.179,0c0-1.165,0-2.335,0-3.504c1.665,0.454,1.97,1.4,3.505,0c-0.467-3.98-3.599-1.926,0-4.679
		c-5.641-0.081-9.405-6.693-11.688-1.17c-1.985-2.299-3.586-4.982-7.013-5.84c-1.215,4.24-3.655,7.253-7.014,9.349
		c-0.317-8.122-3.936,0.41-7.014,0c-1.178-2.327-4.342-2.668-5.845-4.674c2.148-3.002,2.916-0.703,5.845-3.505
		c0.764,4.235,4.982,3.724,7.014,2.335c-4.31-4.073-9.008-5.958-15.193-3.505c0-1.17,0-2.339,0-3.509
		c-6.433,4.118-18.072-1.552-17.531,5.848c-2.011-3.898-9.231-2.213-11.688,0c-1.23,4.346,3.939,2.291,4.675,4.671
		c-3.286-0.171-3.371,2.867-3.505,5.848c3.524,1.535,10.011,0.114,12.854,2.335c-6.648,1.125-12.935-0.093-18.702,2.336
		c5.966,1.709,13.735,5.044,8.184,11.688c4,2.648,5.913,13.532,7.014,15.197c-58.712-3.501-116.36-7.851-175.322-4.675
		c2.209-0.52,7.044,1.588,5.844-2.335c-13.71-3.464-25.809,4.467-39.738,0c1.375-0.187,3.318,0.199,3.506-1.17
		c-13.296,1.767-20.919,2.271-35.063,2.34c0-1.17,0-2.34,0-3.509c9.359-0.772,21.804,1.543,29.22-1.17
		c-4.443-4.191-5.629,0.154-11.688,0c0-0.78,0-1.56,0-2.339c1.698-0.715-0.12-1.414,0,0c-1.974-1.674-3.974-5.8-5.846-10.519
		c3.574-1.503,3.666,1.478,8.184,1.169c0,0.391,0,0.78,0,1.17c1.326-0.224,0.647-1.174,0-1.17c1.837-0.889,1.746-3.707,4.674-3.509
		c0.493,2.238,0.424,5.036,3.507,4.679c-0.065,1.494-1.499,1.616-1.17,3.505c3.783,0.504,10.11-1.539,10.521,2.335
		c-0.995-0.211-1.103,0.459-1.169,1.17c-1.326,0.224-0.648,1.174,0,1.17c0.197,2.533-4.145,0.527-5.844,1.169
		c3.657,3.582,8.64-1.43,14.025,0c0.353-4.971-6.23-1.186-8.181-1.169c0-0.391,0-0.78,0-1.17c0.995,0.219,1.103-0.455,1.169-1.17
		c1.558,0,3.117,0,4.674,0c0-0.775,0-1.556,0-2.335c5.119-3.196,6.1-2.888,11.688-1.166c-0.195,1.356-1.848,1.268-3.507,1.166
		c1.153,5.174,0.181,3.058-1.167,7.014c9.919-3.33,21.467-5.027,28.05-11.688c30.071-2.03,51.379-15.371,84.153-7.014
		c0.187-1.376-0.199-3.317,1.17-3.504c1.096,5.547,11.752,3.33,14.027,0c-1.75-0.203-4.313,0.414-4.674-1.17
		c9.089-3.379,22.563-2.372,25.711-11.688c-3.599-0.877-1.426,4.029-5.844,2.34c0.17-1.381,2.083-2.652,0-3.509
		c-0.792,1.291-3.883,6.063-4.675,3.509c-0.479-6.295,13.475-5.337,5.844-11.688c-0.199,1.746,0.419,4.313-1.169,4.671
		c-0.476-2.25-4.528-0.918-3.505-4.671c1.174-0.008,1.389,0.942,2.335,1.17c0.719,1.697,1.413-0.122,0,0
		c0.239-4.918-4.438-4.914-4.675-9.353c3.842,0.053,2.799,4.995,7.014,4.674c-0.698-3.037,0.472-4.207,3.505-3.509
		c-0.194-3.306-2.14-4.865-2.335-8.179c1.17,0,2.335,0,3.505,0c0.053-1.608-0.549-2.566-1.17-3.509c0.39,0,0.78,0,1.17,0
		c-0.22-1.324-1.174-0.646-1.17,0c-1.36-0.195-1.267-1.844-1.165-3.501c0.905-0.264,2.303-0.032,2.335-1.17
		c-2.867-5.966-0.487-10.348-2.335-16.366c-4.18-0.568-4.22-4.435-8.184-2.339c-0.065-1.495-1.499-1.616-1.17-3.501
		c1.36,0.187,2.08-0.26,2.34-1.17c0.995,0.212,1.101-0.454,1.169-1.169c1.356,0.187,2.08-0.26,2.336-1.17
		c-0.76-1.981-2.685-0.731-2.336,1.17c-0.995-0.22-1.104,0.454-1.169,1.169c-1.36-0.194-2.08,0.256-2.34,1.17
		c-1.641-0.309-1.332-2.566-2.335-3.509c1.697-0.719-0.122-1.413,0,0c-1.56-1.17-3.529-1.925-4.679-3.509
		c-3.565,0.963-2.802,3.289-7.009,1.17c-0.564,3.679,3.586,2.647,2.335,7.014c-2.729-0.387-4.829-1.405-7.014-2.336
		c0.064-1.494,1.498-1.62,1.17-3.509c-4.273-0.012-6.263-2.307-8.184-4.674c1.169,0,2.339,0,3.509,0
		c-3.03-6.153-5.852-6.053-7.014-12.858c-2.546,3.686-2.579,9.889-9.349,9.351c-0.967,3.304,1.645,3.027,1.169,5.842
		c-4.613,2.209-8.528-1.736-10.522,3.509c-2.595-2.705-4.556,0.398-8.179,0c-2.006-1.503-4.598-2.421-4.675-5.844
		c5.024,1.131,3.237-4.557,5.844-5.844c-2.014,0.063-2.997-0.899-3.509-2.337c1.169,0,2.339,0,3.509,0c0.719,1.698,1.409-0.12,0,0
		c0-0.39,0-0.779,0-1.169c-4.024-1.819-7.7-3.988-10.522-7.014c2.753-0.026,3.444,2.015,7.014,1.17c0.719,1.697,1.413-0.12,0,0
		c-0.841-2.388-3.663-4.626-1.17-7.014c3.48,0.095,5.28,7.878,8.184,4.676c-2.534,0.197-0.528-4.146-1.17-5.844
		c-2.079-0.648-4.853-0.601-5.844-2.337c1.169,0,2.339,0,3.509,0c-2.92-4.555-12.602-7.818-17.536-3.509
		c-0.731-3.941-6.481-2.867-7.009-7.012c3.171,0.837-0.837-5.511,2.335-4.674c1.381,0.566,2.652,1.245,3.509,2.337
		c-1.137,0.032-0.91,1.429-1.169,2.337c1.137-0.032,0.905-1.432,1.169-2.337c2.067-1.052,3.412-2.823,5.844-3.507
		c0.122-3.626-3.68-3.336-2.339-8.181c5.121,0.851-0.942-2.323,2.339-2.339c2.229-2.193,2.112,0.694,5.844,0
		c1.527-3.619-0.922-4.538,2.335-7.012c4.565,7.353,10.38-2.375,17.532,1.17c0.775-3.515,4.041-4.535,8.183-4.677
		c3.103-2.715-3.103-3.129,0-5.844c2.932,1.811,3.915,4.739,8.179,2.337c-0.503-3.779-3.931-4.638-5.84-7.012
		c-0.723-1.7-1.414,0.118,0,0c-0.321,2.755-4.358-0.108-4.679-1.17c1.263-4.824,7.148-5.966,4.679-10.518
		c2.177,0.16,3.903,0.768,4.674,2.337c-1.308,1.812-3.801,2.435-3.509,5.844c0.78,0,1.56,0,2.339,0c0,1.558,0,3.117,0,4.674
		c3.578,0.816,10.022,2.165,7.013-2.337c4.597,1.873,0.406-5.048,3.505-4.674c0.719,1.698,1.413-0.12,0,0
		c-0.22-3.411-3.375-1.476-5.844-4.676c3.306,0.967,3.029-1.647,5.844-1.167c0.719,1.697,1.413-0.12,0,0
		c-1.308-3.495,2.883-10.492,3.509-4.676c-1.138,0.032-0.91,1.431-1.17,2.337c1.137-0.03,0.905-1.43,1.17-2.337
		c1.169,0.004,1.389-0.946,2.335-1.168c0.82,3.596,0.82,2.246,0,5.844c2.051,2.211,4.061-2.041,3.509,3.505
		c-1.702,0.719,0.117,1.413,0,0c1.308-0.246,1.819-1.296,2.335-2.337c3.082-0.355,3.018,2.441,3.509,4.676
		c-2.059,0.28-2.664,2.01-2.339,4.674c2.055-0.282,2.664-2.01,2.339-4.674c4.139,2.047,2.871-0.78,7.01-1.169
		c0.053,1.608-0.549,2.566-1.166,3.507c1.832-2.487,9.024-6.825,5.845-9.351c3.78,1.443,0.893-3.781,4.674-2.337
		c-1.068,4.591-0.585,6.449,2.335,9.351c-0.211-2.55,0.959-3.72,3.509-3.507c3.034,2.483,9.175,5.988,4.675,9.351
		c2.903,0.174,4.849-0.605,5.844-2.337c-4.215,0.477-1.6-2.136,1.17-1.169c1.125-5.021-5.742-2.051-5.844-5.844
		c1.498-0.584,6.989-2.958,7.014-1.169c-0.065,1.495-1.499,1.618-1.17,3.507c2.047,0.323,5.832-3.292,7.014,0
		c-0.91,0.262-2.307,0.032-2.34,1.169c1.17,0,2.34,0,3.505,0c0.26,0.91,0.983,1.358,2.34,1.168c0.053,2-0.869,3.027-2.34,3.506
		c0.191,1.371,2.133,0.987,3.509,1.17c-0.26,5.196-7.59,3.32-8.183,8.181c0.329,2.453,3.123-1.693,4.674,1.167
		c-0.211,0.995,0.459,1.104,1.17,1.169c0.719,1.7,1.413-0.118,0,0c0.215-0.995-0.455-1.103-1.17-1.169
		c-0.856-4.335,9.138-11.302,9.354-3.505c1.092-0.857,1.771-2.126,2.335-3.507c-0.809-3.663-3.115-1.525-5.84-1.169
		c0.426-1.988-0.914-2.205-2.34-2.337c0.224-0.946,1.174-1.166,1.17-2.337c2.067,2.195,3.411-1.391,5.844,1.169
		c0.26-0.908,0.033-2.307,1.166-2.339c0.032,1.137,1.434,0.907,2.339,1.169c0.191-1.358-0.256-2.079-1.17-2.337
		c-0.629-5.245-4.666-13.211-9.349-10.52c-1.47,0.479-2.388,1.506-2.339,3.507c-3.277-1.17-0.118-5.406,1.17-5.844
		c-2.384-2.347-2.291,0.516-4.675,1.169c-0.292-3.411,2.201-4.033,3.505-5.844c0.946,0.221,1.166,1.171,2.339,1.167
		c0-1.167,0-2.337,0-3.507c-1.989-0.428-2.205,0.912-2.339,2.339c-2.404-0.321-1.101-4.355-3.505-4.676
		c-1.799,1.373-6.851,3.537-7.014,0c0.991-1.736,3.765-1.692,5.844-2.337c0.224,1.326,1.174,0.65,1.17,0
		c2.985-2.006,4.09,1.34,5.844-1.169C245.97,85.824,246.279,84.389,248.37,84.72z M249.54,97.575
		C249.869,102.176,254.686,97.358,249.54,97.575C248.822,95.877,248.127,97.695,249.54,97.575z M258.889,102.251
		c0.751-2.833-5.568-4.38-5.844-2.337C255.271,100.414,255.981,102.432,258.889,102.251z M189.931,105.758
		C190.694,106.524,189.439,105.267,189.931,105.758L189.931,105.758z M256.549,105.758
		C257.269,107.456,257.963,105.639,256.549,105.758C255.83,104.059,255.14,105.876,256.549,105.758z M268.238,110.433
		C271.511,104.416,262.678,107.562,268.238,110.433L268.238,110.433z M215.642,109.263
		C212.82,113.184,219.565,106.438,215.642,109.263L215.642,109.263z M264.733,111.602c-0.909,0.262-2.307,0.033-2.339,1.168
		C263.303,112.508,264.7,112.737,264.733,111.602z M272.912,112.77C273.68,113.535,272.424,112.28,272.912,112.77L272.912,112.77z
		 M192.266,115.109C193.033,115.875,191.779,114.618,192.266,115.109L192.266,115.109z M224.994,118.614c0-1.558,0-3.117,0-4.674
		C220.49,113.018,220.49,119.536,224.994,118.614z M187.591,116.276C188.359,117.042,187.1,115.787,187.591,116.276L187.591,116.276
		z M209.798,117.446c0.779,0,1.559,0,2.339,0c0-0.78,0-1.56,0-2.337c-0.78,0-1.56,0-2.339,0
		C209.798,115.887,209.798,116.667,209.798,117.446z M262.394,120.951c-3.473-3.367,2.928-2.029,2.339-5.842
		c-9.008,1.456-4.077,11.17-5.844,14.025c0.516-1.7,1.027,0.118,2.335,0C260.859,126.32,266.324,123.473,262.394,120.951z
		 M217.981,117.446C218.744,118.212,217.49,116.955,217.981,117.446L217.981,117.446z M233.174,122.121
		c2.42-3.464,1.441,6.26,3.509,7.014c3.046-5.588-2.323-7.797,0-11.688C234.104,116.953,230.234,120.947,233.174,122.121z
		 M282.265,118.614C283.032,119.379,281.774,118.125,282.265,118.614L282.265,118.614z M286.939,118.614
		C287.706,119.379,286.448,118.125,286.939,118.614L286.939,118.614z M209.798,119.783
		C211.155,124.401,211.155,115.164,209.798,119.783L209.798,119.783z M186.422,124.458c-0.159-2.177-0.768-3.905-2.335-4.675
		C183.758,122.447,184.367,124.175,186.422,124.458z M192.266,122.121c0.779,0,1.56,0,2.339,0c0-0.78,0-1.558,0-2.337
		c-0.779,0-1.56,0-2.339,0C192.266,120.563,192.266,121.341,192.266,122.121z M239.018,120.951
		C240.723,124.825,241.93,116.395,239.018,120.951L239.018,120.951z M213.307,123.29
		C213.087,128.438,217.907,123.621,213.307,123.29C214.423,118.435,209.806,123.053,213.307,123.29z M200.448,123.29
		C201.801,127.908,201.801,118.67,200.448,123.29L200.448,123.29z M228.499,123.29C229.267,124.056,228.008,122.799,228.499,123.29
		L228.499,123.29z M248.37,123.29C249.134,124.056,247.879,122.799,248.37,123.29L248.37,123.29z M246.031,124.458
		C247.384,129.077,247.384,119.84,246.031,124.458L246.031,124.458z M269.407,124.458
		C270.175,125.223,268.915,123.968,269.407,124.458L269.407,124.458z M180.578,126.795
		C182.283,130.669,183.486,122.238,180.578,126.795L180.578,126.795z M198.11,126.795
		C198.877,127.561,197.622,126.306,198.11,126.795L198.11,126.795z M194.605,127.964
		C190.003,128.295,194.821,133.114,194.605,127.964C198.256,131.78,196.571,123.83,194.605,127.964z M206.293,129.134
		C207.057,129.9,205.801,128.643,206.293,129.134L206.293,129.134z M212.137,127.964c-0.91,0.262-2.307,0.033-2.339,1.17
		C210.707,128.872,212.105,129.102,212.137,127.964z M249.54,129.134C250.304,129.9,249.049,128.643,249.54,129.134L249.54,129.134z
		 M177.073,130.302C178.775,134.176,179.981,125.743,177.073,130.302L177.073,130.302z M217.981,129.134
		c-0.905,0.262-2.307,0.032-2.339,1.167C216.551,130.04,217.948,130.269,217.981,129.134z M229.669,131.471
		c2.664,0.327,4.394-0.282,4.674-2.337C232.166,129.294,230.437,129.902,229.669,131.471z M172.399,131.471
		C173.162,132.237,171.907,130.98,172.399,131.471L172.399,131.471z M202.784,132.641c2.81-2.809-3.834-3.028-3.505-1.17
		C199.267,131.39,203.235,132.19,202.784,132.641z M228.499,130.302c-0.905,0.262-2.307,0.033-2.339,1.169
		C227.07,131.209,228.467,131.439,228.499,130.302z M248.37,131.471C249.134,132.237,247.879,130.98,248.37,131.471L248.37,131.471z
		 M257.719,131.471C259.075,136.089,259.075,126.854,257.719,131.471L257.719,131.471z M263.563,131.471
		C266.471,136.03,265.269,127.597,263.563,131.471L263.563,131.471z M167.72,132.641
		C168.488,133.406,167.233,132.149,167.72,132.641L167.72,132.641z M210.967,132.641
		C211.735,133.406,210.476,132.149,210.967,132.641L210.967,132.641z M214.472,132.641
		C215.24,133.406,213.985,132.149,214.472,132.641L214.472,132.641z M180.578,133.809
		C181.345,134.574,180.091,133.319,180.578,133.809L180.578,133.809z M195.775,133.809
		C196.538,134.574,195.283,133.319,195.775,133.809L195.775,133.809z M233.174,133.809
		C233.942,134.574,232.686,133.319,233.174,133.809L233.174,133.809z M166.554,134.978
		C167.318,135.744,166.063,134.487,166.554,134.978L166.554,134.978z M201.618,133.809
		C200.384,140.593,206.683,134.296,201.618,133.809L201.618,133.809z M254.214,134.978c-0.995-0.215-1.104,0.455-1.169,1.167
		c-1.361-0.188-2.08,0.258-2.34,1.17c1.149,1.297,5.023,5.736,7.014,2.337c-0.86-1.864-5.722,0.266-4.674-3.507
		C254.039,136.361,254.146,135.691,254.214,134.978C255.912,134.259,254.093,133.565,254.214,134.978z M278.756,134.978
		c0,0.778,0,1.558,0,2.337c0.779,0,1.56,0,2.339,0c0.715-0.067,1.385-0.175,1.17-1.17c-1.543-0.012-1.068-2.049-2.34-2.337
		C279.861,134.521,279.751,135.193,278.756,134.978z M291.614,134.978C292.381,135.744,291.126,134.487,291.614,134.978
		L291.614,134.978z M168.89,136.146C169.657,136.911,168.398,135.656,168.89,136.146L168.89,136.146z M195.775,136.146
		C197.127,140.765,197.127,131.528,195.775,136.146L195.775,136.146z M222.656,136.146
		C223.423,136.911,222.164,135.656,222.656,136.146L222.656,136.146z M232.008,136.146
		C232.772,136.911,231.517,135.656,232.008,136.146L232.008,136.146z M246.031,138.483c0.17-1.381,2.083-2.648,0-3.505
		C245.861,136.359,243.951,137.626,246.031,138.483z M191.096,137.315C191.864,138.081,190.609,136.826,191.096,137.315
		L191.096,137.315z M237.848,140.822c0.28-1.669,1.925-1.972,2.339-3.507C237.779,136.29,234.941,140.347,237.848,140.822z
		 M292.783,138.483C294.489,142.357,295.691,133.926,292.783,138.483L292.783,138.483z M247.2,139.652
		C247.968,140.418,246.709,139.163,247.2,139.652L247.2,139.652z M239.018,140.822c0,0.777,0,1.557,0,2.337
		c2.879,1.817,3.439-3.97,1.169-3.507C240.122,140.365,240.013,141.035,239.018,140.822z M297.457,141.99
		c1.548,0.014,1.068,2.049,2.34,2.337c0.256-0.91,0.979-1.359,2.339-1.168C303.013,139.173,297.668,138.601,297.457,141.99z
		 M160.711,141.99C155.853,140.873,160.471,145.49,160.711,141.99C162.408,141.271,160.589,140.579,160.711,141.99z M168.89,141.99
		C169.657,142.755,168.398,141.5,168.89,141.99L168.89,141.99z M198.11,141.99C199.462,146.609,199.462,137.372,198.11,141.99
		L198.11,141.99z M214.472,141.99C215.24,142.755,213.985,141.5,214.472,141.99L214.472,141.99z M265.903,141.99
		c-0.017-1.178-2.051-1.47-2.34,0C264.875,141.872,265.382,143.689,265.903,141.99z M288.109,143.159
		C284.608,143.395,289.226,148.012,288.109,143.159c3.676-1.338,2.839,1.836,4.675,2.337c-1.117,4.855,3.5,0.235,0,0
		c-0.329-1.886,1.104-2.012,1.169-3.507C293.153,141.088,286.988,138.948,288.109,143.159z M202.784,143.159
		C203.552,143.925,202.297,142.67,202.784,143.159L202.784,143.159z M268.238,143.159
		C269.005,143.925,267.75,142.67,268.238,143.159L268.238,143.159z M152.528,144.327
		C153.295,145.094,152.036,143.837,152.528,144.327L152.528,144.327z M165.385,144.327
		C166.149,145.094,164.894,143.837,165.385,144.327L165.385,144.327z M253.045,144.327
		C253.808,145.092,252.553,143.837,253.045,144.327L253.045,144.327z M256.549,146.666c0.171-1.381,2.084-2.65,0-3.507
		C256.383,144.54,254.47,145.809,256.549,146.666z M221.486,146.666c1.872-3.255-5.048-3.232-4.675-1.169
		C218.846,145.409,220.446,145.758,221.486,146.666z M240.187,145.497C235.334,144.38,239.951,148.997,240.187,145.497
		C246.385,146.764,241.568,141.945,240.187,145.497z M250.705,144.327c-0.905,0.264-2.303,0.032-2.335,1.169
		C249.276,145.234,250.673,145.464,250.705,144.327z M258.889,145.497C259.653,146.262,258.398,145.007,258.889,145.497
		L258.889,145.497z M262.394,146.666C258.844,148.047,263.664,152.865,262.394,146.666
		C265.894,146.429,261.277,141.811,262.394,146.666z M300.966,145.497C301.327,152.604,303.253,141.04,300.966,145.497
		L300.966,145.497z M158.371,146.666C159.139,147.432,157.88,146.175,158.371,146.666L158.371,146.666z M299.797,145.497
		c-0.906,0.262-2.308,0.032-2.34,1.169C298.367,146.404,299.764,146.634,299.797,145.497z M177.073,147.833
		C177.837,148.599,176.582,147.344,177.073,147.833L177.073,147.833z M189.931,147.833c-0.391,0-0.78,0-1.17,0
		c-0.199,1.887-3.923,6.025-1.17,7.014C188.266,152.402,190.491,151.511,189.931,147.833
		C191.628,147.115,189.809,146.422,189.931,147.833z M224.994,147.833C226.347,152.453,226.347,143.216,224.994,147.833
		L224.994,147.833z M234.343,147.833C235.111,148.599,233.852,147.344,234.343,147.833L234.343,147.833z M250.705,149.003
		c0.78,0,1.56,0,2.34,0c0-0.78,0-1.558,0-2.337c-0.78,0-1.56,0-2.34,0C250.705,147.446,250.705,148.224,250.705,149.003z
		 M260.059,158.354c0.183-1.376-0.203-3.318,1.165-3.507c-0.35,1.899,1.58,3.151,2.339,1.17c-1.36-0.197-1.267-1.848-1.169-3.507
		c-4.22,0.591-2.421-2.433-4.675-5.844C255.194,151.273,257.813,155.271,260.059,158.354z M249.54,147.833
		c-1.377,0.183-3.322-0.201-3.509,1.17C247.407,148.821,249.349,149.204,249.54,147.833z M254.214,149.003
		C254.978,149.769,253.723,148.512,254.214,149.003L254.214,149.003z M265.903,149.003c0,1.169,0,2.337,0,3.507
		C269.31,154.228,269.31,147.286,265.903,149.003c0-0.39,0-0.78,0-1.17C260.981,148.77,264.676,155.27,265.903,149.003z
		 M276.421,149.003C277.184,149.769,275.929,148.512,276.421,149.003L276.421,149.003z M288.109,149.003
		C288.872,149.769,287.617,148.512,288.109,149.003L288.109,149.003z M234.343,150.173
		C235.696,154.791,235.696,145.553,234.343,150.173L234.343,150.173z M282.265,150.173
		C283.032,150.938,281.774,149.682,282.265,150.173L282.265,150.173z M134.995,152.51
		C135.759,153.275,134.504,152.019,134.995,152.51L134.995,152.51z M167.72,152.51C168.488,153.275,167.233,152.019,167.72,152.51
		L167.72,152.51z M171.229,152.51C171.992,153.275,170.738,152.019,171.229,152.51L171.229,152.51z M194.605,151.34
		c-0.909,0.262-2.307,0.033-2.339,1.17C193.171,152.248,194.573,152.478,194.605,151.34z M221.486,152.51
		C221.847,159.617,223.776,148.053,221.486,152.51L221.486,152.51z M271.746,151.34c-0.91,0.262-2.307,0.033-2.339,1.17
		C270.313,152.248,271.714,152.478,271.746,151.34z M290.444,153.678c-1.543-0.012-1.067-2.049-2.335-2.337
		C286.769,153.739,289.945,156.913,290.444,153.678z M174.734,153.678C175.501,154.443,174.246,153.188,174.734,153.678
		L174.734,153.678z M179.408,156.017c4.122,1.015,6.169-2.855,2.339-3.507C182.096,154.807,180.172,154.827,179.408,156.017z
		 M171.229,154.847c-1.36-0.191-2.079,0.258-2.339,1.17c1.198-0.138,2.363,5.042,3.509,1.167
		C171.261,157.152,171.489,155.755,171.229,154.847C172.927,154.128,171.107,153.434,171.229,154.847z M234.343,159.521
		c3.188,0.106,2.352-1.945,4.675,0c-0.26-2.209,1.319-2.579,1.169-4.674C235.651,151.82,234.668,157.229,234.343,159.521z
		 M243.692,154.847C246.604,159.406,245.398,150.975,243.692,154.847L243.692,154.847z M284.604,154.847
		C285.367,155.613,284.113,154.358,284.604,154.847L284.604,154.847z M147.853,159.521
		C146.152,160.241,147.971,160.935,147.853,159.521c3.099-0.016,6.879,0.65,7.013-2.337c-1.99,0.43-2.209-0.912-2.339-2.337
		c-3.302-0.966-3.03,1.647-5.844,1.17C146.354,157.903,147.788,158.029,147.853,159.521z M154.866,164.198c0.776,0,1.556,0,2.335,0
		c0.069,0.712,0.174,1.383,1.169,1.169c0.674-2.055-1.413-6.87,1.17-7.014c-0.065,2.01,0.897,2.995,2.335,3.505
		c-0.26-2.209,1.32-2.579,1.169-4.674c-1.73-0.607-2.944-1.73-4.674-2.337C156.893,157.656,156.869,161.916,154.866,164.198z
		 M264.733,156.017C265.496,156.782,264.241,155.525,264.733,156.017L264.733,156.017z M139.67,157.185
		C142.577,161.743,141.376,153.312,139.67,157.185L139.67,157.185z M177.073,156.017
		C175.843,162.799,182.137,156.502,177.073,156.017L177.073,156.017z M227.329,163.028c0.004-3.801,2.453-6.297-2.335-7.011
		C225.779,160.378,221.754,162.874,227.329,163.028z M264.733,164.198c-2.254-0.475-0.926-4.532-4.674-3.507
		c0.158,4.124,3.342,5.227,3.504,9.351c-3.61,1.239-6.879,0.292-9.349,4.674c4.809-0.546-0.918,2.938,2.335,4.674
		c3.188,0.108,2.355-1.945,4.675,0c1.624-0.717,0.179-4.498,2.339-4.674c-0.812,3.931,2.404,3.832,3.509,5.844
		c-1.092-3.172,7.209-2.735,2.336-5.844c0-0.39,0-0.78,0-1.167c1.701-0.721-0.118-1.413,0,0c-2.445-0.496-3.095,0.8-4.675,1.167
		c0.495-2.443-0.8-3.094-1.17-4.674c0.946-0.223,1.166-1.174,2.34-1.169c-1.117,4.855,3.5,0.235,0,0
		C266.049,166.777,264.473,166.407,264.733,164.198c4.598,1.872,0.406-5.048,3.505-4.677c3.306-0.199,8.021,1.005,8.184-2.337
		c-1.95,0-3.896,0-5.845,0c0-0.39,0-0.78,0-1.167c-2.619,0.495-3.724,2.508-5.844,3.504
		C267.746,159.804,263.128,161.534,264.733,164.198z M166.554,164.198c-0.191,1.369-2.132,0.985-3.509,1.169
		c-0.264-1.49-3.488-1.533-3.504,0c1.535,1.401,1.835,0.455,3.504,0c-0.191,1.356,0.26,2.079,1.17,2.337
		c0.483-2.632,6.408,0.174,5.844-3.507c-1.137-0.033-0.906-1.432-1.169-2.339c1.169,0,2.339,0,3.509,0c0.719,1.7,1.409-0.118,0,0
		c0.187-1.358-0.26-2.079-1.17-2.337c-2.026,1.996-3.062-0.183-7.013,1.17C164.162,162.689,165.084,163.719,166.554,164.198z
		 M292.783,161.859c0,0.39,0,0.78,0,1.169c-0.391,0-0.78,0-1.17,0c-1.519,1.554-1.539,4.35,1.17,4.677
		c-0.216,0.993,0.454,1.103,1.169,1.167c0.719,1.7,1.413-0.118,0,0c0.216-0.993-0.454-1.103-1.169-1.167c0-1.56,0-3.117,0-4.677
		C294.112,162.807,293.433,161.857,292.783,161.859C293.9,157.006,289.282,161.624,292.783,161.859z M296.292,160.691
		c-0.017-1.18-2.051-1.47-2.34,0C295.265,160.574,295.772,162.391,296.292,160.691z M180.578,161.859
		C181.345,162.626,180.091,161.37,180.578,161.859L180.578,161.859z M234.343,163.028c0.78,0,1.56,0,2.34,0c0-0.78,0-1.557,0-2.337
		c-0.78,0-1.56,0-2.34,0C234.343,161.471,234.343,162.249,234.343,163.028z M177.073,163.028
		C177.837,163.794,176.582,162.539,177.073,163.028L177.073,163.028z M213.307,163.028
		C214.07,163.794,212.815,162.539,213.307,163.028L213.307,163.028z M272.912,163.028
		C273.68,163.794,272.424,162.539,272.912,163.028L272.912,163.028z M182.917,164.198
		C183.68,164.963,182.426,163.707,182.917,164.198L182.917,164.198z M186.422,166.535c3.411,1.718,3.411-5.225,0-3.507
		C186.422,164.198,186.422,165.368,186.422,166.535z M296.292,165.368c1.169-0.004,1.389,0.946,2.335,1.167
		c-0.109-1.835,0.158-4.053-2.335-3.507C296.292,163.808,296.292,164.588,296.292,165.368z M214.472,165.368
		C216.178,169.24,217.38,160.807,214.472,165.368L214.472,165.368z M246.031,166.535c-2.4,0.327-2.331,3.121-3.505,4.674
		C246.425,172.385,246.356,169.589,246.031,166.535C247.729,165.816,245.913,165.122,246.031,166.535z M199.28,170.042
		c-0.626,4.52,2.087,5.706,1.169,10.519c4.191-1.263,5.934-4.975,5.845-10.519C202.869,171.092,202.702,171.092,199.28,170.042
		c0.211-2.55-0.959-3.718-3.505-3.507C195.559,169.083,196.729,170.253,199.28,170.042z M201.618,168.873
		c1.746-0.199,4.313,0.418,4.675-1.167C204.738,166.186,201.944,166.164,201.618,168.873z M166.554,168.873
		c-0.479,2.816,2.132,2.54,1.166,5.844c4.654,0.634-1.259-4.138,4.679-3.507c0,1.174-0.946,1.391-1.17,2.339
		c2.924,0.144,3.659,2.229,4.675-1.169c-3.083,0.355-3.014-2.441-3.505-4.674C169.093,166.738,169.369,169.352,166.554,168.873z
		 M179.408,172.379c0-1.17,0-2.337,0-3.507c-1.373,0.183-3.318-0.201-3.504,1.169C177.573,170.322,177.873,171.967,179.408,172.379z
		 M209.798,170.042C210.566,170.808,209.311,169.551,209.798,170.042L209.798,170.042z M270.576,170.042
		c0.033,1.137,1.43,0.908,2.336,1.167c-0.212,0.995,0.458,1.103,1.169,1.17c0.191,1.358-0.256,2.079-1.169,2.337
		c-0.72-1.697-1.41,0.12,0,0c-0.545,2.494,1.673,2.228,3.509,2.337c0-1.167,0-2.337,0-3.505c0.941,0.81,3.2,1.817,3.504,0
		c-1.709,0.019-3.703-4.93-3.504,0c-0.946-0.223-1.166-1.174-2.34-1.169c0.216-0.995-0.455-1.103-1.169-1.17
		C272.883,170.075,271.483,170.304,270.576,170.042C270.341,166.542,265.724,171.159,270.576,170.042z M298.627,170.042
		C299.98,174.66,299.98,165.422,298.627,170.042L298.627,170.042z M163.046,170.042c-0.905,0.262-2.303,0.033-2.335,1.167
		C161.616,170.95,163.013,171.179,163.046,170.042z M240.187,171.209C240.95,171.975,239.696,170.72,240.187,171.209
		L240.187,171.209z M253.045,172.379C253.808,173.145,252.553,171.89,253.045,172.379L253.045,172.379z M146.683,173.549
		C147.447,174.314,146.192,173.058,146.683,173.549L146.683,173.549z M219.151,181.73c-0.09-2.037,0.26-3.635,1.165-4.676
		c-5.035,1.533-1.445-5.564-5.844-4.674C210.61,175.104,213.924,181.442,219.151,181.73z M242.527,184.067
		C240.824,184.786,242.644,185.48,242.527,184.067c1.356-0.191,2.079,0.258,2.335,1.169c-2.055,0.28-2.664,2.01-2.335,4.674
		c2.984-0.615,4.09-1.549,5.844,1.17c-4.8,2.692,4.167,1.117,2.335,4.674c-2.595-2.706-4.557,0.398-8.179,0c0-0.39,0-0.779,0-1.169
		c-3.744-2.25-5.901,0.69-10.519-1.17c0.642,2.591-2.233,1.665-2.339,3.509c2.047,1.068,5.831,0.402,7.014,2.339
		c-2.863,0.873-0.248,3.484,1.165,1.17c-0.345,4.491,5.548,6.254,7.014,2.335c-2.136,7.2,5.682,4.447,8.184,7.014
		c-2.551-0.211-3.721,0.954-3.505,3.505c1.267,0.288,0.792,2.327,2.335,2.335c0.512-1.729,1.494,0.463,3.505,0
		c-1.336-3.671,1.835-2.834,2.339-4.67c-1.657,0.098-3.31,0.19-3.505-1.17c3.257-1.031,7.111-1.462,9.349-3.509
		c-3.387-0.653,1.796-1.819,1.17-3.505c-1.039-0.516-2.092-1.027-2.339-2.335c1.169,0,2.339,0,3.509,0
		c-0.163-2.181-0.771-3.907-2.34-4.679c0.102,1.657,0.195,3.311-1.169,3.509c-0.22-1.328-1.17-0.649-1.17,0
		c-2.53-2.574-8.333-2.57-5.844-7.015c-4.816-0.246-6.043-4.085-9.349-5.844c2.851-3.072-3.034-7.627,3.509-7.014
		c-0.752-4.317-5.714-4.418-8.184-7.011c0.049,2.989-0.869,1.425-2.339,1.169c0.495,2.443-0.8,3.095-1.17,4.674
		c3.599,0.871,2.25-3.208,5.844-2.337c-1.206,3.076-4.634,3.935-5.844,7.013c2.1,0.148,2.47-1.431,4.679-1.169
		C242.527,182.51,242.527,183.288,242.527,184.067z M250.705,173.549C244.508,172.28,249.324,177.098,250.705,173.549
		C252.407,172.828,250.588,172.136,250.705,173.549z M284.604,172.379c-0.909,0.262-2.307,0.032-2.339,1.169
		C283.17,173.287,284.572,173.517,284.604,172.379z M158.371,174.716C159.09,176.416,159.785,174.599,158.371,174.716
		C157.653,173.019,156.958,174.836,158.371,174.716z M186.422,174.716C187.19,175.482,185.93,174.227,186.422,174.716
		L186.422,174.716z M223.824,174.716C218.675,174.499,223.491,179.318,223.824,174.716
		C225.523,173.998,223.703,173.305,223.824,174.716z M226.16,181.73c0.568-1.381,1.246-2.65,2.339-3.507
		c1.876,2.143-1.08,3.958,2.339,5.844c2.092-2.946-1.511-8.007-4.678-9.351C227.431,177.709,222.611,180.289,226.16,181.73z
		 M290.444,182.899c-1.945,0-3.895,0-5.84,0c0,1.168,0,2.337,0,3.505c6.34,1.277,7.77-2.357,12.854-2.337
		c-0.354-2.703-2.493-5.919,1.17-3.507c-0.143-2.973-1.702-4.532-4.675-4.674c-0.463,2.01,1.734,2.995,0,3.504
		c-5.023-0.138,1.966-4.983-3.509-4.674C289.879,177.376,288.129,180.688,290.444,182.899z M166.554,177.054
		c-0.719-0.341-4.5-2.906-4.678,0C162.595,177.397,166.376,179.961,166.554,177.054z M154.866,177.054
		c-0.91,0.262-2.307,0.032-2.339,1.169C153.433,177.961,154.834,178.191,154.866,177.054z M178.239,178.223
		C179.006,178.989,177.751,177.734,178.239,178.223L178.239,178.223z M193.436,178.223
		C193.797,185.33,195.722,173.766,193.436,178.223L193.436,178.223z M286.939,180.561c0.065-2.01-0.901-2.995-2.335-3.507
		C284.713,178.891,284.446,181.106,286.939,180.561z M251.875,179.391C252.643,180.158,251.384,178.901,251.875,179.391
		L251.875,179.391z M153.697,180.561C154.461,181.326,153.206,180.071,153.697,180.561L153.697,180.561z M272.912,180.561
		C273.68,181.326,272.424,180.071,272.912,180.561L272.912,180.561z M165.385,184.067c0.167-1.381,2.079-2.65,0-3.507
		C165.215,181.941,163.302,183.21,165.385,184.067z M168.89,181.73C169.657,182.496,168.398,181.239,168.89,181.73L168.89,181.73z
		 M209.798,181.73C210.566,182.496,209.311,181.239,209.798,181.73L209.798,181.73z M251.875,181.73
		C252.643,182.496,251.384,181.239,251.875,181.73L251.875,181.73z M254.214,181.73C254.978,182.496,253.723,181.239,254.214,181.73
		L254.214,181.73z M260.059,186.404c0.52-5.901,1.636,2.402,3.504,2.337c-1.23-4.348,3.943-2.291,4.675-4.674
		c-3.407,0.292-4.033-2.201-5.844-3.507c-0.143,5.474-1.702-1.271-4.675,0C257.544,183.464,258.324,185.412,260.059,186.404z
		 M274.081,185.237c-2.713-0.792-3.127-3.884-5.844-4.676C268.234,183.385,272.331,188.033,274.081,185.237z M158.371,182.899
		C159.724,187.517,159.724,178.28,158.371,182.899L158.371,182.899z M199.28,187.574c2.066,1.05,3.411,2.82,5.844,3.507
		c-1.552-7.284,2.604-1.603,4.675-4.677c-2.056-0.28-2.664-2.01-2.336-4.674c-1.56,0-3.118,0-4.678,0
		C204.023,186.083,200.323,185.503,199.28,187.574z M220.316,182.899C221.083,183.663,219.828,182.408,220.316,182.899
		L220.316,182.899z M156.032,189.911c-0.26-2.209,1.32-2.579,1.17-4.674c-3.675,1.338-2.839-1.835-4.674-2.337
		C149.291,186.274,155.09,187.203,156.032,189.911z M209.798,185.237c0.779,0,1.559,0,2.339,0c0-0.78,0-1.56,0-2.337
		c-0.78,0-1.56,0-2.339,0C209.798,183.677,209.798,184.457,209.798,185.237z M239.018,185.237
		C240.719,184.518,238.9,183.824,239.018,185.237c-1.356,0.189-2.079-0.258-2.335-1.169c-5.198-1.279-6.186,5.16-9.354,2.337
		c0.532,5.584,4.549,0.91,7.014,3.507c0.098-1.85-0.561-4.457,1.17-4.674c0.475,2.252,4.532,0.922,3.505,4.674
		c-1.986-0.43-2.205,0.912-2.335,2.337C242.035,194.188,240.374,186.573,239.018,185.237z M275.251,185.237
		C276.015,186.002,274.76,184.746,275.251,185.237L275.251,185.237z M249.54,186.404C250.304,187.17,249.049,185.915,249.54,186.404
		L249.54,186.404z M253.045,187.574C253.808,188.339,252.553,187.083,253.045,187.574L253.045,187.574z M209.798,192.249
		c4.523-0.501,4.158-1.279,7.013,1.167c-0.13-2.985-2.144-4.09-3.504-5.842C214.334,191.329,209.452,189.176,209.798,192.249z
		 M260.059,188.742C260.822,189.507,259.567,188.252,260.059,188.742L260.059,188.742z M267.072,188.742
		C268.424,193.359,268.424,184.124,267.072,188.742L267.072,188.742z M275.251,188.742
		C275.613,195.849,277.537,184.285,275.251,188.742L275.251,188.742z M306.81,192.249c-0.507-2.609-2.066-4.167-4.674-4.674
		C302.538,190.287,302.891,193.051,306.81,192.249z M156.032,192.249c2.039-1.081,6.275,0.041,5.844-3.507c-1.556,0-3.115,0-4.674,0
		C157.255,190.352,156.654,191.308,156.032,192.249z M224.994,189.911C225.758,190.677,224.503,189.422,224.994,189.911
		L224.994,189.911z M256.549,189.911C255.282,196.112,260.103,191.292,256.549,189.911
		C255.83,188.211,255.14,190.029,256.549,189.911z M270.576,189.911C271.929,194.528,271.929,185.294,270.576,189.911
		L270.576,189.911z M277.59,189.911C278.354,190.677,277.099,189.422,277.59,189.911L277.59,189.911z M285.77,189.911
		C286.537,190.677,285.282,189.422,285.77,189.911L285.77,189.911z M253.045,191.081
		C253.808,191.846,252.553,190.589,253.045,191.081L253.045,191.081z M151.358,192.249
		C152.125,193.014,150.866,191.759,151.358,192.249L151.358,192.249z M227.329,192.249
		C228.097,193.014,226.842,191.759,227.329,192.249L227.329,192.249z M221.486,193.416
		C222.253,194.184,220.994,192.929,221.486,193.416L221.486,193.416z M208.628,193.416c-0.905,0.264-2.303,0.032-2.335,1.17
		C207.198,194.326,208.6,194.553,208.628,193.416z M268.238,194.586C269.594,199.207,269.594,189.968,268.238,194.586
		L268.238,194.586z M305.641,194.586C306.405,195.349,305.15,194.099,305.641,194.586L305.641,194.586z M228.499,200.434
		C229.267,201.197,228.008,199.938,228.499,200.434L228.499,200.434z M269.407,202.769c0.064-0.71,0.174-1.385,1.169-1.169
		c-0.134-1.426-0.349-2.766-2.339-2.336C268.42,200.637,268.038,202.578,269.407,202.769z M272.912,201.6
		C273.68,202.367,272.424,201.107,272.912,201.6L272.912,201.6z M279.925,205.104c0.329-3.054-0.426-5.027-3.504-4.67
		C276.222,203.357,278.216,204.089,279.925,205.104z M237.848,230.819C238.571,232.517,239.261,230.701,237.848,230.819
		c-2.444-6.278-1.742-5.889-4.674-11.688c3.22,1.633,8.28-1.104,9.353,4.679c-0.78,0-1.56,0-2.34,0c0,0.775,0,1.556,0,2.335
		c1.99,0.427,2.206-0.913,2.34-2.335c1.356,0.187,2.079-0.26,2.335-1.17c3.501-0.235-1.117-4.856,0,0
		c-0.995-2.119-3.01-3.225-3.505-5.848c4.357,3.11,0.077-2.246,2.335-2.335c0.942,0.617,1.901,1.218,3.509,1.165
		c-1.985-4.357,0.69-1.848,1.17-5.84c-8.22-0.747-10.981-6.944-18.701-8.183c3.021,10.015-3.635,24.537,4.674,28.05
		c-1.088,1.251-4.313,0.365-3.505,3.509c3.314-0.203,2.278,3.951,7.01,2.34C238.758,232.887,232.012,231.327,237.848,230.819z
		 M283.434,205.104c0.78,0,1.556,0,2.336,0c0-0.779,0-1.559,0-2.335c-0.78,0-1.556,0-2.336,0
		C283.434,203.545,283.434,204.324,283.434,205.104z M265.903,208.613c3.728,0.689,3.614-2.193,5.844,0
		C272.888,203.902,264.761,203.902,265.903,208.613z M228.499,207.443C228.861,214.55,230.785,202.984,228.499,207.443
		L228.499,207.443z M262.394,210.952C263.161,211.716,261.906,210.461,262.394,210.952L262.394,210.952z M279.925,210.952
		C280.693,211.716,279.438,210.461,279.925,210.952L279.925,210.952z M258.889,215.622
		C259.653,216.39,258.398,215.135,258.889,215.622L258.889,215.622z M261.224,214.457c-0.077,0.012,0.073,1.084,0,1.165
		C255.676,221.966,266.836,213.466,261.224,214.457z M265.903,215.622C263.075,219.545,269.822,212.8,265.903,215.622
		L265.903,215.622z M283.434,215.622C284.198,216.39,282.943,215.135,283.434,215.622L283.434,215.622z M274.081,217.962
		C274.849,218.725,273.594,217.475,274.081,217.962L274.081,217.962z M251.875,217.962c-0.905,0.26-2.307,0.032-2.335,1.169
		C250.446,218.871,251.843,219.099,251.875,217.962z M271.746,219.131C272.51,219.895,271.255,218.644,271.746,219.131
		L271.746,219.131z M276.421,219.131C277.184,219.895,275.929,218.644,276.421,219.131L276.421,219.131z M271.746,221.471
		c0,0.779,0,1.56,0,2.339c2.875,1.812,3.436-3.972,1.166-3.509C272.847,221.016,272.738,221.682,271.746,221.471z M260.059,222.64
		C261.41,227.254,261.41,218.019,260.059,222.64L260.059,222.64z M219.151,223.81C219.914,224.573,218.659,223.314,219.151,223.81
		L219.151,223.81z M251.875,223.81c-0.946,0.22-1.166,1.17-2.335,1.166c0-0.391,0-0.78,0-1.166c-0.78,0-1.56,0-2.34,0
		c-1.308,1.682-1.259,2.851,1.17,3.501c-0.19-1.356,0.256-2.079,1.17-2.335C250.299,226.961,252.225,225.706,251.875,223.81
		C253.573,223.087,251.757,222.396,251.875,223.81z M274.081,227.311c0.78,0,1.56,0,2.34,0c0.71-0.065,1.385-0.171,1.169-1.166
		c-3.654,0.357,2.969-3.375-1.169-3.505C276.405,224.963,273.233,224.126,274.081,227.311z M278.756,224.976
		C279.524,225.743,278.269,224.483,278.756,224.976L278.756,224.976z M256.549,229.649c0.354-1.373,6.189-2.932,2.34-4.674
		C258.174,225.986,252.334,227.546,256.549,229.649z M270.576,226.145C271.34,226.912,270.085,225.653,270.576,226.145
		L270.576,226.145z M237.848,228.479C238.615,229.247,237.361,227.992,237.848,228.479L237.848,228.479z M221.486,229.649
		C221.847,236.757,223.776,225.19,221.486,229.649L221.486,229.649z M274.081,230.819c-0.779,0-1.556,0-2.335,0
		c0,0.779,0,1.56,0,2.339C273.733,233.589,273.951,232.249,274.081,230.819C278.939,231.94,274.317,227.318,274.081,230.819z
		 M291.614,230.819C292.381,231.583,291.126,230.332,291.614,230.819L291.614,230.819z M332.522,230.819
		c-0.906,0.26-2.303,0.032-2.336,1.169C331.092,231.729,332.489,231.956,332.522,230.819z M214.472,234.328
		C215.828,238.941,215.828,229.706,214.472,234.328L214.472,234.328z M285.77,234.328
		C286.537,235.092,285.282,233.837,285.77,234.328L285.77,234.328z M293.952,233.158c-0.905,0.26-2.307,0.032-2.339,1.17
		C292.523,234.064,293.92,234.296,293.952,233.158z M319.668,236.663c5.291,3.343,7.603-2.132,11.688,0
		C330.04,230.048,323.672,235.985,319.668,236.663z M277.59,235.498C278.354,236.261,277.099,235.002,277.59,235.498L277.59,235.498
		z M222.656,246.016c-1.588,0.357-0.971,2.924-1.17,4.671c-3.55,1.385,1.268,6.201,0,0
		C223.073,250.329,222.456,247.762,222.656,246.016c1.368-0.19,0.986-2.136,1.169-3.509c0.391,0,0.78,0,1.17,0
		c-1.121,4.857,3.501,0.235,0,0c0.215-0.99-0.459-1.104-1.17-1.169c-0.73-2.778-1.571-5.442-4.674-5.84
		C220.353,238.966,220.031,243.965,222.656,246.016z M239.018,238.998c1.56,0,3.119,0,4.674,0c0-0.775,0-1.556,0-2.335
		c-1.555,0-3.114,0-4.674,0C239.018,237.442,239.018,238.223,239.018,238.998z M281.095,237.833c-0.715-0.346-4.5-2.908-4.674,0
		C277.14,238.174,280.92,240.74,281.095,237.833z M242.527,242.507c-4.289,0.333-5.954-7.992-10.519-3.509
		C238.006,237.325,239.363,248.615,242.527,242.507z M293.952,240.168C295.305,244.789,295.305,235.555,293.952,240.168
		L293.952,240.168z M325.508,241.338c-1.665-0.276-1.97-1.926-3.505-2.34C320.98,241.41,325.036,244.249,325.508,241.338z
		 M244.862,241.338C245.629,242.101,244.374,240.851,244.862,241.338L244.862,241.338z M295.122,246.016
		c3.144,0.805,2.258-2.42,3.505-3.509c-1.17,0-2.335,0-3.505,0C295.122,243.677,295.122,244.847,295.122,246.016z M302.136,246.016
		c0.166-1.381,2.079-2.651,0-3.509C301.965,243.888,300.053,245.155,302.136,246.016z M215.642,248.352
		c0.064-2.011-0.897-2.993-2.335-3.505C213.241,246.856,214.204,247.844,215.642,248.352z M246.031,246.016
		C246.799,246.779,245.539,245.524,246.031,246.016L246.031,246.016z M324.342,244.847c-0.909,0.26-2.307,0.032-2.339,1.169
		C322.908,245.752,324.31,245.983,324.342,244.847z M216.811,249.521C217.578,250.288,216.32,249.029,216.811,249.521
		L216.811,249.521z M223.824,253.025c1.836-0.109,4.054,0.158,3.505-2.339c-0.779,0-1.555,0-2.335,0
		C224.998,251.864,224.048,252.079,223.824,253.025z M212.137,254.195C212.901,254.959,211.646,253.708,212.137,254.195
		L212.137,254.195z M221.486,260.039c-0.39,0-0.779,0-1.17,0c-0.028,1.137-1.429,0.905-2.335,1.17
		c0.638,1.697-1.364,6.039,1.17,5.844c-0.053-1.998,0.869-3.029,2.335-3.509c0.329,1.893-1.104,2.015-1.17,3.509
		c3.066-1.223,4.865-3.708,7.014-5.844c-3.728-1.004-3.614,1.84-5.844,2.335C221.486,262.374,221.486,261.209,221.486,260.039
		c2.002,0.053,3.029-0.869,3.509-2.335C222.992,257.651,221.965,258.573,221.486,260.039z M284.604,261.209
		C285.367,261.977,284.113,260.717,284.604,261.209L284.604,261.209z M227.329,268.223
		C228.097,268.985,226.842,267.73,227.329,268.223L227.329,268.223z M222.656,269.392
		C223.423,270.155,222.164,268.9,222.656,269.392L222.656,269.392z M236.683,276.401c3.407,1.722,3.407-5.223,0-3.505
		C236.683,274.063,236.683,275.231,236.683,276.401z M229.669,279.91c-0.013-1.178-2.051-1.47-2.34,0
		C228.642,279.788,229.149,281.607,229.669,279.91z M101.101,281.08C101.865,281.844,100.61,280.589,101.101,281.08L101.101,281.08z
		 M99.931,281.08c-1.376,0.179-3.318-0.203-3.507,1.169C97.8,282.063,99.743,282.448,99.931,281.08z M124.477,284.585
		C122.776,285.304,124.595,285.994,124.477,284.585C129.33,285.701,124.713,281.084,124.477,284.585z M152.528,286.92
		c-0.646,2.396,2.233,2.79,2.339,1.17c3.943,3.854,10.498,1.677,14.023-1.17c-6.563-0.081-13.248-6.193-19.867-2.335
		C150.558,284.995,150.858,286.644,152.528,286.92z M116.294,288.09c2.965,1.238,6.665-2.462,3.509-3.505
		C119.673,286.79,115.936,285.393,116.294,288.09z M184.087,289.259c0.325-2.664-0.284-4.394-2.339-4.674
		c1.092,3.505-11.46-0.305-4.674,4.674c-2.096,2.965-7.176-2.77-8.183,2.34c7.464,0.093,23.896,3.979,22.206-3.509
		c-0.853,1.092-2.124,1.771-3.505,2.339c0-0.78,0-1.56,0-2.339C185.703,287.765,185.581,289.194,184.087,289.259z M37.985,286.92
		C40.893,291.48,39.689,283.05,37.985,286.92L37.985,286.92z M64.867,289.259C65.633,290.022,64.376,288.771,64.867,289.259
		L64.867,289.259z M96.425,289.259c-0.014-1.178-2.049-1.47-2.337,0C95.399,289.142,95.907,290.957,96.425,289.259z
		 M109.281,289.259C110.048,290.022,108.793,288.771,109.281,289.259L109.281,289.259z M112.789,289.259
		C114.491,293.134,115.697,284.702,112.789,289.259L112.789,289.259z M195.775,292.768c2.01,0.062,2.993-0.901,3.505-2.339
		C197.269,290.363,196.282,291.33,195.775,292.768z M59.024,291.599c-0.908,0.26-2.307,0.032-2.337,1.169
		C57.592,292.504,58.991,292.735,59.024,291.599z M111.619,293.938c1.649-3.736-6.993-2.957-7.014-1.17
		C107.36,292.739,108.046,294.778,111.619,293.938z M117.464,292.768C118.231,293.531,116.972,292.272,117.464,292.768
		L117.464,292.768z"/>
	<path fill-rule="evenodd" clip-rule="evenodd" fill="#00CC00" d="M256.549,85.887C253.792,89.647,251.826,81.777,256.549,85.887
		L256.549,85.887z"/>
	<path fill-rule="evenodd" clip-rule="evenodd" fill="#00CC00" d="M250.705,89.394C250.218,88.904,251.473,90.159,250.705,89.394
		L250.705,89.394z"/>
	<path fill-rule="evenodd" clip-rule="evenodd" fill="#00CC00" d="M279.925,90.563C279.438,90.072,280.693,91.329,279.925,90.563
		L279.925,90.563z"/>
	<path fill-rule="evenodd" clip-rule="evenodd" fill="#00CC00" d="M240.187,96.407C239.696,95.916,240.95,97.173,240.187,96.407
		L240.187,96.407z"/>
	<path fill-rule="evenodd" clip-rule="evenodd" fill="#00CC00" d="M265.903,97.575c-1.243,0.051-2.969-0.55-1.17-1.168
		C265.448,96.475,266.117,96.582,265.903,97.575z"/>
	<path fill-rule="evenodd" clip-rule="evenodd" fill="#00CC00" d="M286.939,96.407c1.178,3.515-2.603,2.071-4.674,2.337
		C282.545,96.688,284.275,96.081,286.939,96.407z"/>
	<path fill-rule="evenodd" clip-rule="evenodd" fill="#00CC00" d="M260.059,98.745C260.294,95.244,264.911,99.861,260.059,98.745
		L260.059,98.745z"/>
	<path fill-rule="evenodd" clip-rule="evenodd" fill="#00CC00" d="M265.903,97.575c0.711,0.067,1.381,0.176,1.169,1.169
		C266.358,98.678,265.687,98.57,265.903,97.575z"/>
	<path fill-rule="evenodd" clip-rule="evenodd" fill="#00CC00" d="M293.952,98.745C292.539,98.862,293.234,97.045,293.952,98.745
		L293.952,98.745z"/>
	<path fill-rule="evenodd" clip-rule="evenodd" fill="#00CC00" d="M293.952,98.745c2.035-0.347,4.098,4.534,0,3.507
		C293.498,100.583,292.552,100.28,293.952,98.745z"/>
	<path fill-rule="evenodd" clip-rule="evenodd" fill="#00CC00" d="M209.798,101.082C211.155,96.464,211.155,105.701,209.798,101.082
		L209.798,101.082z"/>
	<path fill-rule="evenodd" clip-rule="evenodd" fill="#00CC00" d="M241.357,99.914C241.475,101.326,239.656,100.633,241.357,99.914
		L241.357,99.914z"/>
	<path fill-rule="evenodd" clip-rule="evenodd" fill="#00CC00" d="M224.994,101.082c2.713,0.402,5.475,0.757,4.675,4.676
		C228.296,104.012,224.812,104.379,224.994,101.082z"/>
	<path fill-rule="evenodd" clip-rule="evenodd" fill="#00CC00" d="M247.2,101.082C248.615,100.964,247.919,102.781,247.2,101.082
		L247.2,101.082z"/>
	<path fill-rule="evenodd" clip-rule="evenodd" fill="#00CC00" d="M299.797,101.082c0.779,0,1.559,0,2.339,0
		c0,0.779,0,1.559,0,2.337c-0.78,0-1.56,0-2.339,0C299.797,102.641,299.797,101.861,299.797,101.082z"/>
	<path fill-rule="evenodd" clip-rule="evenodd" fill="#00CC00" d="M206.293,103.419c0.032-1.135,1.43-0.906,2.335-1.167
		C208.6,103.389,207.198,103.157,206.293,103.419z"/>
	<path fill-rule="evenodd" clip-rule="evenodd" fill="#00CC00" d="M240.187,103.419C239.696,102.93,240.95,104.185,240.187,103.419
		L240.187,103.419z"/>
	<path fill-rule="evenodd" clip-rule="evenodd" fill="#00CC00" d="M293.952,102.251c-1.917,3.146,1.588,5.994-1.169,9.351
		C289.25,111.48,290.675,102.584,293.952,102.251z"/>
	<path fill-rule="evenodd" clip-rule="evenodd" fill="#00CC00" d="M177.073,104.589c-0.463-2.269,5.324-1.708,3.505,1.169
		c-0.78,0-1.56,0-2.339,0C178.458,104.763,177.783,104.656,177.073,104.589z"/>
	<path fill-rule="evenodd" clip-rule="evenodd" fill="#00CC00" d="M247.2,104.589C246.709,104.099,247.968,105.354,247.2,104.589
		L247.2,104.589z"/>
	<path fill-rule="evenodd" clip-rule="evenodd" fill="#00CC00" d="M249.54,104.589c0.028-1.137,1.43-0.908,2.335-1.17
		C251.843,104.556,250.446,104.327,249.54,104.589z"/>
	<path fill-rule="evenodd" clip-rule="evenodd" fill="#00CC00" d="M297.457,104.589C297.34,103.175,299.159,103.87,297.457,104.589
		L297.457,104.589z"/>
	<path fill-rule="evenodd" clip-rule="evenodd" fill="#00CC00" d="M198.11,106.926C194.609,106.69,199.227,102.073,198.11,106.926
		L198.11,106.926z"/>
	<path fill-rule="evenodd" clip-rule="evenodd" fill="#00CC00" d="M244.862,104.589c1.182,0.014,1.47,2.049,0,2.337
		C244.862,106.146,244.862,105.368,244.862,104.589z"/>
	<path fill-rule="evenodd" clip-rule="evenodd" fill="#00CC00" d="M284.604,105.758
		C284.113,105.267,285.367,106.524,284.604,105.758L284.604,105.758z"/>
	<path fill-rule="evenodd" clip-rule="evenodd" fill="#00CC00" d="M297.457,104.589C297.575,106,295.76,105.308,297.457,104.589
		L297.457,104.589z"/>
	<path fill-rule="evenodd" clip-rule="evenodd" fill="#00CC00" d="M302.136,105.758C301.645,105.267,302.9,106.524,302.136,105.758
		L302.136,105.758z"/>
	<path fill-rule="evenodd" clip-rule="evenodd" fill="#00CC00" d="M250.705,109.263c-1.356-0.189-2.079,0.26-2.335,1.169
		C248.781,112.069,250.425,110.534,250.705,109.263c2.011-0.061,2.997,0.899,3.509,2.339c-0.71,2.017-5.543-0.091-5.844,2.337
		c-0.946-0.221-1.165-1.172-2.339-1.169c2.599-2.463-2.075-6.48,3.509-7.012C250.901,105.953,250.807,107.606,250.705,109.263z"/>
	<path fill-rule="evenodd" clip-rule="evenodd" fill="#00CC00" d="M276.421,106.926c0.032-1.137,1.429-0.908,2.335-1.167
		C278.728,106.894,277.326,106.664,276.421,106.926z"/>
	<path fill-rule="evenodd" clip-rule="evenodd" fill="#00CC00" d="M297.457,108.095c0.293-1.47,2.327-1.18,2.34,0
		C299.277,109.795,298.769,107.976,297.457,108.095z"/>
	<path fill-rule="evenodd" clip-rule="evenodd" fill="#00CC00" d="M302.136,106.926c1.571,3.103,5.84,3.511,5.84,8.183
		c-3.676,0.559-4.564-1.665-7.01-2.339C299.999,109.466,302.611,109.742,302.136,106.926z"/>
	<path fill-rule="evenodd" clip-rule="evenodd" fill="#00CC00" d="M243.692,111.602
		C243.574,110.189,245.394,110.883,243.692,111.602L243.692,111.602z"/>
	<path fill-rule="evenodd" clip-rule="evenodd" fill="#00CC00" d="M296.292,111.602C296.17,110.189,297.99,110.883,296.292,111.602
		L296.292,111.602z"/>
	<path fill-rule="evenodd" clip-rule="evenodd" fill="#00CC00" d="M255.38,112.77c0.069-0.713,0.175-1.383,1.169-1.168
		C256.765,112.595,256.095,112.705,255.38,112.77z"/>
	<path fill-rule="evenodd" clip-rule="evenodd" fill="#00CC00" d="M296.292,111.602C296.409,113.014,294.59,112.321,296.292,111.602
		L296.292,111.602z"/>
	<path fill-rule="evenodd" clip-rule="evenodd" fill="#00CC00" d="M175.904,113.939
		C175.785,112.526,177.601,113.221,175.904,113.939L175.904,113.939z"/>
	<path fill-rule="evenodd" clip-rule="evenodd" fill="#00CC00" d="M293.952,115.109
		C293.461,114.618,294.716,115.875,293.952,115.109L293.952,115.109z"/>
	<path fill-rule="evenodd" clip-rule="evenodd" fill="#00CC00" d="M182.917,116.276c-0.91-0.262-2.307-0.032-2.339-1.167
		C181.488,115.369,182.885,115.14,182.917,116.276z"/>
	<path fill-rule="evenodd" clip-rule="evenodd" fill="#00CC00" d="M291.614,117.446c0.719,0.341,4.5,2.908,4.679,0
		C301.604,119.422,289.574,122.177,291.614,117.446z"/>
	<path fill-rule="evenodd" clip-rule="evenodd" fill="#00CC00" d="M304.471,118.614
		C305.827,113.996,305.827,123.233,304.471,118.614L304.471,118.614z"/>
	<path fill-rule="evenodd" clip-rule="evenodd" fill="#00CC00" d="M298.627,119.783c0.032-1.137,1.43-0.907,2.339-1.169
		C300.934,119.751,299.536,119.521,298.627,119.783z"/>
	<path fill-rule="evenodd" clip-rule="evenodd" fill="#00CC00" d="M272.912,120.951C272.794,119.54,274.614,120.232,272.912,120.951
		L272.912,120.951z"/>
	<path fill-rule="evenodd" clip-rule="evenodd" fill="#00CC00" d="M262.394,120.951c0.004,0.649-0.946,1.328-1.17,0
		C261.617,120.951,262.004,120.951,262.394,120.951z"/>
	<path fill-rule="evenodd" clip-rule="evenodd" fill="#00CC00" d="M277.59,120.951c1.885-0.329,2.011,1.106,3.505,1.169
		c-0.219,0.946-1.174,1.166-1.17,2.337c-0.775,0-1.555,0-2.335,0C277.59,123.29,277.59,122.121,277.59,120.951z"/>
	<path fill-rule="evenodd" clip-rule="evenodd" fill="#00CC00" d="M305.641,122.121C305.15,121.631,306.405,122.886,305.641,122.121
		L305.641,122.121z"/>
	<path fill-rule="evenodd" clip-rule="evenodd" fill="#00CC00" d="M298.627,124.458C302.55,121.633,295.805,128.379,298.627,124.458
		L298.627,124.458z"/>
	<path fill-rule="evenodd" clip-rule="evenodd" fill="#00CC00" d="M292.783,125.627c0.032-1.137,1.429-0.908,2.339-1.169
		C295.09,125.595,293.689,125.365,292.783,125.627z"/>
	<path fill-rule="evenodd" clip-rule="evenodd" fill="#00CC00" d="M283.434,129.134c0.131-1.428,0.35-2.768,2.336-2.339
		C285.522,128.106,284.474,128.616,283.434,129.134z"/>
	<path fill-rule="evenodd" clip-rule="evenodd" fill="#00CC00" d="M286.939,129.134C286.448,128.643,287.706,129.9,286.939,129.134
		L286.939,129.134z"/>
	<path fill-rule="evenodd" clip-rule="evenodd" fill="#00CC00" d="M297.457,129.134C296.97,128.643,298.225,129.9,297.457,129.134
		L297.457,129.134z"/>
	<path fill-rule="evenodd" clip-rule="evenodd" fill="#00CC00" d="M299.797,134.978c0.032-1.137,1.429-0.908,2.339-1.169
		C302.104,134.946,300.702,134.716,299.797,134.978z"/>
	<path fill-rule="evenodd" clip-rule="evenodd" fill="#00CC00" d="M318.498,139.652c0,1.56,0,3.117,0,4.675
		c-2.884,0.154-5.633,0.178-7.014-1.168c1.349-3.956,2.323-1.839,1.17-7.014C315.407,136.507,314.827,140.205,318.498,139.652z
		 M314.993,143.159C315.757,143.925,314.502,142.67,314.993,143.159L314.993,143.159z"/>
	<path fill-rule="evenodd" clip-rule="evenodd" fill="#00CC00" d="M316.159,137.315
		C315.667,136.826,316.927,138.081,316.159,137.315L316.159,137.315z"/>
	<path fill-rule="evenodd" clip-rule="evenodd" fill="#00CC00" d="M325.508,138.483C325.39,137.072,327.209,137.764,325.508,138.483
		L325.508,138.483z"/>
	<path fill-rule="evenodd" clip-rule="evenodd" fill="#00CC00" d="M318.498,139.652C318.38,138.241,320.196,138.934,318.498,139.652
		L318.498,139.652z"/>
	<path fill-rule="evenodd" clip-rule="evenodd" fill="#00CC00" d="M325.508,138.483c-0.496,6.776-3.245,8.236-1.166,15.195
		c-1.738-0.989-1.693-3.763-2.339-5.844c-1.836,0.112-4.053-0.156-3.505,2.339c-1.547-0.014-1.068-2.049-2.339-2.339
		c0.479-1.468,1.506-2.388,3.509-2.337c0.219,1.326,1.169,0.65,1.165,0c0.995,0.215,1.104-0.455,1.17-1.169
		c1.734-0.993,2.514-2.94,2.339-5.844C324.732,138.483,325.122,138.483,325.508,138.483z"/>
	<path fill-rule="evenodd" clip-rule="evenodd" fill="#00CC00" d="M322.003,144.327c-0.995-0.213-1.101,0.457-1.17,1.169
		c-0.386,0-0.779,0-1.165,0c-0.053-1.608,0.548-2.567,1.165-3.507C321.747,142.248,322.194,142.968,322.003,144.327z"/>
	<path fill-rule="evenodd" clip-rule="evenodd" fill="#00CC00" d="M307.976,143.159c0.914,0.258,1.36,0.979,1.17,2.337
		C308.236,145.239,307.789,144.518,307.976,143.159z"/>
	<path fill-rule="evenodd" clip-rule="evenodd" fill="#00CC00" d="M309.146,152.51c-3.514-4.139,8.045-1.385,3.509-7.014
		c2.696-0.357,1.295,3.377,3.505,3.507C315.099,151.448,312.711,152.567,309.146,152.51z"/>
	<path fill-rule="evenodd" clip-rule="evenodd" fill="#00CC00" d="M309.146,147.833
		C308.658,147.344,309.913,148.599,309.146,147.833L309.146,147.833z"/>
	<path fill-rule="evenodd" clip-rule="evenodd" fill="#00CC00" d="M306.81,149.003C306.319,148.512,307.573,149.769,306.81,149.003
		L306.81,149.003z"/>
	<path fill-rule="evenodd" clip-rule="evenodd" fill="#00CC00" d="M318.498,150.173
		C319.907,150.053,319.217,151.871,318.498,150.173L318.498,150.173z"/>
	<path fill-rule="evenodd" clip-rule="evenodd" fill="#00CC00" d="M307.976,153.678c0.069-0.713,0.179-1.383,1.17-1.167
		C309.08,153.223,308.971,153.893,307.976,153.678z"/>
	<path fill-rule="evenodd" clip-rule="evenodd" fill="#00CC00" d="M307.976,153.678
		C308.098,155.091,306.279,154.396,307.976,153.678L307.976,153.678z"/>
	<path fill-rule="evenodd" clip-rule="evenodd" fill="#00CC00" d="M270.576,157.185c0.004,0.65-0.946,1.328-1.169,0
		C269.797,157.185,270.187,157.185,270.576,157.185z"/>
	<path fill-rule="evenodd" clip-rule="evenodd" fill="#00CC00" d="M316.159,158.354
		C314.745,158.472,315.441,156.654,316.159,158.354L316.159,158.354z"/>
	<path fill-rule="evenodd" clip-rule="evenodd" fill="#00CC00" d="M316.159,158.354
		C317.573,158.234,316.878,160.052,316.159,158.354L316.159,158.354z"/>
	<path fill-rule="evenodd" clip-rule="evenodd" fill="#00CC00" d="M124.477,160.691c1.166,0,2.335,0,3.504,0
		c2.713,1.711-2.282,3.704,2.339,3.507c-2.563,2.431,1.023,3.777-1.169,5.844c-3.107-0.792-5.556-2.235-8.183-3.507
		C122.382,164.83,126.077,165.41,124.477,160.691z"/>
	<path fill-rule="evenodd" clip-rule="evenodd" fill="#00CC00" d="M131.487,161.859c0.008,0.65-0.946,1.328-1.166,0
		C130.711,161.859,131.101,161.859,131.487,161.859z"/>
	<path fill-rule="evenodd" clip-rule="evenodd" fill="#00CC00" d="M166.554,164.198c-0.004-0.65,0.946-1.328,1.166,0
		C167.33,164.198,166.94,164.198,166.554,164.198z"/>
	<path fill-rule="evenodd" clip-rule="evenodd" fill="#00CC00" d="M145.514,165.368c-1.377-0.185-3.318,0.199-3.505-1.169
		C143.382,164.381,145.327,163.997,145.514,165.368z"/>
	<path fill-rule="evenodd" clip-rule="evenodd" fill="#00CC00" d="M310.315,168.873
		C309.827,168.383,311.082,169.638,310.315,168.873L310.315,168.873z"/>
	<path fill-rule="evenodd" clip-rule="evenodd" fill="#00CC00" d="M138.5,171.209c0.032-1.135,1.434-0.905,2.339-1.167
		C140.807,171.179,139.41,170.95,138.5,171.209z"/>
	<path fill-rule="evenodd" clip-rule="evenodd" fill="#00CC00" d="M258.889,173.549c1.661-5.131,4.816,5.495,0,3.505
		C259.701,176.111,260.708,173.854,258.889,173.549z"/>
	<path fill-rule="evenodd" clip-rule="evenodd" fill="#00CC00" d="M269.407,174.716C269.525,176.13,267.709,175.435,269.407,174.716
		L269.407,174.716z"/>
	<path fill-rule="evenodd" clip-rule="evenodd" fill="#00CC00" d="M139.67,182.899C139.178,182.408,140.437,183.663,139.67,182.899
		L139.67,182.899z"/>
	<path fill-rule="evenodd" clip-rule="evenodd" fill="#00CC00" d="M145.514,182.899c-0.906-0.264-2.307-0.034-2.335-1.169
		C144.084,181.992,145.481,181.763,145.514,182.899z"/>
	<path fill-rule="evenodd" clip-rule="evenodd" fill="#00CC00" d="M139.67,186.404C139.178,185.915,140.437,187.17,139.67,186.404
		L139.67,186.404z"/>
	<path fill-rule="evenodd" clip-rule="evenodd" fill="#00CC00" d="M305.641,198.095c5.397,1.502,3.216-4.581,5.844-5.846
		c1.645,2.251,3.091,4.701,3.509,8.185c-4.573-2.416-5.044,1.446-5.848,4.67c-1.061-1.441-7.063-3.776-10.519,0
		c0.154-3.74,2.651-5.141,7.014-4.67C305.641,199.654,305.641,198.874,305.641,198.095z"/>
	<path fill-rule="evenodd" clip-rule="evenodd" fill="#00CC00" d="M136.165,195.755
		C136.043,194.342,137.863,195.036,136.165,195.755L136.165,195.755z"/>
	<path fill-rule="evenodd" clip-rule="evenodd" fill="#00CC00" d="M136.165,195.755c0.849,2.656,3.517,3.497,5.844,4.679
		c2.254-4.435,8.752,1.441,15.193,0C152.633,211.342,134.122,203.809,136.165,195.755z"/>
	<path fill-rule="evenodd" clip-rule="evenodd" fill="#00CC00" d="M241.357,196.925c0.065-0.715,0.175-1.385,1.17-1.17
		C242.457,196.47,242.352,197.136,241.357,196.925z"/>
	<path fill-rule="evenodd" clip-rule="evenodd" fill="#00CC00" d="M293.952,195.755
		C295.365,195.638,294.671,197.453,293.952,195.755L293.952,195.755z"/>
	<path fill-rule="evenodd" clip-rule="evenodd" fill="#00CC00" d="M241.357,196.925c0,0.779,0,1.56,0,2.339
		c-1.494,0.065-1.62,1.495-3.509,1.17C237.044,197.29,240.269,198.172,241.357,196.925z"/>
	<path fill-rule="evenodd" clip-rule="evenodd" fill="#00CC00" d="M299.797,199.264C299.305,198.769,300.56,200.027,299.797,199.264
		L299.797,199.264z"/>
	<path fill-rule="evenodd" clip-rule="evenodd" fill="#00CC00" d="M318.498,199.264c0.032-1.137,1.43-0.909,2.335-1.169
		C320.805,199.231,319.404,199,318.498,199.264z"/>
	<path fill-rule="evenodd" clip-rule="evenodd" fill="#00CC00" d="M241.357,199.264c1.178,0.013,1.471,2.047,0,2.336
		C241.357,200.819,241.357,200.044,241.357,199.264z"/>
	<path fill-rule="evenodd" clip-rule="evenodd" fill="#00CC00" d="M261.224,199.264c0.394,0,0.78,0,1.17,0c0,0.391,0,0.78,0,1.17
		C261.683,200.364,261.013,200.255,261.224,199.264z"/>
	<path fill-rule="evenodd" clip-rule="evenodd" fill="#00CC00" d="M196.94,203.935c0.85-2.607,6.669-0.561,5.845,2.339
		C199.186,207.143,200.538,203.065,196.94,203.935z"/>
	<path fill-rule="evenodd" clip-rule="evenodd" fill="#00CC00" d="M153.697,207.443C153.575,206.03,155.395,206.725,153.697,207.443
		L153.697,207.443z"/>
	<path fill-rule="evenodd" clip-rule="evenodd" fill="#00CC00" d="M153.697,207.443
		C153.815,208.856,151.995,208.162,153.697,207.443L153.697,207.443z"/>
	<path fill-rule="evenodd" clip-rule="evenodd" fill="#00CC00" d="M307.976,208.613c0.032-1.138,1.434-0.91,2.339-1.17
		C310.282,208.58,308.886,208.353,307.976,208.613z"/>
	<path fill-rule="evenodd" clip-rule="evenodd" fill="#00CC00" d="M303.301,214.457
		C302.814,213.966,304.069,215.225,303.301,214.457L303.301,214.457z"/>
	<path fill-rule="evenodd" clip-rule="evenodd" fill="#00CC00" d="M298.627,215.622C298.136,215.135,299.395,216.39,298.627,215.622
		L298.627,215.622z"/>
	<path fill-rule="evenodd" clip-rule="evenodd" fill="#00CC00" d="M295.122,216.792c0.905,0.264,2.303,0.032,2.335,1.17
		C296.552,217.701,295.155,217.929,295.122,216.792z"/>
	<path fill-rule="evenodd" clip-rule="evenodd" fill="#00CC00" d="M305.641,219.131C305.15,218.644,306.405,219.895,305.641,219.131
		L305.641,219.131z"/>
	<path fill-rule="evenodd" clip-rule="evenodd" fill="#00CC00" d="M305.641,221.471C305.15,220.979,306.405,222.233,305.641,221.471
		L305.641,221.471z"/>
	<path fill-rule="evenodd" clip-rule="evenodd" fill="#00CC00" d="M213.307,223.81C209.806,223.57,214.423,218.952,213.307,223.81
		L213.307,223.81z"/>
	<path fill-rule="evenodd" clip-rule="evenodd" fill="#00CC00" d="M348.888,230.819
		C344.811,225.345,354.784,226.112,348.888,230.819L348.888,230.819z"/>
	<path fill-rule="evenodd" clip-rule="evenodd" fill="#00CC00" d="M338.365,231.988c0.548-2.233-3.603-5.031,1.17-4.678
		c2.258,0.113-2.022,4.564,2.339,4.678c-0.053-1.242,0.548-2.968,1.165-1.169C344.087,234.9,339.231,232.817,338.365,231.988z"/>
	<path fill-rule="evenodd" clip-rule="evenodd" fill="#00CC00" d="M203.953,237.833c-1.709-1.02-3.703-1.751-3.505-4.675
		C202.158,234.174,204.153,234.904,203.953,237.833z"/>
	<path fill-rule="evenodd" clip-rule="evenodd" fill="#00CC00" d="M194.605,235.498
		C200.652,230.844,199.121,241.581,194.605,235.498L194.605,235.498z"/>
	<path fill-rule="evenodd" clip-rule="evenodd" fill="#00CC00" d="M338.365,235.498
		C337.878,235.002,339.133,236.261,338.365,235.498L338.365,235.498z"/>
	<path fill-rule="evenodd" clip-rule="evenodd" fill="#00CC00" d="M187.591,236.663c-0.39,0-0.779,0-1.169,0
		C186.645,237.991,187.595,237.313,187.591,236.663c1.356-0.979,3.132-1.539,5.845-1.165c-3.854,2.331-0.252,1.844,0,5.84
		c-2.855-1.04-5.068-2.722-9.349-2.34c-0.122-1.308,1.698-1.819,0-2.335c0.065-0.711,0.174-1.385,1.166-1.165
		c0.779,0,1.56,0,2.339,0C187.591,235.888,187.591,236.273,187.591,236.663z"/>
	<path fill-rule="evenodd" clip-rule="evenodd" fill="#00CC00" d="M339.535,237.833c0.032-1.138,1.429-0.906,2.339-1.17
		C341.842,237.8,340.441,237.568,339.535,237.833z"/>
	<path fill-rule="evenodd" clip-rule="evenodd" fill="#00CC00" d="M199.28,238.998C198.788,238.511,200.047,239.766,199.28,238.998
		L199.28,238.998z"/>
	<path fill-rule="evenodd" clip-rule="evenodd" fill="#00CC00" d="M199.28,241.338c0.032-1.138,1.43-0.906,2.339-1.17
		C201.586,241.305,200.185,241.077,199.28,241.338z"/>
	<path fill-rule="evenodd" clip-rule="evenodd" fill="#00CC00" d="M223.824,241.338c0,0.39,0,0.779,0,1.169
		C219.727,243.23,221.786,238.3,223.824,241.338z"/>
	<path fill-rule="evenodd" clip-rule="evenodd" fill="#00CC00" d="M340.704,241.338
		C340.213,240.851,341.468,242.101,340.704,241.338L340.704,241.338z"/>
	<path fill-rule="evenodd" clip-rule="evenodd" fill="#00CC00" d="M206.293,246.016c-2.1,0.146-2.737-1.161-2.34-3.509
		C205.424,242.986,206.342,244.014,206.293,246.016z"/>
	<path fill-rule="evenodd" clip-rule="evenodd" fill="#00CC00" d="M337.199,243.677
		C338.552,239.055,338.552,248.294,337.199,243.677L337.199,243.677z"/>
	<path fill-rule="evenodd" clip-rule="evenodd" fill="#00CC00" d="M201.618,244.847c0.849,3.188-2.323,2.351-2.339,4.674
		c-2.079-1.039-2.969-3.261-7.014-2.335C193.35,244.351,199.584,243.157,201.618,244.847z"/>
	<path fill-rule="evenodd" clip-rule="evenodd" fill="#00CC00" d="M331.356,248.352
		C330.865,247.859,332.119,249.118,331.356,248.352L331.356,248.352z"/>
	<path fill-rule="evenodd" clip-rule="evenodd" fill="#00CC00" d="M330.186,249.521c-0.649,0.004-1.327-0.946,0-1.169
		C330.186,248.741,330.186,249.131,330.186,249.521z"/>
	<path fill-rule="evenodd" clip-rule="evenodd" fill="#00CC00" d="M330.186,249.521c3.144-0.808,2.259,2.417,3.505,3.505
		c-0.39,0-0.779,0-1.169,0c-0.743,2.551,3.313,3.72-1.166,3.509c-1.689-1.43-1.774-4.459-3.509-5.848
		C328.757,250.427,330.154,250.658,330.186,249.521z"/>
	<path fill-rule="evenodd" clip-rule="evenodd" fill="#00CC00" d="M320.833,251.855c0-0.649,0.946-1.323,1.17,0
		C321.614,251.855,321.223,251.855,320.833,251.855z"/>
	<path fill-rule="evenodd" clip-rule="evenodd" fill="#00CC00" d="M333.691,253.025c0.91,0.26,2.307,0.032,2.34,1.17
		C335.124,253.936,333.724,254.162,333.691,253.025z"/>
	<path fill-rule="evenodd" clip-rule="evenodd" fill="#00CC00" d="M209.798,257.704C209.915,259.117,208.1,258.419,209.798,257.704
		L209.798,257.704z"/>
	<path fill-rule="evenodd" clip-rule="evenodd" fill="#00CC00" d="M330.186,257.704c2.912,0.471,0.069,4.532-2.339,3.505
		C327.205,258.613,330.08,259.544,330.186,257.704z"/>
	<path fill-rule="evenodd" clip-rule="evenodd" fill="#00CC00" d="M276.421,258.873c1.271,0.285,0.792,2.323,2.335,2.336
		c0.527,3.253-6.368-0.914-5.844,2.335c-3.753-1.316,1.129-3.334,3.509-2.335C276.421,260.429,276.421,259.649,276.421,258.873z"/>
	<path fill-rule="evenodd" clip-rule="evenodd" fill="#00CC00" d="M337.199,260.039
		C336.708,259.548,337.963,260.807,337.199,260.039L337.199,260.039z"/>
	<path fill-rule="evenodd" clip-rule="evenodd" fill="#00CC00" d="M268.238,262.374C267.75,261.887,269.005,263.146,268.238,262.374
		L268.238,262.374z"/>
	<path fill-rule="evenodd" clip-rule="evenodd" fill="#00CC00" d="M306.81,262.374c4.598-1.479,3.477,2.762,3.505,5.849
		c-1.945,0-3.895,0-5.844,0C304.971,265.993,307.809,266.106,306.81,262.374z"/>
	<path fill-rule="evenodd" clip-rule="evenodd" fill="#00CC00" d="M329.017,263.544
		C328.526,263.057,329.784,264.312,329.017,263.544L329.017,263.544z"/>
	<path fill-rule="evenodd" clip-rule="evenodd" fill="#00CC00" d="M275.251,267.053
		C273.838,267.171,274.532,265.355,275.251,267.053L275.251,267.053z"/>
	<path fill-rule="evenodd" clip-rule="evenodd" fill="#00CC00" d="M275.251,267.053
		C281.452,265.785,276.632,270.603,275.251,267.053L275.251,267.053z"/>
	<path fill-rule="evenodd" clip-rule="evenodd" fill="#00CC00" d="M283.434,268.223C282.943,267.73,284.198,268.985,283.434,268.223
		L283.434,268.223z"/>
	<path fill-rule="evenodd" clip-rule="evenodd" fill="#00CC00" d="M296.292,268.223c0.032-1.138,1.429-0.91,2.335-1.17
		C298.595,268.189,297.198,267.958,296.292,268.223z"/>
	<path fill-rule="evenodd" clip-rule="evenodd" fill="#00CC00" d="M314.993,268.223c-0.715-0.065-1.385-0.179-1.17-1.17
		C314.534,267.117,315.204,267.228,314.993,268.223z"/>
	<path fill-rule="evenodd" clip-rule="evenodd" fill="#00CC00" d="M122.138,269.392C121.647,268.9,122.906,270.155,122.138,269.392
		L122.138,269.392z"/>
	<path fill-rule="evenodd" clip-rule="evenodd" fill="#00CC00" d="M111.619,271.727c-0.13,2.985-3.915,2.319-7.014,2.336
		C105.682,272.023,108.261,271.487,111.619,271.727z"/>
	<path fill-rule="evenodd" clip-rule="evenodd" fill="#00CC00" d="M84.737,274.063c-0.004-0.646,0.946-1.324,1.168,0
		C85.516,274.063,85.127,274.063,84.737,274.063z"/>
	<path fill-rule="evenodd" clip-rule="evenodd" fill="#00CC00" d="M84.737,274.063c-1.726,5.896-12.857,9.819-15.194,2.339
		C76.462,277.478,79.23,274.403,84.737,274.063z"/>
	<path fill-rule="evenodd" clip-rule="evenodd" fill="#00CC00" d="M85.905,274.063C92.106,272.795,87.287,277.615,85.905,274.063
		L85.905,274.063z"/>
	<path fill-rule="evenodd" clip-rule="evenodd" fill="#00CC00" d="M18.116,286.92c0-1.945,0-3.895,0-5.84
		c1.326-0.224,0.647-1.174,0-1.17c0-0.779,0-1.56,0-2.339c3.099-2.128,9.568-1.097,11.686,4.678
		C23.55,281.449,23.744,287.099,18.116,286.92z"/>
	<path fill-rule="evenodd" clip-rule="evenodd" fill="#00CC00" d="M61.361,278.74C60.871,278.253,62.126,279.504,61.361,278.74
		L61.361,278.74z"/>
	<path fill-rule="evenodd" clip-rule="evenodd" fill="#00CC00" d="M63.698,278.74c0.033-1.137,1.43-0.909,2.337-1.169
		C66.003,278.708,64.606,278.48,63.698,278.74z"/>
	<path fill-rule="evenodd" clip-rule="evenodd" fill="#00CC00" d="M46.166,279.91C46.048,278.497,47.865,279.188,46.166,279.91
		L46.166,279.91z"/>
	<path fill-rule="evenodd" clip-rule="evenodd" fill="#00CC00" d="M314.993,281.08c0.187-1.373,2.128-0.987,3.505-1.17
		C318.307,281.279,316.366,280.893,314.993,281.08z"/>
	<path fill-rule="evenodd" clip-rule="evenodd" fill="#00CC00" d="M71.879,282.249c-0.002-0.649,0.948-1.332,1.169,0
		C72.659,282.249,72.269,282.249,71.879,282.249z"/>
	<path fill-rule="evenodd" clip-rule="evenodd" fill="#00CC00" d="M56.686,283.415C56.195,282.924,57.452,284.183,56.686,283.415
		L56.686,283.415z"/>
	<path fill-rule="evenodd" clip-rule="evenodd" fill="#00CC00" d="M60.191,283.415C58.78,283.533,59.472,281.718,60.191,283.415
		L60.191,283.415z"/>
	<path fill-rule="evenodd" clip-rule="evenodd" fill="#00CC00" d="M27.465,285.75c2.098-0.146,2.465,1.434,4.676,1.17
		C32.512,288.982,25.593,289.007,27.465,285.75z"/>
	<path fill-rule="evenodd" clip-rule="evenodd" fill="#00CC00" d="M152.528,286.92c0.625-2.754,5.531-0.715,2.339,1.17
		C153.92,287.87,153.701,286.92,152.528,286.92z"/>
	<path fill-rule="evenodd" clip-rule="evenodd" fill="#00CC00" d="M18.116,290.429c0-0.39,0-0.78,0-1.17
		C18.763,289.259,19.442,290.205,18.116,290.429z"/>
	<path fill-rule="evenodd" clip-rule="evenodd" fill="#00CC00" d="M184.087,289.259c0,0.65-0.946,1.324-1.17,0
		C183.307,289.259,183.697,289.259,184.087,289.259z"/>
	<path fill-rule="evenodd" clip-rule="evenodd" fill="#00CC00" d="M74.219,296.272c-0.197-2.534,4.145-0.532,5.842-1.165
		C80.26,297.642,75.916,295.635,74.219,296.272z"/>
</g>
</svg>
