<?xml version="1.0" encoding="utf-8"?>
<!-- Generator: Adobe Illustrator 15.0.2, SVG Export Plug-In . SVG Version: 6.00 Build 0)  -->
<!DOCTYPE svg PUBLIC "-//W3C//DTD SVG 1.1//EN" "http://www.w3.org/Graphics/SVG/1.1/DTD/svg11.dtd">
<svg version="1.1" id="Calque_1" xmlns="http://www.w3.org/2000/svg" xmlns:xlink="http://www.w3.org/1999/xlink" x="0px" y="0px"
	 width="347px" height="200px" viewBox="0 0 347 200" enable-background="new 0 0 347 200" xml:space="preserve">
<g>
	<path fill-rule="evenodd" clip-rule="evenodd" fill="#00CC00" d="M226.591,10.692c0.055-0.592,0.146-1.151,0.972-0.972
		C227.505,10.312,227.417,10.87,226.591,10.692z"/>
	<path fill-rule="evenodd" clip-rule="evenodd" fill="#00CC00" d="M220.765,12.633c-0.324,0-0.647,0-0.972,0
		c0.111-1.184,0.29-2.299,1.943-1.941C221.74,11.665,220.95,11.847,220.765,12.633z"/>
	<path fill-rule="evenodd" clip-rule="evenodd" fill="#00CC00" d="M226.591,10.692c0,1.941,0,3.883,0,5.824
		c2.486,0.103,4.629,0.55,5.823,1.943c-0.051,1.24-1.242,1.344-0.969,2.912c2.743-0.802,2.514,1.369,4.855,0.971
		c0,0.648,0,1.294,0,1.942c1.386,0.232,1.635,1.599,2.91,1.941c0.287-1.979,2.629-1.903,2.915-3.883
		c3.462,1.532-0.462,3.474,0,5.827c2.409-0.147,4.028,0.5,4.853,1.941c-0.945,0.026-0.753,1.188-0.969,1.942
		c0.944-0.027,0.752-1.189,0.969-1.942c1.893-0.032,10.501,2.009,5.825,5.827c2.291,1.25,1.809-0.128,4.855,0.97
		c0.164-1.452-0.344-3.583,0.971-3.883c0.206,1.173,1.08,0.598,1.943,0c0.048,2.62-0.651,6.432,2.912,9.709
		c-0.976-0.003-1.158,0.786-1.943,0.97c-5.463-5.832-13.684-4.56-18.447-7.766c-0.844,1.496-2.897,6.707-0.969,7.766
		c1.448-1.139,1.144-4.035,3.884-3.883c0.054,0.592,0.145,1.149,0.969,0.97c1.929,1.311-0.305,6.779,2.914,6.798
		c0.598,1.41,1.174-0.1,0,0c0.129-4.551,2.199,1.987,5.826,0c-0.378,1.385-1.167,1.636,0,2.913
		c5.665,0.454,6.066-5.067,10.682-0.972c-0.015,1.93-2.652,1.234-1.944,3.883c4.379,0.152,8.89,0.172,9.71,3.885
		c-0.945,0.025-0.753,1.187-0.972,1.941c0.945-0.026,0.752-1.189,0.972-1.941c1.09,0.204,1.512,1.078,1.939,1.941
		c-3.454,3.111-2.122,5.526-3.883,11.651c2.581-0.977,4.945-1.014,6.798,0.971c-5.482,3.762-2.092,11.022-8.738,12.623
		c0.18-0.827-0.378-0.916-0.971-0.971c-0.18,0.826,0.377,0.916,0.971,0.971c0,0.646,0,1.294,0,1.942
		c3.142,1.199,0.742-3.143,3.884-1.942c0.378,1.385,1.163,1.638,0,2.912c-0.864,0.432-1.737,0.854-1.943,1.941
		c-0.26,3.497,1.795,4.681,1.943,7.768c2.341-1.783-1.333-5.724,0-9.709c1.835,0.217,2.142-1.093,3.883-0.97
		c-0.162,1.565-3.259,5.004-0.972,5.826c1.548-0.718-0.22-4.753,2.915-3.884c-0.003,0.973,0.786,1.155,0.972,1.941
		c-2.214,1.504-1.836,2.022-0.972,4.854c-6.016,0.994-1.805,6.456-5.826,9.712c-2.834-1.377-4.774-3.645-8.738-3.887
		c0.004,0.976-0.786,1.157-0.972,1.943c-4.851,3.532-1.855,10.448,2.912,11.652c-1.02,2.132,0.034,3.226-1.94,5.823
		c-0.756,0.219-1.916,0.026-1.942,0.972c2.074,5.417,6.092-2.504,8.737,0.971c-0.114,2.798-4.14,1.688-3.883,4.855
		c2.944,0.502,0.995,1.285,0,4.854c3.333-0.763,5.006,0.907,2.915,2.915c5.185,0.263-0.335-4.153,4.851-3.887
		c-2.239,3.725,8.907-0.401,10.681-1.943c0.26,3.303,4.089,3.036,6.799,3.886c-0.052-1.672,0.745-2.489,1.942-2.914
		c1.36,1.552,3.344,2.483,5.823,2.914c-0.86,2.376-5.422,1.054-4.854,4.855c1.144,0.152,2.756-0.165,2.915,0.968
		c-1.35,3.238-3.242,6.876-8.741,4.858c1.238,3.168,1.4,2.058,1.942,4.852c-4.732-3.556-8.758-1.856-14.563-3.88
		c-1.821,1.849,0.576,1.755,0,4.851c3.097-0.829,3.003,1.532,4.855,1.944c0.134-1.809,0.641-3.246,1.942-3.884
		c0.108,1.185,0.291,2.298,1.939,1.939c0,0.325,0,0.648,0,0.973c-1.409,0.6,0.102,1.174,0,0c0.827,0.178,0.918-0.378,0.973-0.973
		c2.679,0.236,2.961,2.865,3.882,4.859c-4.352-0.324-4.014,4.749-1.939,8.737c-1.313-0.308-1.855-1.383-3.883-0.972
		c-0.854,3.117,2.517,2.01,2.911,3.883c-3.873-0.533-2.925-0.533-6.794,0c0-0.968,0-1.94,0-2.911c1.383,0.377,1.636,1.163,2.911,0
		c-0.388-3.307-2.989-1.6,0-3.887c-4.686-0.067-7.813-5.561-9.71-0.972c-1.648-1.909-2.979-4.139-5.825-4.852
		c-1.009,3.522-3.036,6.025-5.826,7.767c-0.264-6.747-3.27,0.341-5.826,0c-0.979-1.934-3.607-2.217-4.855-3.883
		c1.784-2.494,2.422-0.584,4.855-2.911c0.634,3.518,4.139,3.093,5.826,1.939c-3.58-3.384-7.483-4.949-12.621-2.912
		c0-0.972,0-1.942,0-2.914c-5.344,3.421-15.013-1.289-14.563,4.857c-1.671-3.238-7.669-1.838-9.71,0
		c-1.022,3.61,3.272,1.903,3.884,3.88c-2.73-0.142-2.801,2.382-2.912,4.857c2.928,1.275,8.316,0.096,10.678,1.94
		c-5.522,0.935-10.745-0.077-15.536,1.94c4.956,1.42,11.41,4.189,6.798,9.709c3.323,2.2,4.912,11.241,5.827,12.624
		c-48.773-2.908-96.662-6.521-145.643-3.883c1.835-0.432,5.852,1.318,4.855-1.94c-11.389-2.877-21.439,3.711-33.011,0
		c1.142-0.154,2.756,0.166,2.913-0.972c-11.045,1.468-17.377,1.887-29.127,1.944c0-0.973,0-1.944,0-2.915
		c7.774-0.642,18.113,1.281,24.273-0.972c-3.691-3.482-4.676,0.128-9.709,0c0-0.648,0-1.296,0-1.943c1.411-0.594-0.099-1.175,0,0
		c-1.64-1.391-3.301-4.818-4.856-8.738c2.969-1.248,3.045,1.228,6.798,0.972c0,0.324,0,0.648,0,0.972
		c1.101-0.186,0.538-0.975,0-0.972c1.526-0.738,1.45-3.08,3.883-2.915c0.41,1.859,0.353,4.184,2.913,3.887
		c-0.054,1.241-1.245,1.343-0.972,2.911c3.143,0.419,8.399-1.278,8.739,1.94c-0.827-0.176-0.916,0.381-0.971,0.972
		c-1.102,0.186-0.538,0.975,0,0.972c0.164,2.104-3.443,0.438-4.855,0.971c3.038,2.976,7.178-1.188,11.651,0
		c0.293-4.129-5.175-0.984-6.796-0.971c0-0.324,0-0.648,0-0.972c0.826,0.182,0.916-0.378,0.971-0.972c1.294,0,2.589,0,3.883,0
		c0-0.645,0-1.293,0-1.94c4.252-2.654,5.067-2.398,9.709-0.968c-0.162,1.126-1.535,1.053-2.914,0.968
		c0.958,4.299,0.15,2.54-0.97,5.827c8.24-2.767,17.833-4.177,23.302-9.71c24.98-1.687,42.681-12.77,69.907-5.826
		c0.155-1.144-0.165-2.756,0.972-2.911c0.911,4.608,9.764,2.767,11.652,0c-1.453-0.169-3.582,0.344-3.882-0.972
		c7.55-2.807,18.743-1.971,21.358-9.71c-2.99-0.729-1.185,3.348-4.854,1.944c0.141-1.147,1.73-2.204,0-2.915
		c-0.658,1.072-3.226,5.037-3.884,2.915c-0.398-5.229,11.193-4.434,4.854-9.71c-0.165,1.45,0.348,3.583-0.971,3.88
		c-0.396-1.869-3.762-0.763-2.912-3.88c0.976-0.007,1.153,0.782,1.939,0.972c0.598,1.41,1.174-0.102,0,0
		c0.199-4.085-3.687-4.082-3.883-7.77c3.191,0.044,2.325,4.149,5.826,3.883c-0.58-2.522,0.392-3.495,2.911-2.915
		c-0.161-2.746-1.777-4.041-1.939-6.794c0.972,0,1.939,0,2.912,0c0.043-1.336-0.456-2.132-0.973-2.915c0.324,0,0.648,0,0.973,0
		c-0.183-1.1-0.976-0.536-0.973,0c-1.13-0.162-1.052-1.531-0.968-2.908c0.752-0.219,1.913-0.026,1.94-0.972
		c-2.382-4.956-0.405-8.596-1.94-13.596c-3.472-0.472-3.505-3.684-6.798-1.942c-0.055-1.242-1.245-1.343-0.972-2.908
		c1.13,0.154,1.728-0.216,1.943-0.973c0.827,0.177,0.914-0.377,0.972-0.971c1.126,0.155,1.728-0.216,1.94-0.972
		c-0.632-1.646-2.23-0.607-1.94,0.972c-0.827-0.183-0.918,0.377-0.972,0.971c-1.13-0.161-1.728,0.213-1.943,0.973
		c-1.363-0.257-1.106-2.133-1.939-2.915c1.409-0.598-0.102-1.174,0,0c-1.296-0.972-2.933-1.6-3.887-2.915
		c-2.962,0.8-2.328,2.732-5.822,0.972c-0.469,3.057,2.979,2.199,1.939,5.826c-2.268-0.321-4.012-1.167-5.827-1.94
		c0.054-1.241,1.245-1.346,0.973-2.914c-3.55-0.01-5.203-1.917-6.799-3.883c0.972,0,1.943,0,2.915,0
		c-2.517-5.111-4.861-5.029-5.827-10.681c-2.115,3.062-2.142,8.215-7.766,7.768c-0.803,2.744,1.366,2.515,0.971,4.853
		c-3.832,1.835-7.084-1.443-8.741,2.915c-2.155-2.247-3.785,0.331-6.794,0c-1.667-1.249-3.819-2.012-3.883-4.855
		c4.173,0.939,2.688-3.785,4.854-4.855c-1.673,0.052-2.489-0.747-2.915-1.942c0.971,0,1.943,0,2.915,0c0.597,1.411,1.171-0.099,0,0
		c0-0.324,0-0.647,0-0.971c-3.343-1.511-6.396-3.313-8.741-5.827c2.287-0.021,2.861,1.674,5.826,0.972c0.597,1.41,1.174-0.1,0,0
		c-0.699-1.984-3.043-3.843-0.972-5.827c2.891,0.079,4.386,6.545,6.798,3.885c-2.105,0.164-0.439-3.444-0.972-4.854
		c-1.727-0.538-4.032-0.499-4.854-1.941c0.971,0,1.943,0,2.915,0c-2.425-3.784-10.468-6.495-14.567-2.915
		c-0.607-3.274-5.384-2.382-5.823-5.825c2.635,0.695-0.695-4.578,1.94-3.883c1.147,0.47,2.203,1.034,2.915,1.941
		c-0.944,0.027-0.755,1.188-0.971,1.941c0.945-0.027,0.752-1.189,0.971-1.941c1.718-0.874,2.834-2.345,4.855-2.913
		c0.101-3.012-3.057-2.771-1.943-6.796c4.254,0.707-0.783-1.93,1.943-1.943c1.852-1.822,1.754,0.577,4.854,0
		c1.269-3.006-0.766-3.77,1.94-5.825c3.792,6.108,8.623-1.974,14.564,0.972c0.644-2.92,3.357-3.767,6.798-3.885
		c2.577-2.255-2.577-2.6,0-4.854c2.436,1.504,3.252,3.937,6.794,1.941c-0.418-3.139-3.266-3.853-4.851-5.825
		c-0.601-1.412-1.174,0.098,0,0c-0.267,2.289-3.62-0.089-3.887-0.972c1.049-4.007,5.938-4.956,3.887-8.737
		c1.808,0.133,3.242,0.637,3.883,1.941c-1.086,1.505-3.158,2.023-2.915,4.855c0.647,0,1.295,0,1.943,0c0,1.294,0,2.589,0,3.883
		c2.972,0.678,8.326,1.798,5.826-1.942c3.819,1.556,0.337-4.193,2.913-3.883c0.597,1.411,1.174-0.099,0,0
		c-0.183-2.833-2.804-1.226-4.855-3.884c2.746,0.803,2.517-1.368,4.855-0.97c0.597,1.41,1.174-0.1,0,0
		c-1.087-2.903,2.395-8.716,2.915-3.885c-0.945,0.027-0.757,1.189-0.973,1.941c0.944-0.025,0.753-1.188,0.973-1.941
		c0.971,0.003,1.153-0.786,1.939-0.97c0.682,2.987,0.682,1.866,0,4.855c1.703,1.837,3.373-1.696,2.915,2.911
		c-1.414,0.597,0.097,1.174,0,0c1.086-0.204,1.511-1.076,1.939-1.941c2.561-0.295,2.507,2.028,2.915,3.884
		c-1.711,0.233-2.214,1.67-1.943,3.883c1.707-0.234,2.213-1.67,1.943-3.883c3.438,1.701,2.385-0.647,5.822-0.971
		c0.044,1.336-0.455,2.132-0.968,2.913c1.521-2.066,7.496-5.669,4.854-7.768c3.141,1.199,0.742-3.141,3.883-1.942
		c-0.888,3.814-0.485,5.357,1.939,7.768c-0.175-2.118,0.797-3.09,2.915-2.913c2.521,2.063,7.622,4.975,3.884,7.768
		c2.411,0.145,4.027-0.502,4.854-1.941c-3.502,0.396-1.329-1.775,0.972-0.972c0.935-4.171-4.771-1.704-4.854-4.855
		c1.244-0.485,5.806-2.458,5.826-0.971c-0.055,1.242-1.245,1.344-0.972,2.913c1.7,0.268,4.845-2.734,5.826,0
		c-0.756,0.217-1.916,0.027-1.943,0.971c0.972,0,1.943,0,2.911,0c0.216,0.756,0.817,1.129,1.943,0.971
		c0.044,1.661-0.722,2.515-1.943,2.913c0.159,1.139,1.771,0.82,2.915,0.972c-0.216,4.317-6.305,2.758-6.798,6.796
		c0.273,2.037,2.595-1.407,3.883,0.97c-0.175,0.827,0.382,0.917,0.972,0.972c0.598,1.412,1.174-0.098,0,0
		c0.179-0.827-0.378-0.916-0.972-0.972c-0.711-3.602,7.591-9.389,7.771-2.912c0.906-0.712,1.471-1.766,1.939-2.913
		c-0.672-3.043-2.588-1.267-4.852-0.971c0.354-1.651-0.759-1.832-1.943-1.942c0.186-0.786,0.975-0.968,0.972-1.941
		c1.718,1.823,2.834-1.156,4.854,0.972c0.216-0.754,0.027-1.917,0.969-1.943c0.026,0.944,1.19,0.753,1.942,0.971
		c0.159-1.128-0.212-1.727-0.972-1.942c-0.522-4.356-3.876-10.974-7.766-8.739c-1.221,0.398-1.983,1.251-1.943,2.913
		c-2.723-0.972-0.098-4.491,0.972-4.855c-1.979-1.95-1.902,0.429-3.883,0.972c-0.243-2.834,1.828-3.35,2.911-4.854
		c0.786,0.184,0.969,0.973,1.943,0.97c0-0.97,0-1.941,0-2.913c-1.652-0.356-1.832,0.757-1.943,1.943
		c-1.997-0.267-0.914-3.618-2.911-3.885c-1.494,1.14-5.691,2.938-5.826,0c0.823-1.442,3.127-1.405,4.854-1.941
		c0.186,1.102,0.975,0.54,0.972,0c2.479-1.667,3.397,1.113,4.854-0.972C224.597,11.609,224.854,10.417,226.591,10.692z
		 M227.563,21.371C227.836,25.193,231.837,21.19,227.563,21.371C226.966,19.96,226.389,21.47,227.563,21.371z M235.329,25.255
		c0.623-2.353-4.626-3.638-4.854-1.941C232.323,23.729,232.913,25.406,235.329,25.255z M178.045,28.169
		C178.678,28.805,177.636,27.76,178.045,28.169L178.045,28.169z M233.385,28.169C233.983,29.579,234.56,28.069,233.385,28.169
		C232.788,26.757,232.214,28.267,233.385,28.169z M243.095,32.052C245.815,27.054,238.477,29.667,243.095,32.052L243.095,32.052z
		 M199.404,31.08C197.059,34.337,202.662,28.734,199.404,31.08L199.404,31.08z M240.184,33.023
		c-0.756,0.218-1.917,0.027-1.943,0.971C238.995,33.776,240.156,33.966,240.184,33.023z M246.979,33.994
		C247.616,34.629,246.573,33.586,246.979,33.994L246.979,33.994z M179.985,35.937C180.622,36.572,179.579,35.528,179.985,35.937
		L179.985,35.937z M207.172,38.848c0-1.294,0-2.589,0-3.883C203.431,34.199,203.431,39.614,207.172,38.848z M176.101,36.906
		C176.739,37.542,175.693,36.5,176.101,36.906L176.101,36.906z M194.549,37.878c0.647,0,1.294,0,1.942,0c0-0.647,0-1.295,0-1.941
		c-0.648,0-1.295,0-1.942,0C194.549,36.583,194.549,37.23,194.549,37.878z M238.24,40.79c-2.885-2.797,2.432-1.685,1.943-4.853
		c-7.483,1.209-3.388,9.279-4.854,11.651c0.428-1.412,0.854,0.098,1.939,0C236.965,45.25,241.506,42.885,238.24,40.79z
		 M201.346,37.878C201.981,38.514,200.938,37.47,201.346,37.878L201.346,37.878z M213.967,41.761c2.011-2.878,1.197,5.2,2.915,5.826
		c2.53-4.642-1.93-6.478,0-9.709C214.74,37.468,211.525,40.786,213.967,41.761z M254.747,38.848
		C255.385,39.484,254.339,38.441,254.747,38.848L254.747,38.848z M258.63,38.848C259.268,39.484,258.222,38.441,258.63,38.848
		L258.63,38.848z M194.549,39.819C195.675,43.655,195.675,35.982,194.549,39.819L194.549,39.819z M175.13,43.703
		c-0.133-1.808-0.638-3.244-1.94-3.883C172.916,42.032,173.422,43.468,175.13,43.703z M179.985,41.761c0.647,0,1.296,0,1.942,0
		c0-0.648,0-1.294,0-1.942c-0.646,0-1.295,0-1.942,0C179.985,40.467,179.985,41.113,179.985,41.761z M218.822,40.79
		C220.239,44.008,221.24,37.004,218.822,40.79L218.822,40.79z M197.463,42.732C197.281,47.009,201.285,43.007,197.463,42.732
		C198.391,38.699,194.555,42.536,197.463,42.732z M186.781,42.732C187.906,46.568,187.906,38.895,186.781,42.732L186.781,42.732z
		 M210.084,42.732C210.722,43.369,209.676,42.325,210.084,42.732L210.084,42.732z M226.591,42.732
		C227.226,43.369,226.183,42.325,226.591,42.732L226.591,42.732z M224.648,43.703C225.772,47.54,225.772,39.867,224.648,43.703
		L224.648,43.703z M244.067,43.703C244.704,44.338,243.657,43.296,244.067,43.703L244.067,43.703z M170.275,45.644
		C171.692,48.863,172.69,41.859,170.275,45.644L170.275,45.644z M184.839,45.644C185.477,46.28,184.434,45.238,184.839,45.644
		L184.839,45.644z M181.927,46.616C178.105,46.891,182.107,50.894,181.927,46.616C184.96,49.785,183.561,43.181,181.927,46.616z
		 M191.637,47.587C192.272,48.224,191.229,47.179,191.637,47.587L191.637,47.587z M196.491,46.616
		c-0.756,0.218-1.916,0.027-1.942,0.972C195.304,47.37,196.465,47.56,196.491,46.616z M227.563,47.587
		C228.198,48.224,227.155,47.179,227.563,47.587L227.563,47.587z M167.363,48.557C168.777,51.776,169.779,44.771,167.363,48.557
		L167.363,48.557z M201.346,47.587c-0.752,0.217-1.916,0.027-1.942,0.97C200.158,48.34,201.32,48.53,201.346,47.587z
		 M211.056,49.529c2.213,0.271,3.649-0.234,3.883-1.941C213.13,47.72,211.694,48.225,211.056,49.529z M163.48,49.529
		C164.114,50.165,163.072,49.121,163.48,49.529L163.48,49.529z M188.722,50.5c2.334-2.333-3.185-2.515-2.911-0.972
		C185.8,49.461,189.096,50.126,188.722,50.5z M210.084,48.557c-0.752,0.218-1.916,0.027-1.943,0.972
		C208.897,49.312,210.057,49.502,210.084,48.557z M226.591,49.529C227.226,50.165,226.183,49.121,226.591,49.529L226.591,49.529z
		 M234.357,49.529C235.484,53.365,235.484,45.693,234.357,49.529L234.357,49.529z M239.211,49.529
		C241.627,53.315,240.629,46.311,239.211,49.529L239.211,49.529z M159.594,50.5C160.231,51.136,159.189,50.092,159.594,50.5
		L159.594,50.5z M195.52,50.5C196.157,51.136,195.112,50.092,195.52,50.5L195.52,50.5z M198.431,50.5
		C199.069,51.136,198.027,50.092,198.431,50.5L198.431,50.5z M170.275,51.47C170.912,52.106,169.87,51.064,170.275,51.47
		L170.275,51.47z M182.9,51.47C183.533,52.106,182.491,51.064,182.9,51.47L182.9,51.47z M213.967,51.47
		C214.605,52.106,213.562,51.064,213.967,51.47L213.967,51.47z M158.625,52.442C159.26,53.078,158.217,52.034,158.625,52.442
		L158.625,52.442z M187.754,51.47C186.729,57.106,191.961,51.875,187.754,51.47L187.754,51.47z M231.446,52.442
		c-0.827-0.179-0.918,0.378-0.971,0.97c-1.131-0.156-1.729,0.215-1.944,0.972c0.955,1.078,4.173,4.765,5.826,1.941
		c-0.714-1.548-4.753,0.221-3.882-2.913C231.3,53.59,231.389,53.034,231.446,52.442C232.857,51.845,231.345,51.268,231.446,52.442z
		 M251.833,52.442c0,0.646,0,1.294,0,1.942c0.646,0,1.295,0,1.942,0c0.594-0.056,1.15-0.146,0.972-0.972
		c-1.281-0.01-0.887-1.702-1.943-1.941C252.75,52.063,252.659,52.621,251.833,52.442z M262.514,52.442
		C263.152,53.078,262.109,52.034,262.514,52.442L262.514,52.442z M160.565,53.412C161.203,54.048,160.157,53.005,160.565,53.412
		L160.565,53.412z M182.9,53.412C184.023,57.25,184.023,49.576,182.9,53.412L182.9,53.412z M205.23,53.412
		C205.867,54.048,204.822,53.005,205.23,53.412L205.23,53.412z M212.998,53.412C213.633,54.048,212.591,53.005,212.998,53.412
		L212.998,53.412z M224.648,55.354c0.142-1.147,1.73-2.2,0-2.912C224.506,53.589,222.92,54.642,224.648,55.354z M179.013,54.384
		C179.651,55.02,178.608,53.977,179.013,54.384L179.013,54.384z M217.85,57.297c0.233-1.387,1.599-1.638,1.943-2.913
		C217.792,53.532,215.435,56.902,217.85,57.297z M263.486,55.354C264.902,58.572,265.901,51.568,263.486,55.354L263.486,55.354z
		 M225.619,56.325C226.257,56.961,225.211,55.918,225.619,56.325L225.619,56.325z M218.822,57.297c0,0.646,0,1.293,0,1.941
		c2.392,1.51,2.857-3.297,0.972-2.913C219.74,56.917,219.649,57.474,218.822,57.297z M267.368,58.267
		c1.285,0.012,0.887,1.702,1.943,1.942c0.213-0.756,0.813-1.129,1.943-0.971C271.984,55.927,267.543,55.451,267.368,58.267z
		 M153.771,58.267C149.736,57.339,153.572,61.174,153.771,58.267C155.181,57.669,153.669,57.094,153.771,58.267z M160.565,58.267
		C161.203,58.903,160.157,57.86,160.565,58.267L160.565,58.267z M184.839,58.267C185.962,62.104,185.962,54.431,184.839,58.267
		L184.839,58.267z M198.431,58.267C199.069,58.903,198.027,57.86,198.431,58.267L198.431,58.267z M241.156,58.267
		c-0.014-0.979-1.704-1.221-1.944,0C240.302,58.169,240.723,59.679,241.156,58.267z M259.602,59.238
		C256.694,59.434,260.531,63.27,259.602,59.238c3.054-1.111,2.358,1.525,3.884,1.942c-0.928,4.033,2.907,0.196,0,0
		c-0.273-1.567,0.917-1.671,0.971-2.913C263.792,57.518,258.671,55.74,259.602,59.238z M188.722,59.238
		C189.36,59.874,188.318,58.832,188.722,59.238L188.722,59.238z M243.095,59.238C243.733,59.874,242.69,58.832,243.095,59.238
		L243.095,59.238z M146.973,60.208C147.611,60.846,146.565,59.801,146.973,60.208L146.973,60.208z M157.654,60.208
		C158.288,60.846,157.246,59.801,157.654,60.208L157.654,60.208z M230.475,60.208C231.108,60.844,230.066,59.801,230.475,60.208
		L230.475,60.208z M233.385,62.151c0.143-1.147,1.731-2.202,0-2.914C233.247,60.385,231.658,61.439,233.385,62.151z M204.258,62.151
		c1.555-2.704-4.193-2.686-3.884-0.972C202.065,61.107,203.394,61.397,204.258,62.151z M219.793,61.18
		C215.762,60.252,219.597,64.087,219.793,61.18C224.942,62.232,220.94,58.229,219.793,61.18z M228.531,60.208
		c-0.752,0.219-1.913,0.026-1.939,0.971C227.343,60.962,228.504,61.152,228.531,60.208z M235.329,61.18
		C235.963,61.816,234.921,60.773,235.329,61.18L235.329,61.18z M238.24,62.151C235.291,63.298,239.296,67.301,238.24,62.151
		C241.148,61.954,237.313,58.118,238.24,62.151z M270.282,61.18C270.583,67.083,272.183,57.477,270.282,61.18L270.282,61.18z
		 M151.827,62.151C152.465,62.787,151.42,61.743,151.827,62.151L151.827,62.151z M269.312,61.18
		c-0.753,0.217-1.917,0.027-1.943,0.972C268.124,61.934,269.284,62.125,269.312,61.18z M167.363,63.121
		C167.997,63.757,166.955,62.714,167.363,63.121L167.363,63.121z M178.045,63.121c-0.325,0-0.648,0-0.973,0
		c-0.165,1.567-3.259,5.005-0.972,5.826C176.661,66.917,178.51,66.176,178.045,63.121C179.454,62.524,177.944,61.949,178.045,63.121
		z M207.172,63.121C208.296,66.958,208.296,59.286,207.172,63.121L207.172,63.121z M214.939,63.121
		C215.576,63.757,214.531,62.714,214.939,63.121L214.939,63.121z M228.531,64.093c0.648,0,1.296,0,1.944,0c0-0.647,0-1.294,0-1.941
		c-0.648,0-1.296,0-1.944,0C228.531,62.799,228.531,63.445,228.531,64.093z M236.301,71.86c0.151-1.143-0.169-2.756,0.968-2.913
		c-0.291,1.578,1.313,2.618,1.942,0.972c-1.13-0.164-1.052-1.536-0.971-2.914c-3.505,0.491-2.011-2.021-3.884-4.854
		C232.259,65.979,234.435,69.3,236.301,71.86z M227.563,63.121c-1.144,0.152-2.76-0.167-2.915,0.972
		C225.791,63.941,227.404,64.26,227.563,63.121z M231.446,64.093C232.08,64.729,231.037,63.685,231.446,64.093L231.446,64.093z
		 M241.156,64.093c0,0.972,0,1.941,0,2.913C243.986,68.433,243.986,62.666,241.156,64.093c0-0.324,0-0.647,0-0.972
		C237.067,63.899,240.136,69.298,241.156,64.093z M249.893,64.093C250.527,64.729,249.485,63.685,249.893,64.093L249.893,64.093z
		 M259.602,64.093C260.237,64.729,259.194,63.685,259.602,64.093L259.602,64.093z M214.939,65.064
		C216.062,68.9,216.062,61.227,214.939,65.064L214.939,65.064z M254.747,65.064C255.385,65.7,254.339,64.656,254.747,65.064
		L254.747,65.064z M132.409,67.006C133.043,67.642,132.001,66.598,132.409,67.006L132.409,67.006z M159.594,67.006
		C160.231,67.642,159.189,66.598,159.594,67.006L159.594,67.006z M162.508,67.006C163.143,67.642,162.1,66.598,162.508,67.006
		L162.508,67.006z M181.927,66.034c-0.755,0.218-1.916,0.027-1.942,0.972C180.737,66.788,181.901,66.979,181.927,66.034z
		 M204.258,67.006C204.558,72.91,206.16,63.304,204.258,67.006L204.258,67.006z M246.01,66.034
		c-0.757,0.218-1.916,0.027-1.943,0.972C244.819,66.788,245.983,66.979,246.01,66.034z M261.542,67.976
		c-1.282-0.01-0.887-1.702-1.94-1.942C258.49,68.026,261.127,70.663,261.542,67.976z M165.42,67.976
		C166.057,68.612,165.015,67.569,165.42,67.976L165.42,67.976z M169.303,69.919c3.424,0.843,5.125-2.372,1.943-2.914
		C171.536,68.914,169.937,68.931,169.303,69.919z M162.508,68.947c-1.13-0.159-1.727,0.214-1.943,0.972
		c0.995-0.115,1.963,4.188,2.915,0.97C162.535,70.862,162.724,69.701,162.508,68.947C163.919,68.35,162.407,67.773,162.508,68.947z
		 M214.939,72.831c2.648,0.088,1.953-1.616,3.883,0c-0.216-1.835,1.097-2.142,0.972-3.883
		C216.025,66.433,215.208,70.926,214.939,72.831z M222.704,68.947C225.123,72.734,224.121,65.731,222.704,68.947L222.704,68.947z
		 M256.691,68.947C257.324,69.583,256.282,68.541,256.691,68.947L256.691,68.947z M143.09,72.831
		C141.677,73.428,143.188,74.004,143.09,72.831c2.574-0.014,5.715,0.54,5.826-1.941c-1.653,0.357-1.835-0.757-1.943-1.942
		c-2.743-0.803-2.517,1.368-4.855,0.972C141.845,71.486,143.036,71.591,143.09,72.831z M148.916,76.715c0.645,0,1.292,0,1.94,0
		c0.057,0.592,0.145,1.149,0.971,0.972c0.56-1.707-1.174-5.707,0.972-5.827c-0.055,1.67,0.745,2.488,1.939,2.912
		c-0.216-1.835,1.096-2.142,0.972-3.883c-1.438-0.505-2.446-1.437-3.883-1.942C150.6,71.28,150.579,74.819,148.916,76.715z
		 M240.184,69.919C240.818,70.555,239.776,69.511,240.184,69.919L240.184,69.919z M136.292,70.889
		C138.707,74.676,137.709,67.672,136.292,70.889L136.292,70.889z M167.363,69.919C166.341,75.553,171.57,70.322,167.363,69.919
		L167.363,69.919z M209.113,75.744c0.003-3.158,2.037-5.231-1.94-5.824C207.823,73.542,204.481,75.615,209.113,75.744z
		 M240.184,76.715c-1.873-0.395-0.77-3.765-3.883-2.913c0.131,3.426,2.775,4.342,2.91,7.768c-2.999,1.029-5.714,0.243-7.766,3.883
		c3.994-0.453-0.763,2.441,1.939,3.883c2.648,0.089,1.957-1.616,3.884,0c1.349-0.596,0.148-3.736,1.942-3.883
		c-0.674,3.266,1.998,3.184,2.915,4.855c-0.907-2.635,5.988-2.272,1.94-4.855c0-0.323,0-0.647,0-0.97c1.413-0.599-0.098-1.174,0,0
		c-2.031-0.412-2.57,0.665-3.883,0.97c0.411-2.029-0.665-2.57-0.973-3.883c0.786-0.186,0.969-0.975,1.944-0.972
		c-0.929,4.033,2.907,0.196,0,0C241.277,78.857,239.968,78.55,240.184,76.715c3.819,1.555,0.337-4.194,2.911-3.885
		c2.746-0.166,6.663,0.835,6.798-1.941c-1.62,0-3.235,0-4.854,0c0-0.324,0-0.648,0-0.97c-2.176,0.411-3.094,2.083-4.854,2.911
		C242.687,73.065,238.851,74.502,240.184,76.715z M158.625,76.715c-0.159,1.137-1.771,0.818-2.915,0.972
		c-0.219-1.238-2.898-1.274-2.911,0c1.275,1.164,1.524,0.378,2.911,0c-0.159,1.126,0.216,1.727,0.972,1.941
		c0.401-2.186,5.323,0.145,4.854-2.913c-0.945-0.027-0.752-1.189-0.972-1.943c0.972,0,1.943,0,2.915,0c0.597,1.412,1.17-0.098,0,0
		c0.155-1.128-0.216-1.727-0.972-1.941c-1.683,1.658-2.543-0.152-5.826,0.972C156.638,75.462,157.404,76.317,158.625,76.715z
		 M263.486,74.772c0,0.324,0,0.648,0,0.972c-0.324,0-0.648,0-0.972,0c-1.262,1.291-1.279,3.613,0.972,3.885
		c-0.18,0.825,0.377,0.916,0.971,0.97c0.598,1.412,1.174-0.098,0,0c0.18-0.825-0.377-0.916-0.971-0.97c0-1.295,0-2.589,0-3.885
		C264.589,75.56,264.025,74.771,263.486,74.772C264.412,70.741,260.577,74.577,263.486,74.772z M266.401,73.802
		c-0.015-0.98-1.704-1.221-1.944,0C265.547,73.705,265.968,75.214,266.401,73.802z M170.275,74.772
		C170.912,75.41,169.87,74.366,170.275,74.772L170.275,74.772z M214.939,75.744c0.647,0,1.295,0,1.943,0c0-0.648,0-1.293,0-1.941
		c-0.648,0-1.296,0-1.943,0C214.939,74.45,214.939,75.096,214.939,75.744z M167.363,75.744
		C167.997,76.379,166.955,75.337,167.363,75.744L167.363,75.744z M197.463,75.744C198.097,76.379,197.055,75.337,197.463,75.744
		L197.463,75.744z M246.979,75.744C247.616,76.379,246.573,75.337,246.979,75.744L246.979,75.744z M172.218,76.715
		C172.852,77.351,171.809,76.307,172.218,76.715L172.218,76.715z M175.13,78.657c2.834,1.427,2.834-4.34,0-2.913
		C175.13,76.715,175.13,77.687,175.13,78.657z M266.401,77.687c0.971-0.003,1.153,0.786,1.939,0.97
		c-0.091-1.525,0.131-3.367-1.939-2.913C266.401,76.391,266.401,77.039,266.401,77.687z M198.431,77.687
		C199.849,80.904,200.847,73.898,198.431,77.687L198.431,77.687z M224.648,78.657c-1.993,0.271-1.936,2.593-2.911,3.883
		C224.975,83.517,224.917,81.194,224.648,78.657C226.058,78.06,224.55,77.483,224.648,78.657z M185.811,81.57
		c-0.52,3.755,1.733,4.74,0.971,8.738c3.482-1.049,4.93-4.133,4.855-8.738C188.793,82.442,188.655,82.442,185.811,81.57
		c0.175-2.119-0.797-3.088-2.911-2.913C182.72,80.773,183.692,81.746,185.811,81.57z M187.754,80.598
		c1.45-0.165,3.583,0.348,3.883-0.97C190.345,78.367,188.024,78.348,187.754,80.598z M158.625,80.598
		c-0.398,2.34,1.771,2.11,0.968,4.854c3.866,0.527-1.046-3.438,3.887-2.913c0,0.975-0.786,1.156-0.972,1.943
		c2.43,0.12,3.04,1.852,3.884-0.971c-2.561,0.295-2.503-2.028-2.912-3.883C160.734,78.825,160.963,80.996,158.625,80.598z
		 M169.303,83.512c0-0.972,0-1.942,0-2.914c-1.14,0.152-2.756-0.167-2.911,0.972C167.778,81.803,168.028,83.169,169.303,83.512z
		 M194.549,81.57C195.187,82.206,194.144,81.162,194.549,81.57L194.549,81.57z M245.038,81.57c0.027,0.945,1.188,0.754,1.94,0.97
		c-0.177,0.827,0.38,0.917,0.971,0.972c0.159,1.128-0.213,1.727-0.971,1.941c-0.599-1.41-1.172,0.1,0,0
		c-0.453,2.072,1.39,1.851,2.914,1.942c0-0.97,0-1.942,0-2.912c0.782,0.673,2.659,1.51,2.911,0c-1.42,0.016-3.076-4.095-2.911,0
		c-0.786-0.185-0.969-0.975-1.943-0.971c0.18-0.827-0.378-0.916-0.971-0.972C246.954,81.597,245.79,81.788,245.038,81.57
		C244.842,78.662,241.007,82.498,245.038,81.57z M268.34,81.57C269.463,85.406,269.463,77.732,268.34,81.57L268.34,81.57z
		 M155.711,81.57c-0.752,0.218-1.913,0.027-1.94,0.97C154.523,82.324,155.684,82.515,155.711,81.57z M219.793,82.54
		C220.427,83.176,219.385,82.133,219.793,82.54L219.793,82.54z M230.475,83.512C231.108,84.147,230.066,83.104,230.475,83.512
		L230.475,83.512z M142.118,84.483C142.753,85.119,141.71,84.075,142.118,84.483L142.118,84.483z M202.318,91.279
		c-0.074-1.692,0.216-3.02,0.968-3.885c-4.183,1.273-1.2-4.622-4.854-3.883C195.223,85.775,197.976,91.04,202.318,91.279z
		 M221.737,93.221C220.323,93.818,221.834,94.395,221.737,93.221c1.127-0.158,1.728,0.214,1.939,0.972
		c-1.707,0.233-2.213,1.67-1.939,3.883c2.479-0.511,3.397-1.287,4.854,0.972c-3.987,2.237,3.462,0.928,1.939,3.883
		c-2.155-2.248-3.785,0.331-6.794,0c0-0.324,0-0.647,0-0.972c-3.11-1.869-4.902,0.574-8.738-0.972
		c0.533,2.152-1.854,1.383-1.942,2.915c1.7,0.888,4.844,0.334,5.826,1.942c-2.379,0.726-0.206,2.895,0.968,0.973
		c-0.286,3.73,4.608,5.194,5.826,1.939c-1.774,5.981,4.72,3.694,6.799,5.826c-2.119-0.176-3.091,0.793-2.912,2.911
		c1.053,0.239,0.658,1.934,1.939,1.94c0.426-1.438,1.241,0.384,2.912,0c-1.11-3.05,1.524-2.354,1.942-3.88
		c-1.376,0.081-2.749,0.158-2.911-0.972c2.705-0.856,5.907-1.215,7.766-2.915c-2.813-0.543,1.492-1.511,0.973-2.911
		c-0.863-0.429-1.738-0.854-1.943-1.939c0.971,0,1.943,0,2.915,0c-0.136-1.812-0.642-3.246-1.944-3.887
		c0.085,1.376,0.163,2.75-0.971,2.914c-0.183-1.103-0.972-0.539-0.972,0c-2.103-2.138-6.923-2.135-4.854-5.828
		c-4.001-0.204-5.021-3.394-7.767-4.855c2.368-2.552-2.521-6.336,2.915-5.826c-0.624-3.586-4.746-3.67-6.798-5.824
		c0.04,2.482-0.722,1.184-1.943,0.971c0.411,2.029-0.664,2.571-0.972,3.883c2.989,0.724,1.869-2.665,4.854-1.941
		c-1.002,2.555-3.85,3.269-4.854,5.826c1.744,0.124,2.052-1.188,3.887-0.971C221.737,91.927,221.737,92.573,221.737,93.221z
		 M228.531,84.483C223.383,83.429,227.384,87.432,228.531,84.483C229.945,83.884,228.434,83.309,228.531,84.483z M256.691,83.512
		c-0.756,0.217-1.916,0.027-1.943,0.971C255.499,84.266,256.663,84.456,256.691,83.512z M151.827,85.453
		C152.425,86.865,153.002,85.355,151.827,85.453C151.23,84.043,150.654,85.553,151.827,85.453z M175.13,85.453
		C175.768,86.089,174.721,85.046,175.13,85.453L175.13,85.453z M206.2,85.453C201.923,85.272,205.924,89.275,206.2,85.453
		C207.612,84.856,206.1,84.281,206.2,85.453z M208.141,91.279c0.473-1.147,1.035-2.202,1.943-2.913
		c1.559,1.78-0.897,3.288,1.942,4.854c1.738-2.447-1.255-6.651-3.886-7.768C209.197,87.939,205.193,90.082,208.141,91.279z
		 M261.542,92.25c-1.616,0-3.235,0-4.852,0c0,0.97,0,1.942,0,2.912c5.267,1.061,6.454-1.958,10.678-1.941
		c-0.294-2.245-2.071-4.917,0.972-2.913c-0.118-2.469-1.414-3.765-3.884-3.883c-0.385,1.67,1.441,2.488,0,2.911
		c-4.173-0.114,1.633-4.14-2.914-3.883C261.073,87.663,259.619,90.414,261.542,92.25z M158.625,87.395
		c-0.597-0.284-3.738-2.414-3.886,0C155.336,87.68,158.477,89.81,158.625,87.395z M148.916,87.395
		c-0.755,0.217-1.916,0.027-1.943,0.972C147.725,88.148,148.889,88.339,148.916,87.395z M168.331,88.366
		C168.969,89.002,167.927,87.959,168.331,88.366L168.331,88.366z M180.956,88.366C181.256,94.27,182.856,84.664,180.956,88.366
		L180.956,88.366z M258.63,90.308c0.055-1.67-0.749-2.488-1.939-2.913C256.781,88.921,256.559,90.761,258.63,90.308z
		 M229.502,89.336C230.14,89.974,229.095,88.929,229.502,89.336L229.502,89.336z M147.945,90.308
		C148.579,90.944,147.536,89.901,147.945,90.308L147.945,90.308z M246.979,90.308C247.616,90.944,246.573,89.901,246.979,90.308
		L246.979,90.308z M157.654,93.221c0.138-1.147,1.727-2.201,0-2.913C157.512,91.455,155.923,92.509,157.654,93.221z M160.565,91.279
		C161.203,91.915,160.157,90.871,160.565,91.279L160.565,91.279z M194.549,91.279C195.187,91.915,194.144,90.871,194.549,91.279
		L194.549,91.279z M229.502,91.279C230.14,91.915,229.095,90.871,229.502,91.279L229.502,91.279z M231.446,91.279
		C232.08,91.915,231.037,90.871,231.446,91.279L231.446,91.279z M236.301,95.162c0.432-4.902,1.358,1.996,2.91,1.942
		c-1.021-3.612,3.276-1.903,3.884-3.883c-2.83,0.243-3.351-1.828-4.854-2.913c-0.118,4.547-1.414-1.056-3.884,0
		C234.212,92.72,234.86,94.337,236.301,95.162z M247.949,94.192c-2.254-0.658-2.598-3.227-4.854-3.885
		C243.092,92.654,246.495,96.515,247.949,94.192z M151.827,92.25C152.951,96.086,152.951,88.414,151.827,92.25L151.827,92.25z
		 M185.811,96.134c1.717,0.872,2.834,2.343,4.854,2.913c-1.289-6.051,2.163-1.332,3.884-3.885c-1.708-0.233-2.214-1.67-1.94-3.883
		c-1.296,0-2.591,0-3.887,0C189.751,94.896,186.678,94.414,185.811,96.134z M203.285,92.25
		C203.923,92.885,202.881,91.843,203.285,92.25L203.285,92.25z M149.884,98.075c-0.216-1.835,1.097-2.142,0.972-3.883
		c-3.053,1.112-2.358-1.525-3.883-1.942C144.284,95.054,149.102,95.825,149.884,98.075z M194.549,94.192c0.647,0,1.294,0,1.942,0
		c0-0.648,0-1.295,0-1.942c-0.648,0-1.295,0-1.942,0C194.549,92.897,194.549,93.544,194.549,94.192z M218.822,94.192
		C220.235,93.595,218.724,93.019,218.822,94.192c-1.127,0.157-1.727-0.214-1.939-0.972c-4.318-1.063-5.139,4.286-7.77,1.941
		c0.441,4.639,3.778,0.756,5.826,2.913c0.081-1.536-0.466-3.702,0.972-3.883c0.395,1.871,3.765,0.766,2.911,3.883
		c-1.649-0.357-1.831,0.757-1.939,1.942C221.328,101.628,219.948,95.302,218.822,94.192z M248.921,94.192
		C249.556,94.828,248.513,93.784,248.921,94.192L248.921,94.192z M227.563,95.162C228.198,95.798,227.155,94.756,227.563,95.162
		L227.563,95.162z M230.475,96.134C231.108,96.77,230.066,95.726,230.475,96.134L230.475,96.134z M194.549,100.017
		c3.757-0.417,3.454-1.063,5.825,0.97c-0.108-2.48-1.78-3.398-2.911-4.853C198.317,99.253,194.262,97.465,194.549,100.017z
		 M236.301,97.104C236.935,97.74,235.892,96.697,236.301,97.104L236.301,97.104z M242.126,97.104
		C243.25,100.94,243.25,93.268,242.126,97.104L242.126,97.104z M248.921,97.104C249.222,103.008,250.821,93.401,248.921,97.104
		L248.921,97.104z M275.137,100.017c-0.421-2.167-1.716-3.461-3.882-3.883C271.589,98.388,271.882,100.684,275.137,100.017z
		 M149.884,100.017c1.694-0.897,5.213,0.034,4.855-2.913c-1.292,0-2.587,0-3.883,0C150.9,98.441,150.401,99.236,149.884,100.017z
		 M207.172,98.075C207.807,98.711,206.764,97.669,207.172,98.075L207.172,98.075z M233.385,98.075
		C232.333,103.228,236.337,99.223,233.385,98.075C232.788,96.664,232.214,98.173,233.385,98.075z M245.038,98.075
		C246.161,101.911,246.161,94.24,245.038,98.075L245.038,98.075z M250.865,98.075C251.498,98.711,250.456,97.669,250.865,98.075
		L250.865,98.075z M257.659,98.075C258.297,98.711,257.254,97.669,257.659,98.075L257.659,98.075z M230.475,99.047
		C231.108,99.683,230.066,98.639,230.475,99.047L230.475,99.047z M146.001,100.017C146.639,100.653,145.593,99.61,146.001,100.017
		L146.001,100.017z M209.113,100.017C209.749,100.653,208.707,99.61,209.113,100.017L209.113,100.017z M204.258,100.987
		C204.896,101.625,203.85,100.583,204.258,100.987L204.258,100.987z M193.576,100.987c-0.752,0.219-1.912,0.026-1.939,0.972
		C192.389,101.743,193.553,101.932,193.576,100.987z M243.095,101.959C244.222,105.798,244.222,98.123,243.095,101.959
		L243.095,101.959z M274.166,101.959C274.801,102.593,273.758,101.555,274.166,101.959L274.166,101.959z M210.084,106.817
		C210.722,107.451,209.676,106.405,210.084,106.817L210.084,106.817z M244.067,108.757c0.054-0.59,0.145-1.15,0.972-0.972
		c-0.111-1.184-0.29-2.297-1.943-1.94C243.246,106.985,242.93,108.599,244.067,108.757z M246.979,107.785
		C247.616,108.423,246.573,107.377,246.979,107.785L246.979,107.785z M252.804,110.696c0.273-2.537-0.354-4.176-2.911-3.879
		C249.728,109.246,251.384,109.854,252.804,110.696z M217.85,132.059C218.45,133.469,219.024,131.961,217.85,132.059
		c-2.03-5.216-1.447-4.892-3.883-9.71c2.675,1.356,6.879-0.917,7.77,3.887c-0.648,0-1.296,0-1.943,0c0,0.645,0,1.293,0,1.939
		c1.653,0.355,1.832-0.758,1.943-1.939c1.127,0.155,1.728-0.216,1.939-0.972c2.908-0.195-0.928-4.034,0,0
		c-0.826-1.761-2.5-2.679-2.911-4.857c3.619,2.584,0.063-1.866,1.939-1.939c0.783,0.513,1.579,1.011,2.915,0.968
		c-1.649-3.62,0.573-1.535,0.972-4.852c-6.828-0.621-9.122-5.769-15.535-6.798c2.51,8.319-3.02,20.384,3.883,23.302
		c-0.904,1.039-3.583,0.304-2.912,2.915c2.754-0.169,1.893,3.282,5.823,1.943C218.606,133.776,213.002,132.48,217.85,132.059z
		 M255.719,110.696c0.647,0,1.292,0,1.94,0c0-0.647,0-1.295,0-1.939c-0.648,0-1.293,0-1.94,0
		C255.719,109.401,255.719,110.049,255.719,110.696z M241.156,113.612c3.097,0.572,3.002-1.822,4.854,0
		C246.958,109.698,240.207,109.698,241.156,113.612z M210.084,112.64C210.384,118.543,211.983,108.936,210.084,112.64
		L210.084,112.64z M238.24,115.555C238.878,116.189,237.835,115.146,238.24,115.555L238.24,115.555z M252.804,115.555
		C253.442,116.189,252.399,115.146,252.804,115.555L252.804,115.555z M235.329,119.435
		C235.963,120.072,234.921,119.029,235.329,119.435L235.329,119.435z M237.269,118.467c-0.064,0.01,0.061,0.9,0,0.968
		C232.66,124.704,241.931,117.643,237.269,118.467z M241.156,119.435C238.807,122.693,244.41,117.09,241.156,119.435
		L241.156,119.435z M255.719,119.435C256.353,120.072,255.311,119.029,255.719,119.435L255.719,119.435z M247.949,121.378
		C248.587,122.012,247.544,120.973,247.949,121.378L247.949,121.378z M229.502,121.378c-0.752,0.216-1.916,0.026-1.939,0.971
		C228.315,122.133,229.476,122.322,229.502,121.378z M246.01,122.349C246.644,122.983,245.602,121.944,246.01,122.349
		L246.01,122.349z M249.893,122.349C250.527,122.983,249.485,121.944,249.893,122.349L249.893,122.349z M246.01,124.293
		c0,0.647,0,1.295,0,1.942c2.388,1.505,2.854-3.299,0.969-2.914C246.924,123.915,246.833,124.468,246.01,124.293z M236.301,125.264
		C237.423,129.097,237.423,121.425,236.301,125.264L236.301,125.264z M202.318,126.235
		C202.952,126.87,201.909,125.824,202.318,126.235L202.318,126.235z M229.502,126.235c-0.786,0.183-0.968,0.972-1.939,0.969
		c0-0.324,0-0.648,0-0.969c-0.648,0-1.295,0-1.943,0c-1.087,1.397-1.046,2.368,0.972,2.908c-0.158-1.127,0.213-1.727,0.972-1.939
		C228.194,128.854,229.793,127.812,229.502,126.235C230.912,125.636,229.405,125.062,229.502,126.235z M247.949,129.144
		c0.648,0,1.296,0,1.943,0c0.59-0.054,1.15-0.142,0.972-0.969c-3.036,0.298,2.466-2.803-0.972-2.911
		C249.879,127.193,247.244,126.498,247.949,129.144z M251.833,127.204C252.47,127.842,251.428,126.795,251.833,127.204
		L251.833,127.204z M233.385,131.087c0.294-1.141,5.142-2.436,1.944-3.883C234.736,128.044,229.884,129.34,233.385,131.087z
		 M245.038,128.175C245.672,128.813,244.63,127.768,245.038,128.175L245.038,128.175z M217.85,130.115
		C218.488,130.753,217.446,129.71,217.85,130.115L217.85,130.115z M204.258,131.087C204.558,136.991,206.16,127.383,204.258,131.087
		L204.258,131.087z M247.949,132.059c-0.647,0-1.292,0-1.939,0c0,0.647,0,1.296,0,1.943
		C247.659,134.359,247.841,133.246,247.949,132.059C251.985,132.99,248.145,129.15,247.949,132.059z M262.514,132.059
		C263.152,132.693,262.109,131.654,262.514,132.059L262.514,132.059z M296.496,132.059c-0.753,0.216-1.913,0.026-1.94,0.971
		C295.309,132.813,296.469,133.003,296.496,132.059z M198.431,134.974C199.558,138.806,199.558,131.134,198.431,134.974
		L198.431,134.974z M257.659,134.974C258.297,135.607,257.254,134.565,257.659,134.974L257.659,134.974z M264.456,134.002
		c-0.752,0.216-1.916,0.026-1.942,0.972C263.269,134.755,264.43,134.946,264.456,134.002z M285.819,136.913
		c4.396,2.777,6.315-1.771,9.709,0C294.435,131.418,289.145,136.351,285.819,136.913z M250.865,135.945
		C251.498,136.579,250.456,135.533,250.865,135.945L250.865,135.945z M205.23,144.683c-1.319,0.297-0.807,2.429-0.972,3.88
		c-2.949,1.15,1.053,5.151,0,0C205.576,148.266,205.064,146.133,205.23,144.683c1.137-0.158,0.819-1.774,0.971-2.915
		c0.324,0,0.648,0,0.972,0c-0.931,4.035,2.908,0.195,0,0c0.179-0.822-0.381-0.917-0.972-0.971c-0.606-2.309-1.305-4.521-3.883-4.852
		C203.317,138.826,203.05,142.979,205.23,144.683z M218.822,138.853c1.296,0,2.592,0,3.883,0c0-0.644,0-1.292,0-1.939
		c-1.291,0-2.587,0-3.883,0C218.822,137.561,218.822,138.209,218.822,138.853z M253.776,137.885c-0.594-0.287-3.738-2.416-3.883,0
		C250.49,138.168,253.63,140.3,253.776,137.885z M221.737,141.768c-3.563,0.276-4.946-6.64-8.738-2.915
		C217.982,137.463,219.109,146.842,221.737,141.768z M264.456,139.824C265.58,143.663,265.58,135.992,264.456,139.824
		L264.456,139.824z M290.67,140.797c-1.383-0.229-1.637-1.6-2.911-1.944C286.908,140.856,290.279,143.215,290.67,140.797z
		 M223.676,140.797C224.314,141.43,223.272,140.392,223.676,140.797L223.676,140.797z M265.428,144.683
		c2.611,0.668,1.876-2.011,2.912-2.915c-0.972,0-1.939,0-2.912,0C265.428,142.739,265.428,143.711,265.428,144.683z
		 M271.255,144.683c0.138-1.147,1.727-2.203,0-2.915C271.113,142.915,269.525,143.968,271.255,144.683z M199.404,146.623
		c0.053-1.671-0.746-2.486-1.94-2.912C197.409,145.381,198.209,146.201,199.404,146.623z M224.648,144.683
		C225.285,145.316,224.24,144.274,224.648,144.683L224.648,144.683z M289.701,143.711c-0.755,0.216-1.916,0.027-1.942,0.972
		C288.511,144.463,289.675,144.655,289.701,143.711z M200.374,147.594C201.012,148.231,199.966,147.186,200.374,147.594
		L200.374,147.594z M206.2,150.506c1.525-0.091,3.367,0.131,2.912-1.943c-0.647,0-1.292,0-1.94,0
		C207.176,149.541,206.386,149.72,206.2,150.506z M196.491,151.478C197.126,152.111,196.083,151.072,196.491,151.478
		L196.491,151.478z M204.258,156.332c-0.324,0-0.647,0-0.973,0c-0.023,0.944-1.187,0.752-1.939,0.972
		c0.53,1.41-1.133,5.017,0.972,4.854c-0.044-1.66,0.723-2.517,1.94-2.915c0.273,1.572-0.918,1.674-0.973,2.915
		c2.548-1.016,4.042-3.08,5.827-4.854c-3.097-0.834-3.003,1.528-4.854,1.939C204.258,158.271,204.258,157.304,204.258,156.332
		c1.663,0.044,2.516-0.723,2.914-1.939C205.509,154.349,204.656,155.114,204.258,156.332z M256.691,157.304
		C257.324,157.941,256.282,156.895,256.691,157.304L256.691,157.304z M209.113,163.13
		C209.749,163.764,208.707,162.721,209.113,163.13L209.113,163.13z M205.23,164.101C205.867,164.735,204.822,163.693,205.23,164.101
		L205.23,164.101z M216.882,169.924c2.83,1.431,2.83-4.338,0-2.911C216.882,167.981,216.882,168.952,216.882,169.924z
		 M211.056,172.839c-0.011-0.979-1.704-1.221-1.943,0C210.202,172.737,210.623,174.249,211.056,172.839z M104.253,173.811
		C104.886,174.445,103.844,173.402,104.253,173.811L104.253,173.811z M103.281,173.811c-1.144,0.148-2.756-0.169-2.913,0.972
		C101.51,174.627,103.124,174.947,103.281,173.811z M123.671,176.723C122.258,177.319,123.769,177.893,123.671,176.723
		C127.703,177.649,123.867,173.814,123.671,176.723z M146.973,178.662c-0.537,1.99,1.855,2.317,1.943,0.972
		c3.276,3.201,8.721,1.393,11.649-0.972c-5.452-0.067-11.005-5.145-16.504-1.939C145.337,177.063,145.586,178.433,146.973,178.662z
		 M116.873,179.634c2.463,1.028,5.536-2.045,2.915-2.911C119.68,178.554,116.576,177.394,116.873,179.634z M173.19,180.604
		c0.27-2.213-0.236-3.649-1.943-3.882c0.907,2.911-9.521-0.254-3.883,3.882c-1.741,2.463-5.961-2.3-6.798,1.944
		c6.201,0.077,19.851,3.306,18.448-2.915c-0.709,0.907-1.765,1.471-2.912,1.943c0-0.648,0-1.296,0-1.943
		C174.532,179.363,174.431,180.552,173.19,180.604z M51.822,178.662C54.237,182.45,53.237,175.447,51.822,178.662L51.822,178.662z
		 M74.153,180.604C74.789,181.239,73.745,180.2,74.153,180.604L74.153,180.604z M100.368,180.604c-0.012-0.978-1.702-1.221-1.941,0
		C99.516,180.508,99.938,182.016,100.368,180.604z M111.047,180.604C111.685,181.239,110.642,180.2,111.047,180.604L111.047,180.604
		z M113.962,180.604C115.376,183.824,116.378,176.819,113.962,180.604L113.962,180.604z M182.9,183.52
		c1.669,0.052,2.486-0.749,2.911-1.942C184.141,181.522,183.322,182.325,182.9,183.52z M69.299,182.549
		c-0.754,0.216-1.917,0.026-1.942,0.971C68.109,183.301,69.271,183.493,69.299,182.549z M112.99,184.491
		c1.37-3.104-5.809-2.456-5.826-0.972C109.451,183.496,110.021,185.19,112.99,184.491z M117.845,183.52
		C118.483,184.154,117.437,183.108,117.845,183.52L117.845,183.52z"/>
	<path fill-rule="evenodd" clip-rule="evenodd" fill="#00CC00" d="M233.385,11.662C231.095,14.785,229.462,8.248,233.385,11.662
		L233.385,11.662z"/>
	<path fill-rule="evenodd" clip-rule="evenodd" fill="#00CC00" d="M228.531,14.575C228.126,14.168,229.168,15.21,228.531,14.575
		L228.531,14.575z"/>
	<path fill-rule="evenodd" clip-rule="evenodd" fill="#00CC00" d="M252.804,15.546C252.399,15.138,253.442,16.182,252.804,15.546
		L252.804,15.546z"/>
	<path fill-rule="evenodd" clip-rule="evenodd" fill="#00CC00" d="M219.793,20.401C219.385,19.993,220.427,21.037,219.793,20.401
		L219.793,20.401z"/>
	<path fill-rule="evenodd" clip-rule="evenodd" fill="#00CC00" d="M241.156,21.371c-1.033,0.042-2.467-0.458-0.972-0.97
		C240.778,20.457,241.333,20.546,241.156,21.371z"/>
	<path fill-rule="evenodd" clip-rule="evenodd" fill="#00CC00" d="M258.63,20.401c0.979,2.92-2.162,1.721-3.883,1.941
		C254.981,20.633,256.417,20.129,258.63,20.401z"/>
	<path fill-rule="evenodd" clip-rule="evenodd" fill="#00CC00" d="M236.301,22.342C236.496,19.435,240.332,23.27,236.301,22.342
		L236.301,22.342z"/>
	<path fill-rule="evenodd" clip-rule="evenodd" fill="#00CC00" d="M241.156,21.371c0.59,0.055,1.146,0.146,0.971,0.971
		C241.533,22.287,240.976,22.197,241.156,21.371z"/>
	<path fill-rule="evenodd" clip-rule="evenodd" fill="#00CC00" d="M264.456,22.342C263.282,22.44,263.86,20.931,264.456,22.342
		L264.456,22.342z"/>
	<path fill-rule="evenodd" clip-rule="evenodd" fill="#00CC00" d="M264.456,22.342c1.69-0.288,3.404,3.767,0,2.913
		C264.079,23.869,263.293,23.618,264.456,22.342z"/>
	<path fill-rule="evenodd" clip-rule="evenodd" fill="#00CC00" d="M194.549,24.284C195.675,20.448,195.675,28.121,194.549,24.284
		L194.549,24.284z"/>
	<path fill-rule="evenodd" clip-rule="evenodd" fill="#00CC00" d="M220.765,23.314C220.863,24.486,219.352,23.911,220.765,23.314
		L220.765,23.314z"/>
	<path fill-rule="evenodd" clip-rule="evenodd" fill="#00CC00" d="M207.172,24.284c2.254,0.334,4.548,0.629,3.884,3.885
		C209.915,26.718,207.021,27.023,207.172,24.284z"/>
	<path fill-rule="evenodd" clip-rule="evenodd" fill="#00CC00" d="M225.619,24.284C226.794,24.186,226.216,25.696,225.619,24.284
		L225.619,24.284z"/>
	<path fill-rule="evenodd" clip-rule="evenodd" fill="#00CC00" d="M269.312,24.284c0.647,0,1.295,0,1.943,0c0,0.647,0,1.295,0,1.941
		c-0.648,0-1.296,0-1.943,0C269.312,25.579,269.312,24.932,269.312,24.284z"/>
	<path fill-rule="evenodd" clip-rule="evenodd" fill="#00CC00" d="M191.637,26.226c0.027-0.943,1.188-0.752,1.939-0.97
		C193.553,26.2,192.389,26.008,191.637,26.226z"/>
	<path fill-rule="evenodd" clip-rule="evenodd" fill="#00CC00" d="M219.793,26.226C219.385,25.819,220.427,26.861,219.793,26.226
		L219.793,26.226z"/>
	<path fill-rule="evenodd" clip-rule="evenodd" fill="#00CC00" d="M264.456,25.255c-1.592,2.613,1.319,4.979-0.971,7.768
		C260.55,32.922,261.734,25.532,264.456,25.255z"/>
	<path fill-rule="evenodd" clip-rule="evenodd" fill="#00CC00" d="M167.363,27.197c-0.384-1.884,4.423-1.419,2.912,0.972
		c-0.648,0-1.295,0-1.943,0C168.513,27.342,167.953,27.253,167.363,27.197z"/>
	<path fill-rule="evenodd" clip-rule="evenodd" fill="#00CC00" d="M225.619,27.197C225.211,26.791,226.257,27.833,225.619,27.197
		L225.619,27.197z"/>
	<path fill-rule="evenodd" clip-rule="evenodd" fill="#00CC00" d="M227.563,27.197c0.023-0.945,1.188-0.754,1.939-0.972
		C229.476,27.17,228.315,26.979,227.563,27.197z"/>
	<path fill-rule="evenodd" clip-rule="evenodd" fill="#00CC00" d="M267.368,27.197C267.271,26.023,268.782,26.6,267.368,27.197
		L267.368,27.197z"/>
	<path fill-rule="evenodd" clip-rule="evenodd" fill="#00CC00" d="M184.839,29.139C181.931,28.943,185.767,25.107,184.839,29.139
		L184.839,29.139z"/>
	<path fill-rule="evenodd" clip-rule="evenodd" fill="#00CC00" d="M223.676,27.197c0.981,0.012,1.221,1.702,0,1.941
		C223.676,28.491,223.676,27.845,223.676,27.197z"/>
	<path fill-rule="evenodd" clip-rule="evenodd" fill="#00CC00" d="M256.691,28.169C256.282,27.76,257.324,28.805,256.691,28.169
		L256.691,28.169z"/>
	<path fill-rule="evenodd" clip-rule="evenodd" fill="#00CC00" d="M267.368,27.197C267.466,28.37,265.958,27.794,267.368,27.197
		L267.368,27.197z"/>
	<path fill-rule="evenodd" clip-rule="evenodd" fill="#00CC00" d="M271.255,28.169C270.847,27.76,271.889,28.805,271.255,28.169
		L271.255,28.169z"/>
	<path fill-rule="evenodd" clip-rule="evenodd" fill="#00CC00" d="M228.531,31.08c-1.127-0.157-1.727,0.216-1.939,0.972
		C226.932,33.412,228.298,32.136,228.531,31.08c1.671-0.05,2.49,0.748,2.915,1.943c-0.59,1.675-4.604-0.076-4.854,1.942
		c-0.786-0.184-0.968-0.974-1.943-0.971c2.159-2.046-1.724-5.383,2.915-5.825C228.693,28.331,228.615,29.704,228.531,31.08z"/>
	<path fill-rule="evenodd" clip-rule="evenodd" fill="#00CC00" d="M249.893,29.139c0.027-0.945,1.188-0.754,1.94-0.97
		C251.809,29.112,250.645,28.921,249.893,29.139z"/>
	<path fill-rule="evenodd" clip-rule="evenodd" fill="#00CC00" d="M267.368,30.11c0.243-1.221,1.933-0.98,1.943,0
		C268.879,31.522,268.457,30.011,267.368,30.11z"/>
	<path fill-rule="evenodd" clip-rule="evenodd" fill="#00CC00" d="M271.255,29.139c1.305,2.577,4.851,2.917,4.851,6.798
		c-3.054,0.464-3.792-1.383-5.823-1.943C269.48,31.249,271.649,31.478,271.255,29.139z"/>
	<path fill-rule="evenodd" clip-rule="evenodd" fill="#00CC00" d="M222.704,33.023C222.607,31.849,224.118,32.426,222.704,33.023
		L222.704,33.023z"/>
	<path fill-rule="evenodd" clip-rule="evenodd" fill="#00CC00" d="M266.401,33.023C266.299,31.849,267.81,32.426,266.401,33.023
		L266.401,33.023z"/>
	<path fill-rule="evenodd" clip-rule="evenodd" fill="#00CC00" d="M232.414,33.994c0.058-0.592,0.146-1.149,0.971-0.971
		C233.565,33.848,233.008,33.939,232.414,33.994z"/>
	<path fill-rule="evenodd" clip-rule="evenodd" fill="#00CC00" d="M266.401,33.023C266.497,34.196,264.987,33.621,266.401,33.023
		L266.401,33.023z"/>
	<path fill-rule="evenodd" clip-rule="evenodd" fill="#00CC00" d="M166.392,34.965C166.294,33.791,167.802,34.368,166.392,34.965
		L166.392,34.965z"/>
	<path fill-rule="evenodd" clip-rule="evenodd" fill="#00CC00" d="M264.456,35.937C264.048,35.528,265.091,36.572,264.456,35.937
		L264.456,35.937z"/>
	<path fill-rule="evenodd" clip-rule="evenodd" fill="#00CC00" d="M172.218,36.906c-0.755-0.217-1.916-0.027-1.943-0.97
		C171.031,36.152,172.191,35.962,172.218,36.906z"/>
	<path fill-rule="evenodd" clip-rule="evenodd" fill="#00CC00" d="M262.514,37.878c0.597,0.283,3.738,2.416,3.887,0
		C270.813,39.519,260.82,41.808,262.514,37.878z"/>
	<path fill-rule="evenodd" clip-rule="evenodd" fill="#00CC00" d="M273.195,38.848C274.322,35.012,274.322,42.686,273.195,38.848
		L273.195,38.848z"/>
	<path fill-rule="evenodd" clip-rule="evenodd" fill="#00CC00" d="M268.34,39.819c0.026-0.944,1.188-0.753,1.942-0.971
		C270.256,39.792,269.095,39.602,268.34,39.819z"/>
	<path fill-rule="evenodd" clip-rule="evenodd" fill="#00CC00" d="M246.979,40.79C246.88,39.617,248.392,40.192,246.979,40.79
		L246.979,40.79z"/>
	<path fill-rule="evenodd" clip-rule="evenodd" fill="#00CC00" d="M238.24,40.79c0.003,0.54-0.786,1.103-0.972,0
		C237.596,40.79,237.917,40.79,238.24,40.79z"/>
	<path fill-rule="evenodd" clip-rule="evenodd" fill="#00CC00" d="M250.865,40.79c1.565-0.273,1.67,0.919,2.911,0.972
		c-0.182,0.786-0.975,0.968-0.972,1.941c-0.645,0-1.292,0-1.939,0C250.865,42.732,250.865,41.761,250.865,40.79z"/>
	<path fill-rule="evenodd" clip-rule="evenodd" fill="#00CC00" d="M274.166,41.761C273.758,41.354,274.801,42.397,274.166,41.761
		L274.166,41.761z"/>
	<path fill-rule="evenodd" clip-rule="evenodd" fill="#00CC00" d="M268.34,43.703C271.599,41.356,265.995,46.96,268.34,43.703
		L268.34,43.703z"/>
	<path fill-rule="evenodd" clip-rule="evenodd" fill="#00CC00" d="M263.486,44.674c0.026-0.945,1.187-0.754,1.942-0.972
		C265.402,44.647,264.238,44.457,263.486,44.674z"/>
	<path fill-rule="evenodd" clip-rule="evenodd" fill="#00CC00" d="M255.719,47.587c0.108-1.186,0.29-2.299,1.94-1.943
		C257.453,46.733,256.582,47.157,255.719,47.587z"/>
	<path fill-rule="evenodd" clip-rule="evenodd" fill="#00CC00" d="M258.63,47.587C258.222,47.179,259.268,48.224,258.63,47.587
		L258.63,47.587z"/>
	<path fill-rule="evenodd" clip-rule="evenodd" fill="#00CC00" d="M267.368,47.587C266.963,47.179,268.006,48.224,267.368,47.587
		L267.368,47.587z"/>
	<path fill-rule="evenodd" clip-rule="evenodd" fill="#00CC00" d="M269.312,52.442c0.026-0.945,1.187-0.754,1.943-0.972
		C271.228,52.415,270.064,52.225,269.312,52.442z"/>
	<path fill-rule="evenodd" clip-rule="evenodd" fill="#00CC00" d="M284.847,56.325c0,1.296,0,2.59,0,3.884
		c-2.396,0.128-4.679,0.148-5.826-0.971c1.12-3.286,1.93-1.528,0.972-5.826C282.28,53.712,281.798,56.784,284.847,56.325z
		 M281.936,59.238C282.57,59.874,281.528,58.832,281.936,59.238L281.936,59.238z"/>
	<path fill-rule="evenodd" clip-rule="evenodd" fill="#00CC00" d="M282.905,54.384C282.495,53.977,283.542,55.02,282.905,54.384
		L282.905,54.384z"/>
	<path fill-rule="evenodd" clip-rule="evenodd" fill="#00CC00" d="M290.67,55.354C290.572,54.181,292.083,54.756,290.67,55.354
		L290.67,55.354z"/>
	<path fill-rule="evenodd" clip-rule="evenodd" fill="#00CC00" d="M284.847,56.325C284.749,55.153,286.257,55.728,284.847,56.325
		L284.847,56.325z"/>
	<path fill-rule="evenodd" clip-rule="evenodd" fill="#00CC00" d="M290.67,55.354c-0.412,5.629-2.696,6.841-0.969,12.623
		c-1.444-0.822-1.406-3.126-1.942-4.855c-1.525,0.093-3.367-0.13-2.912,1.943c-1.285-0.012-0.888-1.702-1.942-1.943
		c0.397-1.219,1.251-1.983,2.914-1.941c0.182,1.101,0.972,0.54,0.968,0c0.827,0.179,0.918-0.378,0.973-0.971
		c1.44-0.825,2.088-2.443,1.942-4.855C290.026,55.354,290.35,55.354,290.67,55.354z"/>
	<path fill-rule="evenodd" clip-rule="evenodd" fill="#00CC00" d="M287.759,60.208c-0.827-0.177-0.915,0.379-0.973,0.971
		c-0.32,0-0.647,0-0.968,0c-0.044-1.336,0.455-2.132,0.968-2.913C287.546,58.481,287.917,59.08,287.759,60.208z"/>
	<path fill-rule="evenodd" clip-rule="evenodd" fill="#00CC00" d="M276.106,59.238c0.76,0.214,1.13,0.813,0.972,1.942
		C276.322,60.965,275.951,60.367,276.106,59.238z"/>
	<path fill-rule="evenodd" clip-rule="evenodd" fill="#00CC00" d="M277.077,67.006c-2.918-3.438,6.684-1.15,2.915-5.826
		c2.24-0.297,1.076,2.805,2.912,2.913C282.023,66.124,280.039,67.053,277.077,67.006z"/>
	<path fill-rule="evenodd" clip-rule="evenodd" fill="#00CC00" d="M277.077,63.121C276.673,62.714,277.715,63.757,277.077,63.121
		L277.077,63.121z"/>
	<path fill-rule="evenodd" clip-rule="evenodd" fill="#00CC00" d="M275.137,64.093C274.73,63.685,275.772,64.729,275.137,64.093
		L275.137,64.093z"/>
	<path fill-rule="evenodd" clip-rule="evenodd" fill="#00CC00" d="M284.847,65.064C286.018,64.965,285.445,66.475,284.847,65.064
		L284.847,65.064z"/>
	<path fill-rule="evenodd" clip-rule="evenodd" fill="#00CC00" d="M276.106,67.976c0.058-0.592,0.148-1.149,0.972-0.97
		C277.024,67.598,276.933,68.155,276.106,67.976z"/>
	<path fill-rule="evenodd" clip-rule="evenodd" fill="#00CC00" d="M276.106,67.976C276.207,69.15,274.696,68.573,276.106,67.976
		L276.106,67.976z"/>
	<path fill-rule="evenodd" clip-rule="evenodd" fill="#00CC00" d="M245.038,70.889c0.003,0.54-0.786,1.103-0.972,0
		C244.391,70.889,244.714,70.889,245.038,70.889z"/>
	<path fill-rule="evenodd" clip-rule="evenodd" fill="#00CC00" d="M282.905,71.86C281.73,71.958,282.307,70.449,282.905,71.86
		L282.905,71.86z"/>
	<path fill-rule="evenodd" clip-rule="evenodd" fill="#00CC00" d="M282.905,71.86C284.078,71.761,283.501,73.271,282.905,71.86
		L282.905,71.86z"/>
	<path fill-rule="evenodd" clip-rule="evenodd" fill="#00CC00" d="M123.671,73.802c0.968,0,1.94,0,2.912,0
		c2.253,1.422-1.896,3.077,1.943,2.913c-2.128,2.019,0.851,3.138-0.971,4.854c-2.581-0.658-4.615-1.857-6.798-2.913
		C121.93,77.24,125.001,77.722,123.671,73.802z"/>
	<path fill-rule="evenodd" clip-rule="evenodd" fill="#00CC00" d="M129.494,74.772c0.007,0.54-0.786,1.104-0.968,0
		C128.85,74.772,129.174,74.772,129.494,74.772z"/>
	<path fill-rule="evenodd" clip-rule="evenodd" fill="#00CC00" d="M158.625,76.715c-0.003-0.54,0.786-1.103,0.968,0
		C159.27,76.715,158.946,76.715,158.625,76.715z"/>
	<path fill-rule="evenodd" clip-rule="evenodd" fill="#00CC00" d="M141.147,77.687c-1.144-0.153-2.756,0.166-2.912-0.972
		C139.375,76.867,140.991,76.548,141.147,77.687z"/>
	<path fill-rule="evenodd" clip-rule="evenodd" fill="#00CC00" d="M278.049,80.598C277.644,80.192,278.687,81.234,278.049,80.598
		L278.049,80.598z"/>
	<path fill-rule="evenodd" clip-rule="evenodd" fill="#00CC00" d="M135.321,82.54c0.026-0.942,1.191-0.752,1.943-0.97
		C137.237,82.515,136.076,82.324,135.321,82.54z"/>
	<path fill-rule="evenodd" clip-rule="evenodd" fill="#00CC00" d="M235.329,84.483c1.38-4.263,4.001,4.564,0,2.912
		C236.004,86.612,236.84,84.736,235.329,84.483z"/>
	<path fill-rule="evenodd" clip-rule="evenodd" fill="#00CC00" d="M244.067,85.453C244.164,86.627,242.656,86.05,244.067,85.453
		L244.067,85.453z"/>
	<path fill-rule="evenodd" clip-rule="evenodd" fill="#00CC00" d="M136.292,92.25C135.884,91.843,136.929,92.885,136.292,92.25
		L136.292,92.25z"/>
	<path fill-rule="evenodd" clip-rule="evenodd" fill="#00CC00" d="M141.147,92.25c-0.752-0.219-1.916-0.028-1.94-0.971
		C139.959,91.497,141.119,91.306,141.147,92.25z"/>
	<path fill-rule="evenodd" clip-rule="evenodd" fill="#00CC00" d="M136.292,95.162C135.884,94.756,136.929,95.798,136.292,95.162
		L136.292,95.162z"/>
	<path fill-rule="evenodd" clip-rule="evenodd" fill="#00CC00" d="M274.166,104.874c4.483,1.248,2.672-3.806,4.854-4.857
		c1.366,1.871,2.567,3.906,2.915,6.8c-3.8-2.008-4.19,1.201-4.858,3.879c-0.881-1.197-5.866-3.137-8.737,0
		c0.128-3.107,2.202-4.271,5.826-3.879C274.166,106.17,274.166,105.521,274.166,104.874z"/>
	<path fill-rule="evenodd" clip-rule="evenodd" fill="#00CC00" d="M133.381,102.931
		C133.279,101.757,134.791,102.333,133.381,102.931L133.381,102.931z"/>
	<path fill-rule="evenodd" clip-rule="evenodd" fill="#00CC00" d="M133.381,102.931c0.705,2.206,2.921,2.904,4.854,3.887
		c1.873-3.685,7.271,1.197,12.621,0C147.061,115.879,131.683,109.62,133.381,102.931z"/>
	<path fill-rule="evenodd" clip-rule="evenodd" fill="#00CC00" d="M220.765,103.902c0.055-0.594,0.146-1.15,0.972-0.972
		C221.679,103.524,221.591,104.077,220.765,103.902z"/>
	<path fill-rule="evenodd" clip-rule="evenodd" fill="#00CC00" d="M264.456,102.931C265.63,102.833,265.054,104.341,264.456,102.931
		L264.456,102.931z"/>
	<path fill-rule="evenodd" clip-rule="evenodd" fill="#00CC00" d="M220.765,103.902c0,0.647,0,1.295,0,1.942
		c-1.241,0.055-1.346,1.242-2.915,0.973C217.182,104.206,219.861,104.938,220.765,103.902z"/>
	<path fill-rule="evenodd" clip-rule="evenodd" fill="#00CC00" d="M269.312,105.845
		C268.903,105.434,269.946,106.479,269.312,105.845L269.312,105.845z"/>
	<path fill-rule="evenodd" clip-rule="evenodd" fill="#00CC00" d="M284.847,105.845c0.027-0.944,1.188-0.755,1.939-0.971
		C286.763,105.818,285.599,105.626,284.847,105.845z"/>
	<path fill-rule="evenodd" clip-rule="evenodd" fill="#00CC00" d="M220.765,105.845c0.979,0.011,1.222,1.701,0,1.94
		C220.765,107.138,220.765,106.493,220.765,105.845z"/>
	<path fill-rule="evenodd" clip-rule="evenodd" fill="#00CC00" d="M237.269,105.845c0.327,0,0.648,0,0.972,0
		c0,0.325,0,0.648,0,0.973C237.65,106.76,237.093,106.669,237.269,105.845z"/>
	<path fill-rule="evenodd" clip-rule="evenodd" fill="#00CC00" d="M183.867,109.726c0.705-2.166,5.54-0.466,4.854,1.942
		C185.733,112.391,186.857,109.003,183.867,109.726z"/>
	<path fill-rule="evenodd" clip-rule="evenodd" fill="#00CC00" d="M147.945,112.64C147.844,111.466,149.355,112.043,147.945,112.64
		L147.945,112.64z"/>
	<path fill-rule="evenodd" clip-rule="evenodd" fill="#00CC00" d="M147.945,112.64C148.042,113.813,146.531,113.237,147.945,112.64
		L147.945,112.64z"/>
	<path fill-rule="evenodd" clip-rule="evenodd" fill="#00CC00" d="M276.106,113.612c0.027-0.945,1.191-0.757,1.943-0.973
		C278.022,113.584,276.862,113.396,276.106,113.612z"/>
	<path fill-rule="evenodd" clip-rule="evenodd" fill="#00CC00" d="M272.223,118.467
		C271.818,118.059,272.861,119.104,272.223,118.467L272.223,118.467z"/>
	<path fill-rule="evenodd" clip-rule="evenodd" fill="#00CC00" d="M268.34,119.435C267.932,119.029,268.978,120.072,268.34,119.435
		L268.34,119.435z"/>
	<path fill-rule="evenodd" clip-rule="evenodd" fill="#00CC00" d="M265.428,120.406c0.753,0.219,1.913,0.026,1.94,0.972
		C266.616,121.161,265.455,121.351,265.428,120.406z"/>
	<path fill-rule="evenodd" clip-rule="evenodd" fill="#00CC00" d="M274.166,122.349
		C273.758,121.944,274.801,122.983,274.166,122.349L274.166,122.349z"/>
	<path fill-rule="evenodd" clip-rule="evenodd" fill="#00CC00" d="M274.166,124.293
		C273.758,123.884,274.801,124.926,274.166,124.293L274.166,124.293z"/>
	<path fill-rule="evenodd" clip-rule="evenodd" fill="#00CC00" d="M197.463,126.235C194.555,126.037,198.391,122.2,197.463,126.235
		L197.463,126.235z"/>
	<path fill-rule="evenodd" clip-rule="evenodd" fill="#00CC00" d="M310.092,132.059C306.705,127.511,314.99,128.148,310.092,132.059
		L310.092,132.059z"/>
	<path fill-rule="evenodd" clip-rule="evenodd" fill="#00CC00" d="M301.351,133.029c0.455-1.854-2.992-4.179,0.972-3.886
		c1.876,0.095-1.68,3.792,1.943,3.886c-0.044-1.031,0.455-2.465,0.968-0.971C306.104,135.449,302.07,133.719,301.351,133.029z"/>
	<path fill-rule="evenodd" clip-rule="evenodd" fill="#00CC00" d="M189.694,137.885c-1.42-0.847-3.076-1.454-2.912-3.883
		C188.202,134.846,189.859,135.452,189.694,137.885z"/>
	<path fill-rule="evenodd" clip-rule="evenodd" fill="#00CC00" d="M181.927,135.945C186.95,132.079,185.679,140.999,181.927,135.945
		L181.927,135.945z"/>
	<path fill-rule="evenodd" clip-rule="evenodd" fill="#00CC00" d="M301.351,135.945
		C300.947,135.533,301.989,136.579,301.351,135.945L301.351,135.945z"/>
	<path fill-rule="evenodd" clip-rule="evenodd" fill="#00CC00" d="M176.101,136.913c-0.323,0-0.647,0-0.971,0
		C175.315,138.017,176.105,137.452,176.101,136.913c1.127-0.813,2.602-1.278,4.855-0.968c-3.202,1.937-0.209,1.531,0,4.852
		c-2.372-0.864-4.21-2.262-7.767-1.944c-0.102-1.086,1.41-1.511,0-1.939c0.054-0.591,0.145-1.15,0.968-0.968
		c0.647,0,1.296,0,1.943,0C176.101,136.269,176.101,136.59,176.101,136.913z"/>
	<path fill-rule="evenodd" clip-rule="evenodd" fill="#00CC00" d="M302.323,137.885c0.027-0.945,1.188-0.753,1.943-0.972
		C304.239,137.857,303.074,137.665,302.323,137.885z"/>
	<path fill-rule="evenodd" clip-rule="evenodd" fill="#00CC00" d="M185.811,138.853C185.403,138.448,186.448,139.49,185.811,138.853
		L185.811,138.853z"/>
	<path fill-rule="evenodd" clip-rule="evenodd" fill="#00CC00" d="M185.811,140.797c0.026-0.945,1.188-0.753,1.943-0.973
		C187.727,140.769,186.563,140.58,185.811,140.797z"/>
	<path fill-rule="evenodd" clip-rule="evenodd" fill="#00CC00" d="M206.2,140.797c0,0.323,0,0.647,0,0.971
		C202.796,142.369,204.507,138.272,206.2,140.797z"/>
	<path fill-rule="evenodd" clip-rule="evenodd" fill="#00CC00" d="M303.294,140.797C302.886,140.392,303.928,141.43,303.294,140.797
		L303.294,140.797z"/>
	<path fill-rule="evenodd" clip-rule="evenodd" fill="#00CC00" d="M191.637,144.683c-1.744,0.121-2.273-0.965-1.943-2.915
		C190.915,142.166,191.678,143.02,191.637,144.683z"/>
	<path fill-rule="evenodd" clip-rule="evenodd" fill="#00CC00" d="M300.382,142.739
		C301.506,138.899,301.506,146.575,300.382,142.739L300.382,142.739z"/>
	<path fill-rule="evenodd" clip-rule="evenodd" fill="#00CC00" d="M187.754,143.711c0.704,2.648-1.931,1.953-1.943,3.883
		c-1.728-0.863-2.466-2.709-5.826-1.939C180.885,143.299,186.064,142.308,187.754,143.711z"/>
	<path fill-rule="evenodd" clip-rule="evenodd" fill="#00CC00" d="M295.528,146.623C295.119,146.214,296.162,147.26,295.528,146.623
		L295.528,146.623z"/>
	<path fill-rule="evenodd" clip-rule="evenodd" fill="#00CC00" d="M294.556,147.594c-0.539,0.004-1.103-0.786,0-0.971
		C294.556,146.946,294.556,147.271,294.556,147.594z"/>
	<path fill-rule="evenodd" clip-rule="evenodd" fill="#00CC00" d="M294.556,147.594c2.611-0.671,1.877,2.008,2.911,2.912
		c-0.323,0-0.646,0-0.971,0c-0.617,2.118,2.753,3.09-0.969,2.914c-1.403-1.188-1.474-3.704-2.915-4.857
		C293.369,148.347,294.53,148.539,294.556,147.594z"/>
	<path fill-rule="evenodd" clip-rule="evenodd" fill="#00CC00" d="M286.786,149.533c0-0.539,0.786-1.099,0.973,0
		C287.435,149.533,287.111,149.533,286.786,149.533z"/>
	<path fill-rule="evenodd" clip-rule="evenodd" fill="#00CC00" d="M297.467,150.506c0.757,0.216,1.917,0.026,1.944,0.972
		C298.658,151.262,297.495,151.45,297.467,150.506z"/>
	<path fill-rule="evenodd" clip-rule="evenodd" fill="#00CC00" d="M194.549,154.393
		C194.646,155.566,193.138,154.986,194.549,154.393L194.549,154.393z"/>
	<path fill-rule="evenodd" clip-rule="evenodd" fill="#00CC00" d="M294.556,154.393c2.419,0.391,0.058,3.765-1.943,2.911
		C292.08,155.147,294.468,155.921,294.556,154.393z"/>
	<path fill-rule="evenodd" clip-rule="evenodd" fill="#00CC00" d="M249.893,155.363c1.056,0.236,0.658,1.93,1.94,1.94
		c0.438,2.702-5.291-0.76-4.854,1.939c-3.118-1.094,0.938-2.77,2.914-1.939C249.893,156.655,249.893,156.008,249.893,155.363z"/>
	<path fill-rule="evenodd" clip-rule="evenodd" fill="#00CC00" d="M300.382,156.332C299.974,155.924,301.017,156.97,300.382,156.332
		L300.382,156.332z"/>
	<path fill-rule="evenodd" clip-rule="evenodd" fill="#00CC00" d="M243.095,158.271C242.69,157.866,243.733,158.912,243.095,158.271
		L243.095,158.271z"/>
	<path fill-rule="evenodd" clip-rule="evenodd" fill="#00CC00" d="M275.137,158.271c3.819-1.229,2.889,2.294,2.912,4.858
		c-1.616,0-3.235,0-4.854,0C273.61,161.278,275.967,161.372,275.137,158.271z"/>
	<path fill-rule="evenodd" clip-rule="evenodd" fill="#00CC00" d="M293.585,159.243
		C293.177,158.839,294.223,159.881,293.585,159.243L293.585,159.243z"/>
	<path fill-rule="evenodd" clip-rule="evenodd" fill="#00CC00" d="M248.921,162.158
		C247.747,162.256,248.324,160.748,248.921,162.158L248.921,162.158z"/>
	<path fill-rule="evenodd" clip-rule="evenodd" fill="#00CC00" d="M248.921,162.158
		C254.073,161.105,250.069,165.107,248.921,162.158L248.921,162.158z"/>
	<path fill-rule="evenodd" clip-rule="evenodd" fill="#00CC00" d="M255.719,163.13C255.311,162.721,256.353,163.764,255.719,163.13
		L255.719,163.13z"/>
	<path fill-rule="evenodd" clip-rule="evenodd" fill="#00CC00" d="M266.401,163.13c0.026-0.945,1.187-0.756,1.939-0.972
		C268.313,163.103,267.153,162.91,266.401,163.13z"/>
	<path fill-rule="evenodd" clip-rule="evenodd" fill="#00CC00" d="M281.936,163.13c-0.594-0.055-1.15-0.148-0.972-0.972
		C281.554,162.212,282.111,162.304,281.936,163.13z"/>
	<path fill-rule="evenodd" clip-rule="evenodd" fill="#00CC00" d="M121.728,164.101C121.32,163.693,122.365,164.735,121.728,164.101
		L121.728,164.101z"/>
	<path fill-rule="evenodd" clip-rule="evenodd" fill="#00CC00" d="M112.99,166.041c-0.108,2.479-3.252,1.927-5.826,1.94
		C108.058,166.287,110.2,165.842,112.99,166.041z"/>
	<path fill-rule="evenodd" clip-rule="evenodd" fill="#00CC00" d="M90.658,167.981c-0.003-0.537,0.786-1.101,0.97,0
		C91.306,167.981,90.983,167.981,90.658,167.981z"/>
	<path fill-rule="evenodd" clip-rule="evenodd" fill="#00CC00" d="M90.658,167.981c-1.434,4.898-10.681,8.157-12.622,1.942
		C83.785,170.818,86.084,168.265,90.658,167.981z"/>
	<path fill-rule="evenodd" clip-rule="evenodd" fill="#00CC00" d="M91.629,167.981C96.78,166.929,92.777,170.933,91.629,167.981
		L91.629,167.981z"/>
	<path fill-rule="evenodd" clip-rule="evenodd" fill="#00CC00" d="M35.316,178.662c0-1.616,0-3.235,0-4.852
		c1.101-0.186,0.538-0.975,0-0.972c0-0.647,0-1.296,0-1.943c2.574-1.768,7.948-0.91,9.707,3.887
		C39.83,174.117,39.991,178.811,35.316,178.662z"/>
	<path fill-rule="evenodd" clip-rule="evenodd" fill="#00CC00" d="M71.24,171.867C70.833,171.462,71.876,172.501,71.24,171.867
		L71.24,171.867z"/>
	<path fill-rule="evenodd" clip-rule="evenodd" fill="#00CC00" d="M73.181,171.867c0.027-0.944,1.188-0.756,1.942-0.972
		C75.096,171.84,73.935,171.651,73.181,171.867z"/>
	<path fill-rule="evenodd" clip-rule="evenodd" fill="#00CC00" d="M58.617,172.839C58.519,171.665,60.029,172.238,58.617,172.839
		L58.617,172.839z"/>
	<path fill-rule="evenodd" clip-rule="evenodd" fill="#00CC00" d="M281.936,173.811c0.154-1.141,1.768-0.82,2.911-0.972
		C284.688,173.977,283.076,173.655,281.936,173.811z"/>
	<path fill-rule="evenodd" clip-rule="evenodd" fill="#00CC00" d="M79.978,174.782c-0.002-0.54,0.788-1.106,0.971,0
		C80.625,174.782,80.302,174.782,79.978,174.782z"/>
	<path fill-rule="evenodd" clip-rule="evenodd" fill="#00CC00" d="M67.357,175.75C66.948,175.343,67.993,176.388,67.357,175.75
		L67.357,175.75z"/>
	<path fill-rule="evenodd" clip-rule="evenodd" fill="#00CC00" d="M70.268,175.75C69.096,175.849,69.671,174.341,70.268,175.75
		L70.268,175.75z"/>
	<path fill-rule="evenodd" clip-rule="evenodd" fill="#00CC00" d="M43.082,177.69c1.743-0.122,2.048,1.19,3.885,0.972
		C47.275,180.375,41.527,180.396,43.082,177.69z"/>
	<path fill-rule="evenodd" clip-rule="evenodd" fill="#00CC00" d="M146.973,178.662c0.52-2.288,4.595-0.594,1.943,0.972
		C148.13,179.451,147.948,178.662,146.973,178.662z"/>
	<path fill-rule="evenodd" clip-rule="evenodd" fill="#00CC00" d="M35.316,181.577c0-0.324,0-0.648,0-0.973
		C35.854,180.604,36.417,181.391,35.316,181.577z"/>
	<path fill-rule="evenodd" clip-rule="evenodd" fill="#00CC00" d="M173.19,180.604c0,0.541-0.786,1.101-0.972,0
		C172.542,180.604,172.865,180.604,173.19,180.604z"/>
	<path fill-rule="evenodd" clip-rule="evenodd" fill="#00CC00" d="M81.921,186.432c-0.164-2.105,3.443-0.442,4.853-0.968
		C86.939,187.568,83.331,185.901,81.921,186.432z"/>
</g>
</svg>
