<?xml version="1.0" encoding="utf-8"?>
<!-- Generator: Adobe Illustrator 15.0.2, SVG Export Plug-In . SVG Version: 6.00 Build 0)  -->
<!DOCTYPE svg PUBLIC "-//W3C//DTD SVG 1.1//EN" "http://www.w3.org/Graphics/SVG/1.1/DTD/svg11.dtd">
<svg version="1.1" id="Calque_1" xmlns="http://www.w3.org/2000/svg" xmlns:xlink="http://www.w3.org/1999/xlink" x="0px" y="0px"
	 width="320px" height="36.5px" viewBox="0 0 320 36.5" enable-background="new 0 0 320 36.5" xml:space="preserve">
<g display="none">
	
		<linearGradient id="SVGID_1_" gradientUnits="userSpaceOnUse" x1="2024.7998" y1="-1410.998" x2="2024.7998" y2="-1374.998" gradientTransform="matrix(1 0 0 -1 -1824.7998 -1374.998)">
		<stop  offset="0" style="stop-color:#FFFFFF"/>
		<stop  offset="1" style="stop-color:#42608C"/>
	</linearGradient>
	<rect x="160" display="inline" fill="url(#SVGID_1_)" width="80" height="36"/>
	<rect x="238" display="inline" fill="#72A7F3" width="1" height="36"/>
	<rect x="239" display="inline" fill="#132C49" width="1" height="36"/>
</g>
<g id="Effet_NoPatch">
</g>
<rect x="160" fill="#E65E84" width="78" height="36.25"/>
<linearGradient id="SVGID_2_" gradientUnits="userSpaceOnUse" x1="1642.8398" y1="1141.3994" x2="1642.8398" y2="1123.3984" gradientTransform="matrix(1 0 0 1 -1443.8398 -1104.8984)">
	<stop  offset="0" style="stop-color:#F01B57;stop-opacity:0"/>
	<stop  offset="1" style="stop-color:#F01B57;stop-opacity:0.5"/>
</linearGradient>
<rect x="160" y="18.499" fill="url(#SVGID_2_)" width="78" height="18.001"/>
<rect x="80" fill="#F01B57" width="78" height="36"/>
<linearGradient id="SVGID_3_" gradientUnits="userSpaceOnUse" x1="1562.8398" y1="1141.3994" x2="1562.8398" y2="1123.3994" gradientTransform="matrix(1 0 0 1 -1443.8398 -1104.8984)">
	<stop  offset="0" style="stop-color:#F01B57;stop-opacity:0"/>
	<stop  offset="1" style="stop-color:#E65E84;stop-opacity:0.5"/>
</linearGradient>
<rect x="80" y="18.5" fill="url(#SVGID_3_)" width="78" height="18"/>
<g>
	<rect x="79" fill="#2B89FE" width="1" height="36"/>
	<rect x="78" fill="#2679E0" width="1" height="36"/>
</g>
<rect x="240" opacity="0.2" enable-background="new    " width="80" height="36"/>
<g>
	<rect y="32.5" fill="#D31147" width="320" height="4"/>
</g>
<rect y="32.5" fill="#2B89FE" width="80" height="1"/>
<rect y="35.5" fill="#2B89FE" width="320" height="1"/>
<rect x="158.021" y="32.5" fill="#2B89FE" width="1.979" height="1"/>
<g>
	<rect x="159.011" fill="#2B89FE" width="1" height="32.5"/>
	<rect x="158.011" fill="#2679E0" width="1" height="32.5"/>
</g>
<g>
	<rect x="239" fill="#2B89FE" width="1" height="33"/>
	<rect x="238" fill="#2679E0" width="1" height="33"/>
</g>
<rect x="238" y="32.5" fill="#2B89FE" width="81" height="1"/>
<g>
	<rect x="319" fill="#2B89FE" width="1" height="32.5"/>
	<rect x="318" fill="#2679E0" width="1" height="32.5"/>
</g>
</svg>
