<?xml version="1.0" encoding="utf-8"?>
<!-- Generator: Adobe Illustrator 15.0.0, SVG Export Plug-In . SVG Version: 6.00 Build 0)  -->
<!DOCTYPE svg PUBLIC "-//W3C//DTD SVG 1.1//EN" "http://www.w3.org/Graphics/SVG/1.1/DTD/svg11.dtd">
<svg version="1.1" id="Calque_1" xmlns="http://www.w3.org/2000/svg" xmlns:xlink="http://www.w3.org/1999/xlink" x="0px" y="0px"
	 width="160px" height="24px" viewBox="0 0 160 24" enable-background="new 0 0 160 24" xml:space="preserve">
<rect fill="#E8C6B0" width="160" height="24"/>
<path fill="#C0C0C0" d="M154.965,0C156.643,0,158,1.357,158,3.034v16.931V21c0,1.105,0.896,2,2,2v1H80v-1c1.105,0,2-0.895,2-2
	v-1.035V3.034C82,1.357,83.359,0,85.036,0H154.965 M154.965,1H85.036C83.913,1,83,1.913,83,3.034v16.931V21
	c0,0.768-0.29,1.469-0.766,2h75.531C157.29,22.469,157,21.768,157,21v-1.035V3.034C157,1.913,156.087,1,154.965,1L154.965,1z"/>
<path fill="#EEEBE8" d="M157,21V3.274c0-1.393-0.734-2.28-2.281-2.28H85.281C83.703,0.994,83,1.865,83,3.274V21c0,1.105-0.875,3-3,3
	h80C157.859,24,157,22.105,157,21z"/>
<linearGradient id="SVGID_1_" gradientUnits="userSpaceOnUse" x1="120" y1="24" x2="120" y2="0.9946">
	<stop  offset="0" style="stop-color:#FFFFFE;stop-opacity:0"/>
	<stop  offset="0.9941" style="stop-color:#FFFFFE;stop-opacity:0.3"/>
</linearGradient>
<path fill="url(#SVGID_1_)" d="M157,21V3.274c0-1.393-0.734-2.28-2.281-2.28H85.281C83.703,0.994,83,1.865,83,3.274V21
	c0,1.105-0.875,3-3,3h80C157.859,24,157,22.105,157,21z"/>
</svg>
