<?xml version="1.0" encoding="utf-8"?>
<!-- Generator: Adobe Illustrator 15.0.0, SVG Export Plug-In . SVG Version: 6.00 Build 0)  -->
<!DOCTYPE svg PUBLIC "-//W3C//DTD SVG 1.1//EN" "http://www.w3.org/Graphics/SVG/1.1/DTD/svg11.dtd">
<svg version="1.1" id="Calque_1" xmlns="http://www.w3.org/2000/svg" xmlns:xlink="http://www.w3.org/1999/xlink" x="0px" y="0px"
	 width="48px" height="24px" viewBox="0 0 48 24" enable-background="new 0 0 48 24" xml:space="preserve">
<rect fill="#E8C6B0" width="48" height="24"/>
<path fill="#C0C0C0" d="M48,18.965C48,20.643,46.643,22,44.966,22H28.035H27c-1.105,0-2,0.896-2,2h-1V0h1c0,1.105,0.895,2,2,2h1.035
	h16.931C46.643,2,48,3.359,48,5.036V18.965 M47,18.965V5.036C47,3.913,46.087,3,44.966,3H28.035H27c-0.768,0-1.469-0.29-2-0.766
	v19.531C25.531,21.29,26.232,21,27,21h1.035h16.931C46.087,21,47,20.087,47,18.965L47,18.965z"/>
<path fill="#EEEBE8" d="M27,21h17.727c1.393,0,2.279-0.734,2.279-2.281V5.281C47.006,3.703,46.135,3,44.727,3H27
	c-1.105,0-3-0.875-3-3v24C24,21.859,25.895,21,27,21z"/>
<linearGradient id="SVGID_1_" gradientUnits="userSpaceOnUse" x1="43" y1="71.4971" x2="18.9995" y2="71.4971" gradientTransform="matrix(-4.371139e-008 1 -1 -4.371139e-008 106.9996 -19.0004)">
	<stop  offset="0" style="stop-color:#FFFFFE;stop-opacity:0"/>
	<stop  offset="0.9941" style="stop-color:#FFFFFE;stop-opacity:0.3"/>
</linearGradient>
<path fill="url(#SVGID_1_)" d="M27,21h17.727c1.393,0,2.279-0.734,2.279-2.281V5.281C47.006,3.703,46.135,3,44.727,3H27
	c-1.105,0-3-0.875-3-3v24C24,21.859,25.895,21,27,21z"/>
</svg>
