<?xml version="1.0" encoding="utf-8"?>
<!-- Generator: Adobe Illustrator 15.0.0, SVG Export Plug-In . SVG Version: 6.00 Build 0)  -->
<!DOCTYPE svg PUBLIC "-//W3C//DTD SVG 1.1//EN" "http://www.w3.org/Graphics/SVG/1.1/DTD/svg11.dtd">
<svg version="1.1" id="Calque_1" xmlns="http://www.w3.org/2000/svg" xmlns:xlink="http://www.w3.org/1999/xlink" x="0px" y="0px"
	 width="48px" height="24px" viewBox="0 0 48 24" enable-background="new 0 0 48 24" xml:space="preserve">
<rect fill="#E8C6B0" width="48" height="24"/>
<path fill="#C0C0C0" d="M24,18.965V5.036C24,3.359,25.357,2,27.034,2h16.931H45c1.105,0,2-0.895,2-2h1v24h-1c0-1.104-0.895-2-2-2
	h-1.035H27.034C25.357,22,24,20.643,24,18.965 M25,18.965C25,20.087,25.913,21,27.034,21h16.931H45c0.768,0,1.469,0.29,2,0.766
	V2.234C46.469,2.71,45.768,3,45,3h-1.035H27.034C25.913,3,25,3.913,25,5.036V18.965L25,18.965z"/>
<path fill="#EEEBE8" d="M48,24V0c0,2.125-1.895,3-3,3H27.273c-1.408,0-2.279,0.703-2.279,2.281v13.438
	c0,1.547,0.887,2.281,2.279,2.281H45C46.105,21,48,21.859,48,24z"/>
<linearGradient id="SVGID_1_" gradientUnits="userSpaceOnUse" x1="43" y1="93.5068" x2="18.9995" y2="93.5068" gradientTransform="matrix(4.366649e-008 1 1 -4.366649e-008 -57.0094 -19.0004)">
	<stop  offset="0" style="stop-color:#FFFFFE;stop-opacity:0"/>
	<stop  offset="0.9941" style="stop-color:#FFFFFE;stop-opacity:0.3"/>
</linearGradient>
<path fill="url(#SVGID_1_)" d="M48,24V0c0,2.125-1.895,3-3,3H27.273c-1.408,0-2.279,0.703-2.279,2.281v13.438
	c0,1.547,0.887,2.281,2.279,2.281H45C46.105,21,48,21.859,48,24z"/>
</svg>
