<?xml version="1.0" encoding="utf-8"?>
<!-- Generator: Adobe Illustrator 15.0.0, SVG Export Plug-In . SVG Version: 6.00 Build 0)  -->
<!DOCTYPE svg PUBLIC "-//W3C//DTD SVG 1.1//EN" "http://www.w3.org/Graphics/SVG/1.1/DTD/svg11.dtd">
<svg version="1.1" id="Calque_1" xmlns="http://www.w3.org/2000/svg" xmlns:xlink="http://www.w3.org/1999/xlink" x="0px" y="0px"
	 width="36px" height="36px" viewBox="0 0 36 36" enable-background="new 0 0 36 36" xml:space="preserve">
<g>
	<path fill="#E8C6B0" d="M31,28.705c0,1.268-1.029,2.297-2.297,2.297H7.294c-1.26,0-2.293-1.029-2.293-2.297V7.295
		c0-1.259,1.033-2.293,2.293-2.293h21.409C29.971,5.002,31,6.036,31,7.295V28.705z"/>
</g>
<linearGradient id="SVGID_1_" gradientUnits="userSpaceOnUse" x1="779.9199" y1="589.2012" x2="779.9199" y2="576.2012" gradientTransform="matrix(1 0 0 1 -761.9199 -558.1992)">
	<stop  offset="0" style="stop-color:#D3117E;stop-opacity:0"/>
	<stop  offset="1" style="stop-color:#D3117E"/>
</linearGradient>
<path fill="url(#SVGID_1_)" d="M28.703,18.001H7.293H5v2.297v-0.383v8.789c0,1.267,1.034,2.297,2.293,2.297h21.41
	c1.268,0,2.297-1.03,2.297-2.297v-8.789v0.383v-2.297H28.703z"/>
<g>
	<path fill="#2AEDFF" d="M28.677,5.001C29.963,5.001,31,6.038,31,7.322v21.356c0,1.286-1.037,2.323-2.323,2.323H7.322
		c-1.282,0-2.32-1.037-2.32-2.323V7.322c0-1.284,1.039-2.32,2.32-2.32L28.677,5.001 M28.677,5.767H7.322
		c-0.856,0-1.555,0.698-1.555,1.555V28.68c0,0.86,0.698,1.557,1.555,1.557h21.354c0.863,0,1.559-0.695,1.559-1.557V7.322
		C30.234,6.466,29.54,5.767,28.677,5.767L28.677,5.767z"/>
</g>
<polygon fill="#808090" points="21.757,24 21.757,12 12.241,18 "/>
</svg>
