<?xml version="1.0" encoding="utf-8"?>
<!-- Generator: Adobe Illustrator 15.0.0, SVG Export Plug-In . SVG Version: 6.00 Build 0)  -->
<!DOCTYPE svg PUBLIC "-//W3C//DTD SVG 1.1//EN" "http://www.w3.org/Graphics/SVG/1.1/DTD/svg11.dtd">
<svg version="1.1" id="Calque_1" xmlns="http://www.w3.org/2000/svg" xmlns:xlink="http://www.w3.org/1999/xlink" x="0px" y="0px"
	 width="384px" height="45px" viewBox="0 0 384 45" enable-background="new 0 0 384 45" xml:space="preserve">
<rect fill="#FFFFFF" width="384" height="15"/>
<rect fill="#FFFFFF" width="16" height="15"/>
<rect x="80" fill="#FFFFFF" width="16" height="15"/>
<rect x="96" fill="#FFFFFF" width="16" height="15"/>
<rect x="176" fill="#FFFFFF" width="16" height="15"/>
<rect x="192" fill="#FFFFFF" width="16" height="15"/>
<rect x="272" fill="#FFFFFF" width="16" height="15"/>
<rect x="288" fill="#FFFFFF" width="16" height="15"/>
<rect x="368" fill="#FFFFFF" width="16" height="15"/>
<polygon fill="#FFFFFF" points="2.426,35.506 2.426,44.494 7.574,40 "/>
<polygon fill="#FFFFFF" points="7.573,24.495 7.573,15.507 2.425,20.001 "/>
<polygon fill="#FFFFFF" points="17.573,24.496 17.573,15.508 12.425,20.002 "/>
<polygon fill="#FFFFFF" points="27.573,24.495 27.573,15.507 22.425,20.001 "/>
<polygon fill="#FFFFFF" points="37.573,24.495 37.573,15.507 32.425,20.001 "/>
<polygon fill="#FFFFFF" points="12.425,35.506 12.425,44.494 17.573,40 "/>
<polygon fill="#FFFFFF" points="22.425,35.506 22.425,44.494 27.573,40 "/>
<polygon fill="#FFFFFF" points="32.425,35.506 32.425,44.494 37.573,40 "/>
<rect x="48" fill="#2D2D2D" width="32" height="15"/>
<rect x="144" fill="#2D2D2D" width="32" height="15"/>
<rect x="240" fill="#2D2D2D" width="32" height="15"/>
<rect x="336" fill="#2D2D2D" width="32" height="15"/>
</svg>
